<svg version="1.1" id="Layer_1" xmlns="http://www.w3.org/2000/svg" x="0" y="0" viewBox="0 0 48 48" xml:space="preserve" enable-background="new 0 0 48 48"><style>.st1{fill:#fff}</style><g transform="translate(4.5 4)"><defs><filter id="Adobe_OpacityMaskFilter" filterUnits="userSpaceOnUse" x="-4.5" y="-4" width="48" height="48"><feColorMatrix values="1 0 0 0 0 0 1 0 0 0 0 0 1 0 0 0 0 0 1 0"/></filter></defs><mask maskUnits="userSpaceOnUse" x="-4.5" y="-4" width="48" height="48" id="b_1_"><g filter="url(#Adobe_OpacityMaskFilter)"><path id="a_1_" class="st1" d="M4 2.6L2.6 4.4C13 12.3 18.2 20 18.2 27.5v10h2.2v-10c0-8.3-5.5-16.6-16.4-24.9z"/></g></mask><path opacity=".4" mask="url(#b_1_)" fill="#052049" enable-background="new" d="M-4.5-4h48v48h-48z"/><defs><filter id="Adobe_OpacityMaskFilter_1_" filterUnits="userSpaceOnUse" x="-4.5" y="-4" width="48" height="48"><feColorMatrix values="1 0 0 0 0 0 1 0 0 0 0 0 1 0 0 0 0 0 1 0"/></filter></defs><mask maskUnits="userSpaceOnUse" x="-4.5" y="-4" width="48" height="48" id="d_1_"><g filter="url(#Adobe_OpacityMaskFilter_1_)"><path id="c_1_" class="st1" d="M32 4.7H18V2.4h18.1v18.1h-2.2V6c-9 7.3-13.5 14.5-13.5 21.5v10h-2.2v-10c-.1-7.6 4.6-15.2 13.8-22.8z"/></g></mask><path mask="url(#d_1_)" fill="#006be9" d="M-4.5-4h48v48h-48z"/></g></svg>