<svg version="1.1" id="Layer_1" xmlns="http://www.w3.org/2000/svg" x="0" y="0" viewBox="0 0 48 48" xml:space="preserve"><path id="a_1_" d="M18.5 26.8c-4.4 0-8 3.4-8.2 7.7l-.4 6.8h28.4l-.4-6.8c-.3-4.3-3.9-7.7-8.2-7.7H28l-3.2 6.6c-.2.4-.6.5-1 .3-.2-.1-.3-.2-.3-.3l-3.2-6.6c-.2-.1-1.8-.1-1.8 0zm5.5 4.5l2.7-5.6c.1-.3.4-.4.7-.4h2.1c5.1 0 9.4 4 9.7 9.1l.5 7.6c0 .4-.3.8-.7.8H9c-.4 0-.8-.3-.8-.7l.5-7.6c.3-5.1 4.6-9.1 9.7-9.1h2.2c.3 0 .6.2.7.4 0-.1 2.7 5.5 2.7 5.5zm6.2-.1v-5h1.5v5h1.5c.5 0 1.1.4 1.3 1l1.2 5.2c.1.9-.5 1.3-1.3 1.3h-1.9v-1.5h1.6l-1-4.5h-4.3l-1 4.5h1.6v1.5h-1.9c-.8 0-1.4-.5-1.3-1.3l1.2-5.2c.1-.5.7-1 1.3-1h1.5zm-15-5h1.5v6.9h-1.5v-6.9zm.8 11.6c-1.5 0-2.8-1.2-2.8-2.8s1.2-2.8 2.8-2.8 2.8 1.2 2.8 2.8-1.3 2.8-2.8 2.8zm0-1.6c.7 0 1.2-.6 1.2-1.2s-.6-1.2-1.2-1.2c-.7 0-1.2.6-1.2 1.2s.5 1.2 1.2 1.2zm8-12.4c-4.1 0-7.8-5.1-7.8-9.8 0-4.3 3.5-7.8 7.8-7.8s7.8 3.5 7.8 7.8c0 4.6-3.7 9.8-7.8 9.8zm0-1.6c3.1 0 6.2-4.4 6.2-8.2 0-3.5-2.8-6.2-6.2-6.2s-6.2 2.8-6.2 6.2c0 3.9 3.1 8.2 6.2 8.2z" fill="#000"/></svg>