<svg version="1.1" id="hosptial" xmlns="http://www.w3.org/2000/svg" x="0" y="0" viewBox="0 0 48 48" xml:space="preserve"><path d="M20.5 30.7h-3.2c-.5 0-1-.4-1-1v-3.2c0-.5.4-1 1-1h3.2c.5 0 1 .4 1 1v3.2c-.1.6-.5 1-1 1zm7 0h3.2c.5 0 1-.4 1-1v-3.2c0-.5-.4-1-1-1h-3.2c-.5 0-1 .4-1 1v3.2c.1.6.5 1 1 1zM17.2 23h3.2c.5 0 1-.4 1-1v-3.2c0-.5-.4-1-1-1h-3.2c-.5 0-1 .4-1 1V22c.1.6.5 1 1 1zm10.3 0h3.2c.5 0 1-.4 1-1v-3.2c0-.5-.4-1-1-1h-3.2c-.5 0-1 .4-1 1V22c.1.6.5 1 1 1zM42 43.6H6V42c0-.5.4-1 1-1h1.6V9.3c0-.9.9-1.7 1.9-1.7h7.1V4.4c0-1.1.9-1.9 1.9-1.9h9c1.1 0 1.9.9 1.9 1.9v3.2h7.1c1.1 0 1.9.8 1.9 1.7V41H41c.5 0 1 .4 1 1v1.6zM11.1 41h10.3v-6.8c0-.5.4-1 1-1h3.2c.5 0 1 .4 1 1V41h10.3V10.1h-6.4v3.2c0 1.1-.9 1.9-1.9 1.9h-9c-1.1 0-1.9-.9-1.9-1.9v-3.2h-6.4V41zM27.4 7.6h-2.1V5.5c0-.3-.2-.5-.5-.5h-1.6c-.3 0-.5.2-.5.5v2.1h-2.1c-.3 0-.5.2-.5.5v1.6c0 .3.2.5.5.5h2.1v2.1c0 .3.2.5.5.5h1.6c.3 0 .5-.2.5-.5v-2.1h2.1c.3 0 .5-.2.5-.5V8.1c0-.3-.3-.5-.5-.5z"/></svg>