<svg version="1.1" id="research" xmlns="http://www.w3.org/2000/svg" x="0" y="0" viewBox="0 0 48 48" xml:space="preserve"><path d="M37.3 33.6h-2.7c2.6-1.9 4.3-5 4.3-8.5 0-5.9-4.8-10.6-10.6-10.6v-4.2c0-1.2-1-2.1-2.1-2.1V7.1c0-.6-.5-1.1-1.1-1.1h-6.4c-.6 0-1.1.5-1.1 1.1v1.1c-1.2 0-2.1 1-2.1 2.1v14.9c0 1.2 1 2.1 2.1 2.1v3.2c0 .6.5 1.1 1.1 1.1h6.4c.6 0 1.1-.5 1.1-1.1v-3.2c1.2 0 2.1-1 2.1-2.1v-8.5c4.7 0 8.5 3.8 8.5 8.5s-3.8 8.5-8.5 8.5H10.7c-2.1 0-3.7 1.7-3.7 3.7C7 38.8 8.2 40 9.7 40h28.7c1.5 0 2.7-1.2 2.7-2.7-.1-2-1.8-3.7-3.8-3.7zM24 29.4h-4.2v-2.1H24v2.1zm2.1-4.3h-8.5V10.2h2.1V8.1H24v2.1h2.1v14.9zm12.2 12.8H9.7c-.3 0-.5-.2-.5-.5 0-.9.7-1.6 1.6-1.6h26.6c.9 0 1.6.7 1.6 1.6-.1.2-.4.5-.7.5z" fill="#006be9"/></svg>