<svg version="1.1" id="patient_care" xmlns="http://www.w3.org/2000/svg" x="0" y="0" viewBox="0 0 48 48" xml:space="preserve"><path d="M39.3 10c-3.3-3.2-6.8-3.2-7.7-3.2s-4.4 0-7.7 3.2c-3.2-3.2-6.8-3.2-7.7-3.2-.9 0-4.4 0-7.7 3.2-2 2-3.1 4.6-3.1 7.5 0 2.5.9 4.8 2.4 6.7h8.7l2.2-5.2 4.1 9.1c.4.9 1.7.9 2.1 0l3.6-7.2 1.6 3.2H40c1.6-1.9 2.4-4.2 2.4-6.7.1-2.7-1.1-5.4-3.1-7.4zm-.4 11.9h-7.3l-2-4c-.4-.9-1.6-.9-2.1 0l-3.5 7-4.2-9.3c-.4-.9-1.7-.9-2.1 0l-2.6 6.2H9c-.7-1.1-3.1-6 1.3-10.3 1.6-1.6 3.8-2.4 5.9-2.4 2.5 0 3.9.5 7.7 4.1 4-3.9 5.4-4.1 7.7-4.1 2.1 0 4.3.8 5.9 2.4 4.5 4.4 2 9.3 1.4 10.4zm-14 14.7c-.4.4-1.2.4-1.6 0l-9.9-10.1h-3.2l11.6 11.7c1.4 1.3 3.5 1.3 4.9 0L38 26.5h-3.2l-9.9 10.1z" fill="#006be9"/></svg>