<svg version="1.1" id="Layer_1" xmlns="http://www.w3.org/2000/svg" x="0" y="0" viewBox="0 0 48 48" xml:space="preserve"><path id="a_1_" d="M22.9 10.4v1.7h-1.7V7.3h1.7v1.4h3c1.5 0 2.4.9 2.3 2.4l-2.9 17.4c-.2 1-1.4 2.1-2.3 2.1h-5v7h17.2v-5.7c-2.5-.4-4.3-2.5-4.3-5.1 0-2.9 2.3-5.2 5.2-5.2s5.2 2.3 5.2 5.2c0 2.6-1.9 4.7-4.3 5.1v6.5c0 .5-.4.8-.8.8H17.1c-.5 0-.8-.4-.8-.8v-7.9h-5c-1 0-2.2-1.1-2.3-2.1L6.2 11.1C6 9.7 7 8.7 8.4 8.7h3.1V7.3h1.7v4.8h-1.7v-1.7H8.4c-.5 0-.7.1-.6.5l2.9 17.5c0 .2.5.7.6.7h11.6s.6-.5.6-.8L26.4 11c0-.4-.1-.5-.6-.5h-2.9zM36 30.5c1.9 0 3.5-1.6 3.5-3.5s-1.6-3.5-3.5-3.5-3.5 1.5-3.5 3.5 1.5 3.5 3.5 3.5z" fill="#006be9"/></svg>