<svg version="1.1" id="Layer_2" xmlns="http://www.w3.org/2000/svg" x="0" y="0" viewBox="0 0 48 48" xml:space="preserve"><path d="M46.4 32v-2.7H36.2v9.9c-.1-1.2-.5-2.1-1.3-2.7-.6-.4-1.4-.8-2.5-1.1l-2.5-.6c-1-.2-1.6-.4-1.9-.6-.3-.2-.5-.3-.6-.6-.1-.2-.1-.4-.1-.6 0-.4.2-.8.5-1.1l.2-.2c.5-.3 1.1-.5 1.9-.5.7 0 1.3.1 1.8.4.7.4 1.1 1 1.2 1.9h2.9c-.1-1.5-.7-2.7-1.8-3.5-1.1-.8-2.4-1.2-3.9-1.2-1.8 0-3.2.4-4.2 1.3-.6.5-1 1.1-1.2 1.8 0 .1-.1.3-.1.5-.4 1.7-1.4 2.8-3.2 2.8-2.9 0-4-2.4-4-4.9 0-2.5 1.1-5 4-5 1.6 0 3 1.1 3.2 2.5h3.1c-.4-3.4-3.1-5.2-6.3-5.2-4.3 0-6.9 3.1-7.1 7.1V23H11v9c0 2.2-.7 3.2-3 3.2-2.6 0-3-1.6-3-3.2v-9H1.8v9c0 4 2.3 5.9 6.2 5.9 3.9 0 6.2-1.9 6.2-5.9v-1.1c.2 3.9 2.8 7 7.1 7 1.8 0 3.3-.6 4.4-1.6l.2.2c.6.4 1.6.8 3.2 1.1l1.6.3c.9.2 1.6.4 2 .7.4.3.6.6.6 1.1 0 .8-.4 1.4-1.3 1.7-.5.2-1 .2-1.8.2-1.2 0-2.1-.3-2.6-.9-.3-.3-.5-.8-.6-1.5h-2.9c0 1.5.5 2.7 1.6 3.5 1.1.9 2.6 1.3 4.5 1.3s3.3-.4 4.3-1.3c.9-.8 1.4-1.8 1.5-3v4.1h3.2v-6h6.1v-2.5h-6.1V32h7.2z"/></svg>