<?xml version="1.0" standalone="no"?><!DOCTYPE svg PUBLIC "-//W3C//DTD SVG 1.1//EN" "http://www.w3.org/Graphics/SVG/1.1/DTD/svg11.dtd"><svg width="100%" height="100%" viewBox="0 0 16 16" version="1.1" xmlns="http://www.w3.org/2000/svg" xmlns:xlink="http://www.w3.org/1999/xlink" xml:space="preserve" style="fill-rule:evenodd;clip-rule:evenodd;stroke-linejoin:round;stroke-miterlimit:1.41421;"><path id="_x33_56._Play" d="M15,4c-2.2,-3.8 -7.1,-5.1 -11,-2.9c-3.8,2.2 -5.1,7.1 -2.9,10.9c2.2,3.9 7.1,5.2 10.9,3c3.9,-2.2 5.2,-7.1 3,-11ZM11.2,13.6c-3.1,1.8 -7,0.7 -8.7,-2.3c-1.8,-3.1 -0.7,-7 2.3,-8.7c3.1,-1.8 7,-0.7 8.7,2.3c1.8,3 0.8,6.9 -2.3,8.7ZM10.9,7.7l-4.2,-2.4c-0.4,-0.3 -0.7,-0.1 -0.7,0.4l0,4.8c0,0.4 0.3,0.6 0.7,0.4l4.2,-2.4c0.4,-0.2 0.4,-0.6 0,-0.8Z" style="fill:#353535;fill-rule:nonzero;"/></svg>