<?xml version="1.0" encoding="utf-8"?>
<!-- Generator: Adobe Illustrator 22.1.0, SVG Export Plug-In . SVG Version: 6.00 Build 0)  -->
<svg version="1.1" id="Layer_1" xmlns="http://www.w3.org/2000/svg" xmlns:xlink="http://www.w3.org/1999/xlink" x="0px" y="0px"
	 viewBox="0 0 48 48" style="enable-background:new 0 0 48 48;" xml:space="preserve">
<style type="text/css">
	.st0{fill:#006BE9;}
</style>
<path id="a_1_" class="st0" d="M17.4,10.8c-0.4-0.4-0.7-0.8-1-1.2c-3.8,1.8-8,3-12.5,3V11c4.5,0,8.6-1.3,12.5-3.2l0.8-0.4l0.3,0.8
	c0.9,2.1,3.4,3.5,6.4,3.5s5.5-1.4,6.4-3.5l0.3-0.8l0.8,0.4c3.8,1.9,8,3.2,12.5,3.2v1.6c-4.5,0-8.6-1.2-12.5-3
	c-0.4,0.6-0.9,1.1-1.4,1.6c2.6,1.5,5.4,2.5,8.3,2.5v1.6c-3.5,0-6.8-1.2-9.8-3.1c-1.1,0.6-2.5,1-3.8,1.1v12h-1.6v-12
	c-1.7-0.2-3.2-0.6-4.4-1.4c-3,1.8-6.2,3-9.6,3v-1.6C12.1,13.3,14.9,12.3,17.4,10.8z M23.2,34v-5.1h1.6V34c1.7-0.5,2.7-2.2,2.3-3.9
	c-0.3-1.4-1.5-2.3-2.9-2.4c-0.2,0-0.3,0-0.4,0c-1.8,0.1-3.1,1.7-3,3.4C20.9,32.5,21.8,33.7,23.2,34z M27,27.2
	c2.1,1.7,2.4,4.7,0.7,6.7c-0.4,0.5-0.9,0.9-1.4,1.2c0.6,0.6,0.9,1.4,0.9,2.2c0,1.3-1,2.3-2.9,3.1L24,40.6l-0.3-0.2
	c-1.8-0.8-2.9-1.8-2.9-3.1c0-0.9,0.3-1.6,0.9-2.2c-2.3-1.3-3.2-4.2-1.8-6.6c0.3-0.6,0.7-1,1.2-1.4c-3.4-1.1-5.8-4.3-5.8-8.2
	c0-1,0.4-1.8,1-2.6c1.4-1.4,3.7-1.4,5.1,0c0.6,0.6,1,1.6,1,2.6h-1.6c0-1.1-0.9-2-2-2c-1.1,0-2,1-2,2c0,3.9,3,7,7,7.2
	c0.2,0,0.3,0,0.5,0c3.9-0.2,7-3.3,7-7.2c0-1.1-0.9-2-2-2c-1.1,0-2,0.9-2,2h-1.6c0-1,0.4-1.8,1-2.6c1.4-1.4,3.7-1.4,5.1,0
	c0.6,0.6,1,1.6,1,2.6C32.8,22.7,30.4,25.9,27,27.2z M25.6,37.3c0-0.9-0.7-1.6-1.6-1.6s-1.6,0.7-1.6,1.6c0,0.5,0.5,1,1.6,1.5
	C25.1,38.2,25.6,37.8,25.6,37.3z"/>
</svg>
