<?xml version="1.0" encoding="utf-8"?>
<!-- Generator: Adobe Illustrator 22.1.0, SVG Export Plug-In . SVG Version: 6.00 Build 0)  -->
<svg version="1.1" id="Layer_1" xmlns="http://www.w3.org/2000/svg" xmlns:xlink="http://www.w3.org/1999/xlink" x="0px" y="0px"
	 viewBox="0 0 48 48" style="enable-background:new 0 0 48 48;" xml:space="preserve">
<style type="text/css">
	.st0{fill:#000000;}
</style>
<path id="a_1_" class="st0" d="M18.5,26.8c-4.4,0-8,3.4-8.2,7.7l-0.4,6.8h28.4l-0.4-6.8c-0.3-4.3-3.9-7.7-8.2-7.7h-1.7l-3.2,6.6
	c-0.2,0.4-0.6,0.5-1,0.3c-0.2-0.1-0.3-0.2-0.3-0.3l-3.2-6.6C20.1,26.7,18.5,26.7,18.5,26.8z M24,31.3l2.7-5.6
	c0.1-0.3,0.4-0.4,0.7-0.4h2.1c5.1,0,9.4,4,9.7,9.1l0.5,7.6c0,0.4-0.3,0.8-0.7,0.8c0,0,0,0,0,0H9c-0.4,0-0.8-0.3-0.8-0.7c0,0,0,0,0,0
	l0.5-7.6c0.3-5.1,4.6-9.1,9.7-9.1h2.2c0.3,0,0.6,0.2,0.7,0.4C21.3,25.7,24,31.3,24,31.3z M30.2,31.2v-5h1.5v5h1.5
	c0.5,0,1.1,0.4,1.3,1l1.2,5.2c0.1,0.9-0.5,1.3-1.3,1.3h-1.9v-1.5h1.6l-1-4.5h-4.3l-1,4.5h1.6v1.5h-1.9c-0.8,0-1.4-0.5-1.3-1.3
	l1.2-5.2c0.1-0.5,0.7-1,1.3-1C28.7,31.2,30.2,31.2,30.2,31.2z M15.2,26.2h1.5v6.9h-1.5V26.2z M16,37.8c-1.5,0-2.8-1.2-2.8-2.8
	s1.2-2.8,2.8-2.8s2.8,1.2,2.8,2.8S17.5,37.8,16,37.8z M16,36.2c0.7,0,1.2-0.6,1.2-1.2s-0.6-1.2-1.2-1.2c-0.7,0-1.2,0.6-1.2,1.2
	S15.3,36.2,16,36.2z M24,23.8c-4.1,0-7.8-5.1-7.8-9.8c0-4.3,3.5-7.8,7.8-7.8s7.8,3.5,7.8,7.8C31.8,18.6,28.1,23.8,24,23.8z M24,22.2
	c3.1,0,6.2-4.4,6.2-8.2c0-3.5-2.8-6.2-6.2-6.2s-6.2,2.8-6.2,6.2C17.8,17.9,20.9,22.2,24,22.2z"/>
</svg>
