<?xml version="1.0" encoding="utf-8"?>
<!-- Generator: Adobe Illustrator 22.1.0, SVG Export Plug-In . SVG Version: 6.00 Build 0)  -->
<svg version="1.1" id="research" xmlns="http://www.w3.org/2000/svg" xmlns:xlink="http://www.w3.org/1999/xlink" x="0px" y="0px"
	 viewBox="0 0 48 48" style="enable-background:new 0 0 48 48;" xml:space="preserve">
<style type="text/css">
	.st0{fill:#000000;}
</style>
<path class="st0" d="M37.3,33.6h-2.7c2.6-1.9,4.3-5,4.3-8.5c0-5.9-4.8-10.6-10.6-10.6v-4.2c0-1.2-1-2.1-2.1-2.1V7.1
	c0-0.6-0.5-1.1-1.1-1.1h-6.4c-0.6,0-1.1,0.5-1.1,1.1v1.1c-1.2,0-2.1,1-2.1,2.1v14.9c0,1.2,1,2.1,2.1,2.1v3.2c0,0.6,0.5,1.1,1.1,1.1
	h6.4c0.6,0,1.1-0.5,1.1-1.1v-3.2c1.2,0,2.1-1,2.1-2.1v-8.5c4.7,0,8.5,3.8,8.5,8.5s-3.8,8.5-8.5,8.5H10.7c-2.1,0-3.7,1.7-3.7,3.7
	C7,38.8,8.2,40,9.7,40h28.7c1.5,0,2.7-1.2,2.7-2.7C41,35.3,39.3,33.6,37.3,33.6z M24,29.4h-4.2v-2.1H24V29.4z M26.1,25.1h-8.5V10.2
	h2.1V8.1H24v2.1h2.1V25.1z M38.3,37.9H9.7c-0.3,0-0.5-0.2-0.5-0.5c0-0.9,0.7-1.6,1.6-1.6h26.6c0.9,0,1.6,0.7,1.6,1.6
	C38.9,37.6,38.6,37.9,38.3,37.9z"/>
</svg>
