<?xml version="1.0" encoding="utf-8"?>
<!-- Generator: Adobe Illustrator 26.5.0, SVG Export Plug-In . SVG Version: 6.00 Build 0)  -->
<svg version="1.1" id="Layer_2" xmlns="http://www.w3.org/2000/svg" xmlns:xlink="http://www.w3.org/1999/xlink" x="0px" y="0px"
	 viewBox="0 0 48 48" style="enable-background:new 0 0 48 48;" xml:space="preserve">
<style type="text/css">
	.st0{fill:#000000;}
</style>
<g>
	<path class="st0" d="M46.4,32v-2.7H36.2v9.9c-0.1-1.2-0.5-2.1-1.3-2.7c-0.6-0.4-1.4-0.8-2.5-1.1l-2.5-0.6c-1-0.2-1.6-0.4-1.9-0.6
		c-0.3-0.2-0.5-0.3-0.6-0.6c0,0,0,0,0,0c0,0,0,0,0,0l0,0c-0.1-0.2-0.1-0.4-0.1-0.6c0-0.4,0.2-0.8,0.5-1.1c0,0,0,0,0,0c0,0,0,0,0,0
		l0,0c0,0,0,0,0,0c0.1-0.1,0.1-0.1,0.2-0.2c0.5-0.3,1.1-0.5,1.9-0.5c0.7,0,1.3,0.1,1.8,0.4c0.7,0.4,1.1,1,1.2,1.9h2.9
		C35.7,32,35.1,30.8,34,30c-1.1-0.8-2.4-1.2-3.9-1.2c-1.8,0-3.2,0.4-4.2,1.3c-0.6,0.5-1,1.1-1.2,1.8h0c0,0.1-0.1,0.3-0.1,0.5h0
		c-0.4,1.7-1.4,2.8-3.2,2.8c-2.9,0-4-2.4-4-4.9c0-2.5,1.1-5,4-5c1.6,0,3,1.1,3.2,2.5h3.1c-0.4-3.4-3.1-5.2-6.3-5.2
		c-4.3,0-6.9,3.1-7.1,7.1V23H11V32c0,2.2-0.7,3.2-3,3.2c-2.6,0-3-1.6-3-3.2V23H1.8V32c0,4,2.3,5.9,6.2,5.9c3.9,0,6.2-1.9,6.2-5.9
		v-1.1c0.2,3.9,2.8,7,7.1,7c1.8,0,3.3-0.6,4.4-1.6c0.1,0.1,0.1,0.1,0.2,0.2c0.6,0.4,1.6,0.8,3.2,1.1l1.6,0.3c0.9,0.2,1.6,0.4,2,0.7
		c0.4,0.3,0.6,0.6,0.6,1.1c0,0.8-0.4,1.4-1.3,1.7c-0.5,0.2-1,0.2-1.8,0.2c-1.2,0-2.1-0.3-2.6-0.9c-0.3-0.3-0.5-0.8-0.6-1.5h-2.9
		c0,1.5,0.5,2.7,1.6,3.5c1.1,0.9,2.6,1.3,4.5,1.3c1.9,0,3.3-0.4,4.3-1.3c0.9-0.8,1.4-1.8,1.5-3v4.1h3.2v-6h6.1v-2.5h-6.1V32H46.4z"
		/>
</g>
</svg>
