<svg version="1.1" id="Layer_1" xmlns="http://www.w3.org/2000/svg" x="0" y="0" viewBox="0 0 48 48" xml:space="preserve"><path id="a_1_" d="M30.9 21.9v5.5c1.2 1.5 1.9 3.4 1.9 5.4 0 4.8-4 8.7-8.9 8.7S15 37.6 15 32.8c0-2.1.8-4.1 2.2-5.7V22L5 6.5h8.7L24 20.4 34.3 6.5H43L30.9 21.9zm-12.2 3.8c1.5-1.1 3.3-1.6 5.2-1.6 2.1 0 4 .7 5.5 1.8v-3H18.7v2.8zM23.9 40c4.1 0 7.4-3.2 7.4-7.2s-3.3-7.2-7.4-7.2-7.4 3.2-7.4 7.2 3.3 7.2 7.4 7.2zm-.1-2c-3 0-5.5-2.4-5.5-5.4s2.5-5.4 5.5-5.4 5.5 2.4 5.5 5.4c0 3-2.5 5.4-5.5 5.4zm0-1.5c2.2 0 4-1.7 4-3.9s-1.8-3.9-4-3.9-4 1.7-4 3.9 1.8 3.9 4 3.9zm-1.1-15.4L12.9 8H8.1l10.4 13.1h4.2zm2.6 0h4.2L39.9 8h-4.8l-9.8 13.1z" fill="#007cbe"/></svg>