<svg version="1.1" id="Layer_1" xmlns="http://www.w3.org/2000/svg" x="0" y="0" viewBox="0 0 48 48" xml:space="preserve"><path id="a_1_" d="M17.4 10.8c-.4-.4-.7-.8-1-1.2-3.8 1.8-8 3-12.5 3V11c4.5 0 8.6-1.3 12.5-3.2l.8-.4.3.8c.9 2.1 3.4 3.5 6.4 3.5s5.5-1.4 6.4-3.5l.3-.8.8.4c3.8 1.9 8 3.2 12.5 3.2v1.6c-4.5 0-8.6-1.2-12.5-3-.4.6-.9 1.1-1.4 1.6 2.6 1.5 5.4 2.5 8.3 2.5v1.6c-3.5 0-6.8-1.2-9.8-3.1-1.1.6-2.5 1-3.8 1.1v12h-1.6v-12c-1.7-.2-3.2-.6-4.4-1.4-3 1.8-6.2 3-9.6 3v-1.6c3 0 5.8-1 8.3-2.5zM23.2 34v-5.1h1.6V34c1.7-.5 2.7-2.2 2.3-3.9-.3-1.4-1.5-2.3-2.9-2.4h-.4c-1.8.1-3.1 1.7-3 3.4.1 1.4 1 2.6 2.4 2.9zm3.8-6.8c2.1 1.7 2.4 4.7.7 6.7-.4.5-.9.9-1.4 1.2.6.6.9 1.4.9 2.2 0 1.3-1 2.3-2.9 3.1l-.3.2-.3-.2c-1.8-.8-2.9-1.8-2.9-3.1 0-.9.3-1.6.9-2.2-2.3-1.3-3.2-4.2-1.8-6.6.3-.6.7-1 1.2-1.4-3.4-1.1-5.8-4.3-5.8-8.2 0-1 .4-1.8 1-2.6 1.4-1.4 3.7-1.4 5.1 0 .6.6 1 1.6 1 2.6h-1.6c0-1.1-.9-2-2-2s-2 1-2 2c0 3.9 3 7 7 7.2h.5c3.9-.2 7-3.3 7-7.2 0-1.1-.9-2-2-2s-2 .9-2 2h-1.6c0-1 .4-1.8 1-2.6 1.4-1.4 3.7-1.4 5.1 0 .6.6 1 1.6 1 2.6 0 3.8-2.4 7-5.8 8.3zm-1.4 10.1c0-.9-.7-1.6-1.6-1.6s-1.6.7-1.6 1.6c0 .5.5 1 1.6 1.5 1.1-.6 1.6-1 1.6-1.5z" fill="#007cbe"/></svg>