<svg version="1.1" id="Layer_1" xmlns="http://www.w3.org/2000/svg" x="0" y="0" viewBox="0 0 48 48" xml:space="preserve"><path id="a_1_" d="M28.2 12.3v26.6h12.3V12.3H28.2zM42 10.9v29.3H27.8V10.9H42zm-3.8 5.7V18h-6.7v-1.4h6.7zm0 10.5v1.4h-6.7v-1.4h6.7zm0 5.3v1.4h-6.7v-1.4h6.7zM21 39.8h6.8V8.1H7.4v31.7h6.8v-7.7H21v7.7zm17.2-17.9v1.4h-6.7v-1.4h6.7zm-9-15.1v34.5H6V6.8h23.2zM15.6 33.5v6.4h4.1v-6.4h-4.1zm-6-1.3H11V37H9.6v-4.8zm14.1 0h1.4V37h-1.4v-4.8zM9.6 21.9H11v4.8H9.6v-4.8zm4.7 0h1.4v4.8h-1.4v-4.8zm0-10.3h1.4v4.8h-1.4v-4.8zM19 21.9h1.4v4.8H19v-4.8zm0-10.3h1.4v4.8H19v-4.8zm-9.4 0H11v4.8H9.6v-4.8zm14.1 0h1.4v4.8h-1.4v-4.8zm0 10.3h1.4v4.8h-1.4v-4.8z" fill="#007cbe" stroke="#007cbe" stroke-width=".25" stroke-miterlimit="10"/></svg>