<svg version="1.1" id="Layer_1" xmlns="http://www.w3.org/2000/svg" x="0" y="0" viewBox="0 0 48 48" xml:space="preserve"><path id="a_1_" d="M35.4 37c-2.3 2-5.1 3.4-8.1 4-.2 1.4-1.4 2.4-2.8 2.4s-2.5-.9-2.8-2.2c-3.3-.4-6.3-1.8-8.8-3.8-1.1.5-2.5.2-3.3-.8-.8-1-.9-2.3-.3-3.3-1.2-1.8-2-3.8-2.4-6-1.4-.2-2.4-1.4-2.4-2.8s.9-2.5 2.2-2.8C7 19.3 7.8 17 9 15c-.8-1-.8-2.5.1-3.6s2.4-1.3 3.5-.7c2.5-2.1 5.6-3.6 9-4 .3-1.3 1.4-2.2 2.8-2.2s2.6 1 2.8 2.4c3.2.6 6.1 2.1 8.4 4.2 1.2-.7 2.7-.4 3.6.6.9 1.1.9 2.7-.1 3.8 1 1.9 1.7 3.9 2 6.1 1.3.3 2.2 1.4 2.2 2.8s-1 2.6-2.4 2.8c-.4 2-1.1 3.8-2.1 5.5.8 1 .7 2.5-.1 3.5-.7 1.1-2.1 1.4-3.3.8zm-1.1-1c-.6-1-.6-2.3.2-3.3s2.1-1.3 3.2-.8c.8-1.5 1.4-3.1 1.8-4.8-1-.4-1.7-1.4-1.7-2.6 0-1.2.8-2.3 1.8-2.7-.3-2-.9-3.8-1.8-5.5-1 .3-2.1-.1-2.8-.9-.8-.9-.9-2.1-.4-3.1-2.1-1.9-4.7-3.2-7.5-3.8-.4 1-1.4 1.8-2.6 1.8-1.2 0-2.3-.8-2.7-1.9-3 .4-5.8 1.7-8.1 3.6.5 1 .5 2.3-.3 3.2-.8.9-2 1.2-3.1.9-1.1 1.8-1.8 3.8-2.1 5.9 1.1.4 1.8 1.4 1.8 2.7 0 1.2-.7 2.2-1.7 2.6.4 1.9 1.1 3.6 2 5.2 1.1-.6 2.5-.3 3.4.7.8 1 .9 2.3.2 3.4 2.2 1.7 4.8 2.9 7.7 3.3.4-1.1 1.4-1.9 2.7-1.9 1.2 0 2.2.7 2.6 1.8 2.9-.8 5.4-2.1 7.4-3.8zM24.5 8.7c.7 0 1.3-.6 1.3-1.3s-.6-1.3-1.3-1.3c-.7 0-1.3.6-1.3 1.3s.6 1.3 1.3 1.3zm0 33.2c.7 0 1.3-.6 1.3-1.3s-.6-1.3-1.3-1.3c-.7 0-1.3.6-1.3 1.3s.6 1.3 1.3 1.3zM7.4 25.8c.7 0 1.3-.6 1.3-1.3 0-.7-.6-1.3-1.3-1.3s-1.3.6-1.3 1.3c0 .8.6 1.3 1.3 1.3zm33.2 0c.7 0 1.3-.6 1.3-1.3 0-.7-.6-1.3-1.3-1.3-.7 0-1.3.6-1.3 1.3.1.8.6 1.3 1.3 1.3zm-28 10c.5-.5.6-1.3.1-1.8-.5-.6-1.3-.6-1.8-.2s-.6 1.3-.1 1.8c.5.6 1.3.7 1.8.2zM38 14.6c.5-.5.6-1.3.1-1.8-.5-.6-1.3-.6-1.8-.2s-.6 1.3-.1 1.8c.4.6 1.3.7 1.8.2zm-27.5-.3c.5.5 1.4.4 1.8-.2s.4-1.4-.1-1.8c-.5-.5-1.4-.4-1.8.2-.5.5-.4 1.4.1 1.8zm25.3 21.2c.5.5 1.4.4 1.8-.2.5-.6.4-1.4-.1-1.8-.5-.5-1.4-.4-1.8.2-.5.5-.4 1.4.1 1.8z" fill="#000"/></svg>