<svg version="1.1" id="Layer_1" xmlns="http://www.w3.org/2000/svg" x="0" y="0" viewBox="0 0 48 48" xml:space="preserve"><path id="a_1_" d="M32.3 17.9l6.2-1.8-13-4.8-16.4 5 11.7 4.8 8.9-2.5-5.6-1.9c-.4-.1-.6-.6-.5-.9.1-.4.6-.6.9-.5l7.5 2.5c.2 0 .3 0 .3.1zm4.4.3v11.5l-1.1-.5c-.8-.4-1.6-.7-2.5-.9v4.6c1.5.4 2.4 1.9 2 3.3-.4 1.5-1.9 2.4-3.3 2s-2.4-1.9-2-3.3c.2-.9.9-1.7 1.8-2v-5c-1.8-.3-3.9-.5-6.3-.5-4.5 0-8.6.9-12.4 2.8l-1.1.5V19l-7.1-2.9 20.9-6.4 17.7 6.6-6.6 1.9zm-1.5.4l-2.1.6v7.5l2.1.6v-8.7zm-21.9 1.1v8.7C17 26.8 21 26 25.2 26c2.4 0 4.5.2 6.3.5v-6.8l-10.8 3.1-7.4-3.1zm19.1 17.1c.7 0 1.2-.6 1.2-1.2s-.6-1.2-1.2-1.2c-.7 0-1.2.6-1.2 1.2s.5 1.2 1.2 1.2z" fill="#007cbe"/></svg>