<svg version="1.1" id="education" xmlns="http://www.w3.org/2000/svg" x="0" y="0" viewBox="0 0 48 48" xml:space="preserve"><path d="M38.6 8.6c-1.6 0-9.3.6-14.1 3.1-.3.1-.7.1-.9 0C18.7 9.2 11 8.6 9.4 8.6c-2.2 0-3.9 1.7-3.9 3.8v19.1c0 2 1.6 3.7 3.7 3.8 2.2.1 7.8.5 11.7 2 .3.1.7.2 1 .2H26c.4 0 .7-.1 1-.2 3.8-1.4 9.5-1.8 11.7-2 2.1-.1 3.7-1.8 3.7-3.8V12.4c.1-2.1-1.7-3.8-3.8-3.8zM23 34.4c0 .6-.5 1-1 1-.1 0-.2 0-.3-.1-4-1.5-9.6-1.9-12.3-2.1-1 0-1.8-.8-1.8-1.7V12.4c0-1 .8-1.7 1.9-1.7 1.2 0 7.9.5 12.3 2.5.7.3 1.2 1 1.2 1.8v19.4zm17.4-2.9c0 .9-.8 1.7-1.8 1.7-2.8.1-8.3.6-12.3 2.1-.1 0-.2.1-.3.1-.5 0-1-.4-1-1V15c0-.8.5-1.5 1.2-1.8 4.5-2 11.1-2.5 12.3-2.5 1 0 1.9.8 1.9 1.7v19.1z" fill="#006be9"/></svg>