<svg version="1.1" id="Layer_1" xmlns="http://www.w3.org/2000/svg" x="0" y="0" viewBox="0 0 32 32" xml:space="preserve"><path id="a_1_" d="M12.6 24.8c-.3 1.2-1.4 2-2.6 2s-2.3-.8-2.6-2H4v-1.5h3.4c.3-1.2 1.4-2 2.6-2s2.3.8 2.6 2H28v1.5H12.6zm12-8c-.3 1.2-1.4 2-2.6 2s-2.3-.8-2.6-2H4v-1.5h15.4c.3-1.2 1.4-2 2.6-2s2.3.8 2.6 2H28v1.5h-3.4zm-8-8c-.3 1.2-1.4 2-2.6 2s-2.3-.8-2.6-2H4V7.2h7.4c.3-1.2 1.4-2 2.6-2s2.3.8 2.6 2H28v1.5H16.6zm-2.6.4c.7 0 1.2-.6 1.2-1.2s-.5-1.2-1.2-1.2-1.2.5-1.2 1.2.5 1.2 1.2 1.2zm8 8c.7 0 1.2-.6 1.2-1.2 0-.7-.6-1.2-1.2-1.2s-1.2.6-1.2 1.2c0 .7.5 1.2 1.2 1.2zm-12 8c.7 0 1.2-.6 1.2-1.2s-.6-1.2-1.2-1.2-1.2.5-1.2 1.2.5 1.2 1.2 1.2z" fill="#006be9"/></svg>