<svg version="1.1" id="Layer_1" xmlns="http://www.w3.org/2000/svg" x="0" y="0" viewBox="0 0 48 48" xml:space="preserve"><path id="a_1_" d="M26.7 10.6l.5.2c.4.1.6.5.5.9l-.6 2 .3.2c4.7 2.7 7.8 7.9 7.8 13.4 0 2.1-.4 4.1-1.2 5.9 1.2.9 2.1 2.2 2.5 3.6h.4c1.5 0 2.7 1.2 2.7 2.8 0 1.5-1.2 2.8-2.8 2.8H11c-1.5 0-2.8-1.2-2.8-2.8 0-1.5 1.2-2.7 2.7-2.7 0 0 3.8 0 11.5.1l.6-1.2c.3-.6.7-1.1 1.1-1.6l-12.3-2.8c-.4-.1-.7-.5-.6-.9.1-.4.5-.7.9-.6l13 3c.1 0 .2.1.3.2 1-.7 2.1-1.1 3.2-1.2.7-1.4 1.1-3 1.1-4.6 0-3.2-1.6-6.3-4.2-8.2-.2.3-.5.5-.9.4l-6-2c-.4-.1-.6-.5-.5-.9l2-7c.1-.4.6-.6 1-.5l.3.1 1.9-2.8c.2-.3.5-.4.9-.3l3 1c.4.1.6.6.5.9l-1 2.6zm-.6 6.7c3.2 2.2 5.2 5.9 5.2 9.7 0 1.6-.3 3.2-1 4.6.8.1 1.6.3 2.4.7.7-1.6 1-3.4 1-5.1 0-4.9-2.8-9.6-7-12.1l-.6 2.2zM9.8 39.5c0 .7.6 1.2 1.2 1.2h26c.7 0 1.2-.6 1.2-1.2 0-.7-.6-1.3-1.2-1.3h-1c-.3 0-.7-.2-.7-.6-.4-1.7-1.5-3.1-3-3.9-2.9-1.5-6.4-.3-7.8 2.6l-.8 1.6c-.1.3-.4.4-.7.4H11c-.7 0-1.2.5-1.2 1.2zm11.7-29L19.9 16l4.6 1.5 1.6-5.6-4.6-1.4zM23.2 9l2.3.6.6-1.6-1.7-.6L23.2 9zm6.3 30c-1.1 0-2-.9-2-2s.9-2 2-2 2 .9 2 2-.9 2-2 2zm0-1.5c.3 0 .5-.2.5-.5s-.2-.5-.5-.5-.5.2-.5.5.2.5.5.5zM19.2 15.8l6 2c.5.2.7.8.4 1.2l-3 4c-.2.3-.5.4-.8.3l-3-1c-.3-.1-.5-.4-.5-.7v-5c-.1-.6.5-1 .9-.8zm.5 1.7V21l2 .7 2.1-2.7-4.1-1.5z" fill="#007cbe"/></svg>