<svg version="1.1" id="Layer_1" xmlns="http://www.w3.org/2000/svg" x="0" y="0" viewBox="0 0 48 48" xml:space="preserve"><path id="a_1_" d="M30.1 12.2c0-1.8-1.2-2.9-2.9-2.9-1.5 0-2.6 1.2-2.6 2.9h-1.5c0-1.6-1.2-2.9-2.7-2.9-1.7 0-2.8 1-2.8 2.9 0 3.4 3.4 6.9 6.2 8.3 2.9-1.3 6.3-4.9 6.3-8.3zm-22.9 21l-.4-.4.5-.5 5-4.8c1.9-1.7 3.7-2.6 5.4-2.8 1.7-.2 3.8.2 6.3 1.2h5.9c.6.1 1.1.3 1.5.7l5-4.6c1.4-1 2.8-.9 3.9.3 1 1.2 1.2 2.5.3 3.8l-.1.1-10.3 9.9H18.1l-5.1 4-5.8-6.9zm1.6-.3l4.3 5.2 4.4-3.4h12.1l9.8-9.5c.4-.7.4-1.3-.2-2-.6-.6-1.1-.7-1.8-.1l-5.2 4.8c0 .2.1.5.1.7 0 1.5-.7 2.5-2.1 2.6h-9v-1.5h9c.5 0 .7-.3.7-1.1s-.3-1.2-1-1.3h-6l-.1-.1c-2.4-1-4.3-1.4-5.7-1.2-1.4.2-2.9 1-4.6 2.5-.1 0-4.7 4.4-4.7 4.4zm18.4-25c2.5 0 4.4 1.7 4.4 4.4 0 4.3-4 8.4-7.5 9.8l-.3.1-.2-.2c-3.4-1.4-7.5-5.5-7.5-9.8 0-2.7 1.8-4.4 4.3-4.4 1.4 0 2.7.7 3.4 1.8.8-1.1 2-1.8 3.4-1.7z" fill="#fff"/></svg>