<svg version="1.1" id="Layer_1" xmlns="http://www.w3.org/2000/svg" x="0" y="0" viewBox="0 0 48 48" xml:space="preserve"><path id="a_1_" d="M35.5 36v2.4c0 1.6-1.3 3-3 3s-3-1.3-3-3v-2.3H18.4v2.3c0 1.6-1.3 3-3 3s-3-1.3-3-3V36c-2.9-.6-5-3.1-5-6.1v-.3l.8-17.1c.2-3.3 2.9-5.9 6.2-5.9h18.9c3.3 0 6.1 2.6 6.2 5.9l.8 17.1c.3 3.1-1.8 5.8-4.8 6.4zm-3.9.2v2.3c0 .5.4 1 1 1 .5 0 1-.4 1-1v-2.3h-2zm-17.1 0v2.3c0 .5.4 1 1 1 .5 0 1-.4 1-1v-2.3h-2zm.1-27.6c-2.3 0-4.2 1.8-4.3 4.1l-.8 17v.2c0 2.4 1.9 4.3 4.3 4.3h20.7c2.4-.1 4.2-2.1 4.1-4.5l-.8-17.1c-.1-2.3-2-4.1-4.3-4.1H14.6zm1.4 3.2h16c1.1 0 2.1.8 2.3 1.9l.9 5.3c.2 1.3-.6 2.4-1.9 2.7H15.1c-1.3 0-2.3-1-2.3-2.3V19l.9-5.3c.2-1.1 1.2-1.9 2.3-1.9zm0 2c-.2 0-.3.1-.3.3l-.9 5.3v.1c0 .2.1.3.3.3h18c.2 0 .3-.2.3-.4l-.9-5.3c0-.2-.2-.3-.3-.3H16zm15.2 17.1c-1.6 0-3-1.3-3-3s1.3-3 3-3 3 1.3 3 3-1.3 3-3 3zm0-2c.5 0 1-.4 1-1 0-.5-.4-1-1-1s-1 .4-1 1 .5 1 1 1zm-14.4 2c-1.6 0-3-1.3-3-3s1.3-3 3-3 3 1.3 3 3-1.4 3-3 3zm0-2c.5 0 1-.4 1-1 0-.5-.4-1-1-1-.5 0-1 .4-1 1s.4 1 1 1z" fill="#006be9"/></svg>