<?xml version="1.0" encoding="utf-8"?>
<!-- Generator: Adobe Illustrator 22.1.0, SVG Export Plug-In . SVG Version: 6.00 Build 0)  -->
<svg version="1.1" xmlns="http://www.w3.org/2000/svg" xmlns:xlink="http://www.w3.org/1999/xlink" x="0px" y="0px"
	 viewBox="0 0 96 96" style="enable-background:new 0 0 96 96;" xml:space="preserve">
<style type="text/css">
	.st0{display:none;}
	.st1{display:inline;}
	.st2{clip-path:url(#SVGID_2_);}
	.st3{clip-path:url(#SVGID_4_);enable-background:new    ;}
	.st4{clip-path:url(#SVGID_6_);}
	.st5{clip-path:url(#SVGID_8_);fill:#052049;}
	.st6{clip-path:url(#SVGID_10_);}
	.st7{clip-path:url(#SVGID_12_);fill:#007CBE;}
	.st8{filter:url(#Adobe_OpacityMaskFilter);}
	.st9{fill:#FFFFFF;}
	.st10{display:none;mask:url(#b_2_);fill:#052049;}
	.st11{fill:#007CBE;}
</style>
<g id="Layer_1" class="st0">
	<g class="st1">
		<defs>
			<path id="SVGID_1_" d="M39.8,69.5c16.9,0,30.7-13.7,30.7-30.7S56.8,8.2,39.8,8.2S9.2,21.9,9.2,38.9S22.9,69.5,39.8,69.5z
				 M63.9,68.1c-6.6,5.4-15,8.7-24.1,8.7c-20.9,0-37.9-17-37.9-37.9S18.9,1,39.8,1s37.9,17,37.9,37.9c0,9.2-3.3,17.6-8.7,24.1
				l25.9,25.9L89.8,94L63.9,68.1z"/>
		</defs>
		<clipPath id="SVGID_2_">
			<use xlink:href="#SVGID_1_"  style="overflow:visible;"/>
		</clipPath>
		<g class="st2">
			<defs>
				<rect id="SVGID_3_" x="-9.3" y="-10.2" width="115.4" height="115.4"/>
			</defs>
			<clipPath id="SVGID_4_">
				<use xlink:href="#SVGID_3_"  style="overflow:visible;"/>
			</clipPath>
			<g class="st3">
				<g>
					<defs>
						<rect id="SVGID_5_" x="-16.5" y="-17.4" width="129.9" height="129.9"/>
					</defs>
					<clipPath id="SVGID_6_">
						<use xlink:href="#SVGID_5_"  style="overflow:visible;"/>
					</clipPath>
					<g class="st4">
						<defs>
							<rect id="SVGID_7_" x="1.5" y="0.6" width="93.8" height="93.8"/>
						</defs>
						<clipPath id="SVGID_8_">
							<use xlink:href="#SVGID_7_"  style="overflow:visible;"/>
						</clipPath>
						<rect x="-16.1" y="-17" class="st5" width="129.1" height="129.1"/>
					</g>
					<g class="st4">
						<defs>
							<rect id="SVGID_9_" x="-9.3" y="-10.2" width="115.4" height="115.4"/>
						</defs>
						<clipPath id="SVGID_10_">
							<use xlink:href="#SVGID_9_"  style="overflow:visible;"/>
						</clipPath>
						<g class="st6">
							<defs>
								<rect id="SVGID_11_" x="1.5" y="0.6" width="93.8" height="93.8"/>
							</defs>
							<clipPath id="SVGID_12_">
								<use xlink:href="#SVGID_11_"  style="overflow:visible;"/>
							</clipPath>
							<rect x="-27.3" y="-28.3" class="st7" width="151.5" height="151.5"/>
						</g>
					</g>
				</g>
			</g>
		</g>
	</g>
</g>
<g id="Layer_2">
	<defs>
		<filter id="Adobe_OpacityMaskFilter" filterUnits="userSpaceOnUse" x="-15.5" y="-15" width="126" height="126">
			<feColorMatrix  type="matrix" values="1 0 0 0 0  0 1 0 0 0  0 0 1 0 0  0 0 0 1 0"/>
		</filter>
	</defs>
	<mask maskUnits="userSpaceOnUse" x="-15.5" y="-15" width="126" height="126" id="b_2_">
		<g class="st8">
			<path id="a_3_" class="st9" d="M34.3,82.5c-1.3,4.5-5.5,7.9-10.4,7.9s-9.1-3.3-10.4-7.9H0.2v-5.9h13.2c1.3-4.5,5.5-7.9,10.4-7.9
				S33,72,34.3,76.5h60.5v5.9H34.3z M81.5,51c-1.3,4.5-5.5,7.9-10.4,7.9S62,55.5,60.7,51H0.2V45h60.5c1.3-4.5,5.5-7.9,10.4-7.9
				s9.1,3.3,10.4,7.9h13.2V51H81.5z M50,19.5c-1.3,4.5-5.5,7.9-10.4,7.9s-9.1-3.3-10.4-7.9h-29v-5.9h29c1.3-4.5,5.5-7.9,10.4-7.9
				S48.8,9,50,13.5h44.7v5.9H50z M39.6,21.4c2.7,0,4.9-2.2,4.9-4.9s-2.2-4.9-4.9-4.9s-4.9,2.2-4.9,4.9S36.9,21.4,39.6,21.4z
				 M71.1,52.9c2.7,0,4.9-2.2,4.9-4.9c0-2.7-2.2-4.9-4.9-4.9s-4.9,2.2-4.9,4.9C66.2,50.7,68.4,52.9,71.1,52.9z M23.9,84.4
				c2.7,0,4.9-2.2,4.9-4.9s-2.2-4.9-4.9-4.9S19,76.8,19,79.5S21.2,84.4,23.9,84.4z"/>
		</g>
	</mask>
	<rect x="-15.5" y="-15" class="st10" width="126" height="126"/>
	<path id="a_1_" class="st11" d="M34.3,84.5c-1.3,4.5-5.5,7.9-10.4,7.9s-9.1-3.3-10.4-7.9H0.2v-5.9h13.2c1.3-4.5,5.5-7.9,10.4-7.9
		S33,74,34.3,78.5h60.5v5.9H34.3z M81.5,53c-1.3,4.5-5.5,7.9-10.4,7.9S62,57.5,60.7,53H0.2V47h60.5c1.3-4.5,5.5-7.9,10.4-7.9
		s9.1,3.3,10.4,7.9h13.2V53H81.5z M50,21.5c-1.3,4.5-5.5,7.9-10.4,7.9s-9.1-3.3-10.4-7.9h-29v-5.9h29c1.3-4.5,5.5-7.9,10.4-7.9
		S48.8,11,50,15.5h44.7v5.9H50z M39.6,23.4c2.7,0,4.9-2.2,4.9-4.9s-2.2-4.9-4.9-4.9s-4.9,2.2-4.9,4.9S36.9,23.4,39.6,23.4z
		 M71.1,54.9c2.7,0,4.9-2.2,4.9-4.9c0-2.7-2.2-4.9-4.9-4.9s-4.9,2.2-4.9,4.9C66.2,52.7,68.4,54.9,71.1,54.9z M23.9,86.4
		c2.7,0,4.9-2.2,4.9-4.9s-2.2-4.9-4.9-4.9S19,78.8,19,81.5S21.2,86.4,23.9,86.4z"/>
</g>
</svg>
