<?xml version="1.0" encoding="utf-8"?>
<!-- Generator: Adobe Illustrator 22.1.0, SVG Export Plug-In . SVG Version: 6.00 Build 0)  -->
<svg version="1.1" id="Layer_1" xmlns="http://www.w3.org/2000/svg" xmlns:xlink="http://www.w3.org/1999/xlink" x="0px" y="0px"
	 viewBox="0 0 48 48" style="enable-background:new 0 0 48 48;" xml:space="preserve">
<style type="text/css">
	.st0{fill:#007CBE;stroke:#007CBE;stroke-width:0.25;stroke-miterlimit:10;}
</style>
<path id="a_1_" class="st0" d="M28.2,12.3v26.6h12.3V12.3H28.2z M42,10.9v29.3H27.8V10.9H42z M38.2,16.6V18h-6.7v-1.4H38.2z
	 M38.2,27.1v1.4h-6.7v-1.4H38.2z M38.2,32.4v1.4h-6.7v-1.4H38.2z M21,39.8h6.8V8.1H7.4v31.7h6.8v-7.7H21V39.8z M38.2,21.9v1.4h-6.7
	v-1.4H38.2z M29.2,6.8v34.5H6V6.8H29.2z M15.6,33.5v6.4h4.1v-6.4H15.6z M9.6,32.2H11V37H9.6V32.2z M23.7,32.2h1.4V37h-1.4V32.2z
	 M9.6,21.9H11v4.8H9.6V21.9z M14.3,21.9h1.4v4.8h-1.4V21.9z M14.3,11.6h1.4v4.8h-1.4V11.6z M19,21.9h1.4v4.8H19V21.9z M19,11.6h1.4
	v4.8H19V11.6z M9.6,11.6H11v4.8H9.6V11.6z M23.7,11.6h1.4v4.8h-1.4V11.6z M23.7,21.9h1.4v4.8h-1.4V21.9z"/>
</svg>
