<?xml version="1.0" encoding="utf-8"?>
<!-- Generator: Adobe Illustrator 22.1.0, SVG Export Plug-In . SVG Version: 6.00 Build 0)  -->
<svg version="1.1" id="Layer_1" xmlns="http://www.w3.org/2000/svg" xmlns:xlink="http://www.w3.org/1999/xlink" x="0px" y="0px"
	 viewBox="0 0 48 48" style="enable-background:new 0 0 48 48;" xml:space="preserve">
<style type="text/css">
	.st0{fill:#007CBE;}
</style>
<path id="a_1_" class="st0" d="M32.3,17.9l6.2-1.8l-13-4.8l-16.4,5l11.7,4.8l8.9-2.5l-5.6-1.9c-0.4-0.1-0.6-0.6-0.5-0.9
	c0.1-0.4,0.6-0.6,0.9-0.5l7.5,2.5C32.2,17.8,32.3,17.8,32.3,17.9L32.3,17.9z M36.7,18.2v11.5l-1.1-0.5c-0.8-0.4-1.6-0.7-2.5-0.9v4.6
	c1.5,0.4,2.4,1.9,2,3.3c-0.4,1.5-1.9,2.4-3.3,2s-2.4-1.9-2-3.3c0.2-0.9,0.9-1.7,1.8-2v-5c-1.8-0.3-3.9-0.5-6.3-0.5
	c-4.5,0-8.6,0.9-12.4,2.8l-1.1,0.5V19l-7.1-2.9l20.9-6.4l17.7,6.6C43.3,16.3,36.7,18.2,36.7,18.2z M35.2,18.6l-2.1,0.6v7.5
	c0.7,0.2,1.4,0.4,2.1,0.6V18.6z M13.3,19.7v8.7c3.7-1.6,7.7-2.4,11.9-2.4c2.4,0,4.5,0.2,6.3,0.5v-6.8l-10.8,3.1L13.3,19.7L13.3,19.7
	z M32.4,36.8c0.7,0,1.2-0.6,1.2-1.2s-0.6-1.2-1.2-1.2c-0.7,0-1.2,0.6-1.2,1.2S31.7,36.8,32.4,36.8z"/>
</svg>
