<?xml version="1.0" encoding="utf-8"?>
<!-- Generator: Adobe Illustrator 22.1.0, SVG Export Plug-In . SVG Version: 6.00 Build 0)  -->
<svg version="1.1" xmlns="http://www.w3.org/2000/svg" xmlns:xlink="http://www.w3.org/1999/xlink" x="0px" y="0px"
	 viewBox="0 0 801 655" style="enable-background:new 0 0 801 655;" xml:space="preserve">
<style type="text/css">
	@font-face {
		font-family: "GranjonLTW01-Roman";
		src: url("https://ucsf-web-services.github.io/ucsf_8_pa/fonts/GranjonLTW01-Roman.eot?#iefix") format("eot"), url("https://ucsf-web-services.github.io/ucsf_8_pa/fonts/GranjonLTW01-Roman.woff2") format("woff2"), url("https://ucsf-web-services.github.io/ucsf_8_pa/fonts/GranjonLTW01-Roman.woff") format("woff"), url("https://ucsf-web-services.github.io/ucsf_8_pa/fonts/GranjonLTW01-Roman.ttf") format("truetype");
	}

	@font-face {
		font-family: "HelveticaNeueLTW04-45Light";
		src: url("https://ucsf-web-services.github.io/ucsf_8_pa/fonts/HelveticaNeueLTW04-45Light.eot?#iefix") format("eot"), url("https://ucsf-web-services.github.io/ucsf_8_pa/fonts/HelveticaNeueLTW04-45Light.woff2") format("woff2"), url("https://ucsf-web-services.github.io/ucsf_8_pa/fonts/HelveticaNeueLTW04-45Light.woff") format("woff"), url("https://ucsf-web-services.github.io/ucsf_8_pa/fonts/HelveticaNeueLTW04-45Light.ttf") format("truetype");
	}
	@font-face {
		font-family: "HelveticaNeueLTW06-75Bold";
		src: url("https://ucsf-web-services.github.io/ucsf_8_pa/fonts/HelveticaNeueLTW06-75Bold.eot?#iefix") format("eot"), url("https://ucsf-web-services.github.io/ucsf_8_pa/fonts/HelveticaNeueLTW06-75Bold.woff2") format("woff2"), url("https://ucsf-web-services.github.io/ucsf_8_pa/fonts/HelveticaNeueLTW06-75Bold.woff") format("woff"), url("https://ucsf-web-services.github.io/ucsf_8_pa/fonts/HelveticaNeueLTW06-75Bold.ttf") format("truetype");
	}

	.st0{fill:#FFFFFF;}
	.st1{fill:#052049;}
	.st2{font-family:'HelveticaNeueLTW04-45Light';}
	.st3{font-size:18px;}
	.st4{font-family:'GranjonLTW01-Roman';}
	.st5{font-size:28px;}
	.st6{font-family:'HelveticaNeueLTW06-75Bold';}
	.st7{font-size:12px;}
	.st8{letter-spacing:1;}
	.st9{fill:#716FB2;}
	.st10{fill:#007CBE;}
	.st11{fill:#058488;}
</style>
<g id="cards">
	<g id="Card_4_" transform="translate(1452.000000, 2.000000)">
		<polygon id="_x34_:3_2_" class="st0" points="-1103,0 -651,0 -651,302 -1103,302 		"/>
		<text transform="matrix(1 0 0 1 -1039 137)" class="st1 st2 st3">Discovered that B cells orchestrate the </text>
		<text transform="matrix(1 0 0 1 -1039 169)" class="st1 st2 st3">inflammation of myelin that causes </text>
		<text transform="matrix(1 0 0 1 -1039 201)" class="st1 st2 st3">multiple sclerosis, leading to a new </text>
		<text transform="matrix(1 0 0 1 -1039 233)" class="st1 st2 st3">approach to treatment.</text>
		<text transform="matrix(1 0 0 1 -1039 99)" class="st1 st4 st5">B Cell Target Therapy</text>
		<text transform="matrix(1 0 0 1 -949 60)" class="st1 st6 st7 st8">BREAKTHROUGH</text>
		<rect id="line_2_" x="-997" y="56" width="40" height="1"/>
		<text transform="matrix(1 0 0 1 -1039 60)" class="st1 st6 st7 st8">2015</text>
	</g>
	<g id="Card" transform="translate(1352.000000, 352.000000)">
		<polygon id="_x34_:3-copy-4" class="st0" points="-1103,0 -651,0 -651,302 -1103,302 		"/>
		<text transform="matrix(1 0 0 1 -1039 137)" class="st1 st2 st3">Reported for the first time that elevated </text>
		<text transform="matrix(1 0 0 1 -1039 169)" class="st1 st2 st3">blood sugar caused abnormal structures </text>
		<text transform="matrix(1 0 0 1 -1039 201)" class="st1 st2 st3">in cells helping to pioneer the intensive </text>
		<text transform="matrix(1 0 0 1 -1039 233)" class="st1 st2 st3">glucose control strategies.</text>
		<text transform="matrix(1 0 0 1 -1039 99)" class="st1 st4 st5">Managing Diabetes</text>
		<text transform="matrix(1 0 0 1 -946 60)" class="st1 st6 st7 st8">BREAKTHROUGH</text>
		<rect id="line-copy-2_1_" x="-994" y="56" width="40" height="1"/>
		<text transform="matrix(1 0 0 1 -1039 60)" class="st1 st6 st7 st8">2012</text>
	</g>
</g>
<g id="color_sqs">
	<rect id="Rectangle-5-Copy-5" y="454" class="st9" width="48" height="48"/>
	<rect id="Rectangle-5-Copy-8" x="201" y="304" class="st10" width="48" height="48"/>
	<rect id="Rectangle-5-Copy-3" y="104" class="st11" width="48" height="48"/>
</g>
<g id="photos">

		<image style="overflow:visible;" width="302" height="302" xlink:href="achievement-large-2.jpg"  transform="matrix(1 0 0 1 48 2)">
	</image>

		<image style="overflow:visible;" width="152" height="152" xlink:href="achievement-medium-2.jpg"  transform="matrix(1 0 0 1 48 503)">
	</image>

		<image style="overflow:visible;" width="101" height="101" xlink:href="achievement-small-2.jpg"  transform="matrix(1 0 0 1 100 352)">
	</image>
</g>
</svg>
