<?xml version="1.0" encoding="utf-8"?>
<!-- Generator: Adobe Illustrator 22.1.0, SVG Export Plug-In . SVG Version: 6.00 Build 0)  -->
<svg version="1.1" xmlns="http://www.w3.org/2000/svg" xmlns:xlink="http://www.w3.org/1999/xlink" x="0px" y="0px"
	 viewBox="0 0 1167 655" style="enable-background:new 0 0 1167 655;" xml:space="preserve">
<style type="text/css">
	@font-face {
	  font-family: "GranjonLTW01-Roman";
	  src: url("https://ucsf-web-services.github.io/ucsf_8_pa/fonts/GranjonLTW01-Roman.eot?#iefix") format("eot"), url("https://ucsf-web-services.github.io/ucsf_8_pa/fonts/GranjonLTW01-Roman.woff2") format("woff2"), url("https://ucsf-web-services.github.io/ucsf_8_pa/fonts/GranjonLTW01-Roman.woff") format("woff"), url("https://ucsf-web-services.github.io/ucsf_8_pa/fonts/GranjonLTW01-Roman.ttf") format("truetype");
	}

	@font-face {
	  font-family: "HelveticaNeueLTW04-45Light";
	  src: url("https://ucsf-web-services.github.io/ucsf_8_pa/fonts/HelveticaNeueLTW04-45Light.eot?#iefix") format("eot"), url("https://ucsf-web-services.github.io/ucsf_8_pa/fonts/HelveticaNeueLTW04-45Light.woff2") format("woff2"), url("https://ucsf-web-services.github.io/ucsf_8_pa/fonts/HelveticaNeueLTW04-45Light.woff") format("woff"), url("https://ucsf-web-services.github.io/ucsf_8_pa/fonts/HelveticaNeueLTW04-45Light.ttf") format("truetype");
	}
	@font-face {
	  font-family: "HelveticaNeueLTW06-75Bold";
	  src: url("https://ucsf-web-services.github.io/ucsf_8_pa/fonts/HelveticaNeueLTW06-75Bold.eot?#iefix") format("eot"), url("https://ucsf-web-services.github.io/ucsf_8_pa/fonts/HelveticaNeueLTW06-75Bold.woff2") format("woff2"), url("https://ucsf-web-services.github.io/ucsf_8_pa/fonts/HelveticaNeueLTW06-75Bold.woff") format("woff"), url("https://ucsf-web-services.github.io/ucsf_8_pa/fonts/HelveticaNeueLTW06-75Bold.ttf") format("truetype");
	}

	.st0{fill:#FFFFFF;}
	.st1{fill:#052049;}
	.st2{font-family:'HelveticaNeue-Light';}
	.st3{font-size:18px;}
	.st4{font-family:'GranjonLTW01-Roman';}
	.st5{font-size:28px;}
	.st6{font-size:72px;}
	.st7{letter-spacing:-1;}
	.st8{font-family:'HelveticaNeue-Bold';}
	.st9{font-size:12px;}
	.st10{letter-spacing:1;}
	.st11{fill:#007CBE;}
</style>
<g id="cards">
	<g id="Card_5_" transform="translate(801.000000, 352.000000)">
		<polygon id="_x31_:1" class="st0" points="64,0 366,0 366,302 64,302 		"/>
		<text transform="matrix(1 0 0 1 104 145)" class="st1 st2 st3">National Medal of Science </text>
		<text transform="matrix(1 0 0 1 104 177)" class="st1 st2 st3">awards bestowed by the </text>
		<text transform="matrix(1 0 0 1 104 209)" class="st1 st2 st3">President of the United </text>
		<text transform="matrix(1 0 0 1 104 241)" class="st1 st2 st3">States</text>
		<text transform="matrix(1 0 0 1 151 67)" class="st1 st4 st5">National Medals </text>
		<text transform="matrix(1 0 0 1 151 99)" class="st1 st4 st5">of Science</text>
		<text transform="matrix(1 0 0 1 104 97)" class="st1 st4 st6 st7">4</text>
	</g>
	<g id="card" transform="translate(451.000000, 2.000000)">
		<polygon id="_x34_:3-copy-2" class="st0" points="64,0 516,0 516,302 64,302 		"/>
		<text transform="matrix(1 0 0 1 128 137)" class="st1 st2 st3">Shinya Yamanaka, MD, PhD won the </text>
		<text transform="matrix(1 0 0 1 128 169)" class="st1 st2 st3">Nobel Prize &quot;for the discovery that </text>
		<text transform="matrix(1 0 0 1 128 201)" class="st1 st2 st3">mature cells can be reprogrammed to </text>
		<text transform="matrix(1 0 0 1 128 233)" class="st1 st2 st3">become pluripotent.&quot;</text>
		<text transform="matrix(1 0 0 1 128 99)" class="st1 st4 st5">Reprogramming Cells</text>
		<text transform="matrix(1 0 0 1 218 60)" class="st1 st8 st9 st10">BREAKTHROUGH</text>
		<rect id="line-copy-2" x="170" y="56" width="40" height="1"/>
		<text transform="matrix(1 0 0 1 128 60)" class="st1 st8 st9 st10">2012</text>
	</g>
	<g id="Card_2_" transform="translate(301.000000, 352.000000)">
		<polygon id="_x34_:3" class="st0" points="64,0 516,0 516,302 64,302 		"/>
		<text transform="matrix(1 0 0 1 128 137)" class="st1 st2 st3">We conducted the second neural stem </text>
		<text transform="matrix(1 0 0 1 128 169)" class="st1 st2 st3">cell clinical trial ever in the U.S. – and </text>
		<text transform="matrix(1 0 0 1 128 201)" class="st1 st2 st3">the first with published results. It was </text>
		<text transform="matrix(1 0 0 1 128 233)" class="st1 st2 st3">the widely adopted nationally.</text>
		<text transform="matrix(1 0 0 1 128 99)" class="st1 st4 st5">Stem Cell Research</text>
		<text transform="matrix(1 0 0 1 218 60)" class="st1 st8 st9 st10">BREAKTHROUGH</text>
		<rect id="line" x="170" y="56" width="40" height="1"/>
		<text transform="matrix(1 0 0 1 128 60)" class="st1 st8 st9 st10">2015</text>
	</g>
</g>
<g id="color_sqs">
	<rect id="Rectangle-5-Copy" x="817" y="304" class="st11" width="48" height="48"/>
</g>
<g id="photos">

		<image style="overflow:visible;" width="302" height="302" xlink:href="achievement-large-1.jpg"  transform="matrix(1 0 0 1 64 352)">
	</image>

		<image style="overflow:visible;" width="152" height="152" xlink:href="achievement-medium-1.jpg"  transform="matrix(1 0 0 1 1015 152)">
	</image>

		<image style="overflow:visible;" width="101" height="101" xlink:href="achievement-small-1.jpg"  transform="matrix(1 0 0 1 1066 3)">
	</image>
</g>
</svg>
