<svg xmlns="http://www.w3.org/2000/svg" viewBox="0 0 96 96"><g id="Layer_1"><path fill="#fff" d="M0 0h96v96H0z"/><path d="M88.3 42.3v-3H77v10.9c0-1.3-.5-2.3-1.4-3-.6-.5-1.5-.9-2.8-1.2l-2.8-.7c-1-.1-1.7-.3-2-.5-.3-.1-.5-.4-.6-.7-.1-.2-.1-.4-.1-.6 0-.5.2-.9.5-1.2.1 0 .1-.1.2-.2.5-.3 1.2-.5 2.1-.5.8 0 1.4.1 2 .4.8.4 1.2 1.1 1.3 2.1h3.2c0-1.7-.7-3-1.9-3.9-1.2-.9-2.6-1.3-4.4-1.3-2 0-3.6.5-4.7 1.4-.6.6-1.1 1.2-1.3 2 0 .1-.1.3-.1.5-.4 1.8-1.6 3.1-3.5 3.1-3.2 0-4.4-2.7-4.4-5.4 0-2.8 1.2-5.5 4.4-5.5 1.8 0 3.3 1.2 3.5 2.8h3.4c-.4-3.7-3.4-5.8-6.9-5.8-4.7 0-7.6 3.4-7.9 7.8v-7.4h-3.5v10c0 2.4-.8 3.5-3.3 3.5-2.9 0-3.3-1.7-3.3-3.5v-10h-3.5v10c0 4.4 2.5 6.5 6.9 6.5 4.3 0 6.9-2.1 6.9-6.5v-1.2c.2 4.3 3.1 7.7 7.9 7.7 2 0 3.6-.6 4.8-1.7.1 0 .1.1.2.2.6.4 1.8.9 3.5 1.2l1.7.4c1 .2 1.7.5 2.2.8.5.3.7.7.7 1.2 0 .9-.5 1.5-1.4 1.9-.5.2-1.2.2-2 .2-1.3 0-2.3-.3-2.8-1-.3-.4-.5-.9-.6-1.6H64c0 1.7.6 3 1.8 3.9 1.2 1 2.9 1.4 4.9 1.4s3.6-.5 4.8-1.4c1.1-.9 1.6-2 1.7-3.3v4.5h3.5v-6.8h6.7V46h-6.7v-3.7h7.6z" fill="#052049"/></g></svg>