<svg width="26" height="22" viewBox="0 0 26 22" xmlns="http://www.w3.org/2000/svg" xmlns:xlink="http://www.w3.org/1999/xlink"><defs><path d="M13 .043l2.473 1.855V.684h5.13v5.062l4.884 3.662h-3.08v12.316H3.593V9.408H.512L13 .043zm8.382 9.365H4.618v11.29l5.816-.001v-4.105h5.132v4.105h5.816V9.407zm-6.843 8.21h-3.078v3.079h3.078v-3.079zm-6.5-1.71v2.555H7.013v-2.555H8.04zm10.948 0v2.555H17.96v-2.555h1.026zM13 1.326L3.592 8.382h18.815L13 1.326zm6.578.385H16.5v.923h-.046l3.123 2.342V1.71z" id="path-1"/></defs><g id="Symbols" stroke="none" stroke-width="1" fill="none" fill-rule="evenodd"><g id="navigation/L-Copy-25" transform="translate(-488 -168)"><g id="icons/interactive/32px/building" transform="translate(488 168)"><mask id="mask-2" fill="#fff"><use xlink:href="#path-1"/></mask><use id="Combined-Shape" fill="#052049" fill-rule="nonzero" xlink:href="#path-1"/></g></g></g></svg>