<svg version="1.1" id="Layer_1_1" xmlns="http://www.w3.org/2000/svg" x="0" y="0" viewBox="0 0 604 104" xml:space="preserve"><path d="M469.4 44.5V33h-52.1v12.2H450l-31.8 38L399.4 33H360v11.2h14.1c-.9 9.3-5.6 17.5-15.2 17.5-13.2 0-18.2-11.3-18.2-22.5 0-11.7 5-23 18.2-23 6.6 0 12 3.5 13.9 10.2H387c-2.1-14.6-14.8-22.6-28.1-22.6-20.8 0-33 15.5-33 35.4 0 2.4.2 4.7.6 7.1L311.2 5.4h-15.1l-20 52.7V5.4h-20.8l-14.8 46.1h-.2L224.5 5.4h-20.8v67.1h13.8V25.4h.2l16.4 47.1h11.4L261.9 25h.2v47.5h23.4l5.3-14.9h25.1l5.1 14.9h15.3l-4.8-12.6c5.5 8.6 14.9 14.2 27.3 14.2 3.9 0 7.7-1 11.1-2.8l-10.6 28h14.8l5.2-14.7h24.8l5 14.7h61.3V87H434l35.4-42.5zm-174.8 2l8.7-24.6h.2l8.5 24.6h-17.4zm88.5 27.1l8.6-24.3h.2l8.3 24.3h-17.1zM473.4 33H488v66.2h-14.6zm60.4 44.4h-.2L506 33h-14.5v66.2h13.6V54.9h.2l27.6 44.3h14.5V33h-13.6zm31.8 9.6V70.7h32.1V59.4h-32.1V45.2h34.9V33H551v66.2h50.3V87z" fill="#fff"/><path d="M203.7 45.9V33.8h-46v44.6c-.2-5.2-2.2-9.3-5.8-12.1-2.5-2-6.2-3.5-11.3-4.7l-11.4-2.7c-4.4-1-7.3-1.9-8.6-2.7-1.2-.7-2.1-1.6-2.6-2.6-.3-.7-.5-1.6-.5-2.5 0-2 .7-3.7 2.1-5l.1-.1c.3-.3.6-.5 1-.8 2.1-1.4 5-2.1 8.6-2.1 3.2 0 5.9.5 8.1 1.6 3.3 1.6 5 4.4 5.2 8.3h13.1c-.2-6.9-2.8-12.2-7.7-15.8s-10.8-5.5-17.8-5.5c-8.3 0-14.6 1.9-18.9 5.8-2.6 2.4-4.5 5.1-5.5 8.2-.2.7-.4 1.4-.5 2.1-1.6 7.5-6.4 12.6-14.5 12.6-12.9 0-17.8-11-17.8-21.9C73 27 77.9 16 90.8 16c7.1 0 13.4 4.9 14.3 11.5H119c-1.7-15.1-13.8-23.6-28.2-23.6-19.3 0-31.1 13.8-32.1 31.9V5.4H44.2v40.7c0 9.7-3.3 14.2-13.6 14.2-11.6 0-13.5-7.1-13.5-14.2V5.4H2.8v40.7c0 17.8 10.3 26.3 27.9 26.3 17.5 0 28-8.6 28-26.3V41c1 17.7 12.8 31.4 32.1 31.4 7.9 0 14.7-2.6 19.7-7.1.3.2.6.5 1 .7 2.6 1.8 7.3 3.5 14.3 5l7 1.5c4.1.9 7.1 1.9 9 3 1.9 1.2 2.8 2.8 2.8 5 0 3.7-1.9 6.2-5.8 7.5-2 .7-4.7 1.1-8 1.1-5.5 0-9.3-1.3-11.6-4-1.2-1.5-2.1-3.7-2.5-6.7h-13c0 6.8 2.5 12.1 7.4 16s11.6 5.8 20.2 5.8c8.4 0 14.9-2 19.5-5.9 4.2-3.6 6.5-8.1 6.8-13.4v18.3H172v-27h27.4V61H172V45.9h31.7z" fill="#052049"/></svg>