<?xml version="1.0" encoding="utf-8"?>
<!-- Generator: Adobe Illustrator 25.0.0, SVG Export Plug-In . SVG Version: 6.00 Build 0)  -->
<svg version="1.1" id="Layer_1" xmlns="http://www.w3.org/2000/svg" xmlns:xlink="http://www.w3.org/1999/xlink" x="0px" y="0px"
	 viewBox="0 0 604 104" style="enable-background:new 0 0 604 104;" xml:space="preserve">
<style type="text/css">
	.st0{fill:#FFFFFF;}
	.st1{fill:#007CBE;}
</style>
<g id="Layer_2_1_1">
	<g id="UCSF_Magazine_Logo_White">
		<path class="st0" d="M203.4,46.1V34h-45.9v44.4c-0.2-5.2-2.1-9.2-5.8-12.1c-2.5-2-6.2-3.5-11.2-4.7L129.2,59
			c-4.4-1-7.3-1.9-8.6-2.7c-1.1-0.6-2.1-1.5-2.6-2.6l0,0l0,0l0,0c-0.4-0.8-0.5-1.7-0.5-2.5c-0.1-1.9,0.7-3.7,2.1-5l0,0l0.1-0.1l0,0
			c0.3-0.3,0.6-0.6,1-0.8c2.6-1.5,5.6-2.3,8.6-2.2c2.8-0.1,5.5,0.5,8,1.6c3.2,1.5,5.2,4.8,5.2,8.3h13c-0.2-6.9-2.8-12.1-7.7-15.8
			c-4.9-3.6-10.8-5.4-17.7-5.5c-8.3,0-14.6,1.9-18.8,5.8c-2.5,2.2-4.4,5-5.5,8.2l0,0c-0.2,0.7-0.4,1.4-0.5,2.1l0,0
			c-1.6,7.5-6.4,12.5-14.4,12.5c-12.9,0-17.7-11-17.7-21.8c0-11.4,4.8-22.4,17.7-22.4c7.1,0,13.3,4.9,14.2,11.4H119
			c-1.8-15.1-13.8-23.5-28.1-23.5c-19.3,0-30.9,13.7-32,31.8V5.7H44.5v40.6c0,9.7-3.3,14.2-13.5,14.2c-11.6,0-13.4-7-13.4-14.2V5.7
			H3.2v40.6C3.2,64,13.4,72.5,31,72.5s27.9-8.6,27.9-26.2v-5.1c1,17.6,12.7,31.3,32,31.3c7.9,0,14.7-2.6,19.6-7.1
			c0.3,0.3,0.6,0.5,1,0.7c2.6,1.8,7.3,3.5,14.2,5l7,1.5c3.1,0.5,6.2,1.5,9,3c1.8,1,2.9,2.9,2.8,5c0,3.7-1.9,6.2-5.8,7.5
			c-2.6,0.8-5.3,1.1-8,1.1c-5.4,0-9.3-1.3-11.5-4c-1.4-1.9-2.3-4.2-2.5-6.6h-12.9c0,6.8,2.4,12.1,7.3,15.9
			c4.9,3.8,11.6,5.8,20.1,5.8c8.4,0,14.8-2,19.4-5.9c4.1-3.3,6.5-8.1,6.8-13.3v18.2h14.3V72.3h27.4V61.1h-27.4V46.1H203.4z"/>
		<path class="st1" d="M468.9,44.5V33h-52.1v12.2h32.7l-31.8,38L398.9,33h-39.4v11.2h14.1c-0.9,9.3-5.6,17.5-15.2,17.5
			c-13.2,0-18.2-11.3-18.2-22.5c0-11.7,5-23,18.2-23c6.6,0,12,3.5,13.9,10.2h14.2c-2.1-14.6-14.8-22.6-28.1-22.6
			c-20.8,0-33,15.5-33,35.4c0,2.4,0.2,4.7,0.6,7.1L310.7,5.4h-15.1l-20,52.7V5.4h-20.8l-14.8,46.1h-0.2L224,5.4h-20.8v67.1h13.8
			V25.4h0.2l16.4,47.1h11.4l16.4-47.5h0.2v47.5H285l5.3-14.9h25.1l5.1,14.9h15.3L331,59.9c5.5,8.6,14.9,14.2,27.3,14.2
			c3.9,0,7.7-1,11.1-2.8l-10.6,28h14.8l5.2-14.7h24.8l5,14.7h61.3V87h-36.4L468.9,44.5z M294.1,46.5l8.7-24.6h0.2l8.5,24.6H294.1z
			 M382.6,73.6l8.6-24.3h0.2l8.3,24.3H382.6z"/>
		<rect x="472.9" y="33" class="st1" width="14.6" height="66.2"/>
		<polygon class="st1" points="533.3,77.4 533.1,77.4 505.5,33 491,33 491,99.2 504.6,99.2 504.6,54.9 504.8,54.9 532.4,99.2
			546.9,99.2 546.9,33 533.3,33 		"/>
		<polygon class="st1" points="565.1,87 565.1,70.7 597.2,70.7 597.2,59.4 565.1,59.4 565.1,45.2 600,45.2 600,33 550.5,33
			550.5,99.2 600.8,99.2 600.8,87 		"/>
	</g>
</g>
</svg>
