<svg version="1.1" id="Layer_1_1" xmlns="http://www.w3.org/2000/svg" x="0" y="0" viewBox="0 0 604 104" xml:space="preserve"><g id="Layer_2_1_1"><g id="UCSF_Magazine_Logo_White"><path d="M203.4 46.1V34h-45.9v44.4c-.2-5.2-2.1-9.2-5.8-12.1-2.5-2-6.2-3.5-11.2-4.7L129.2 59c-4.4-1-7.3-1.9-8.6-2.7-1.1-.6-2.1-1.5-2.6-2.6-.4-.8-.5-1.7-.5-2.5-.1-1.9.7-3.7 2.1-5l.1-.1c.3-.3.6-.6 1-.8 2.6-1.5 5.6-2.3 8.6-2.2 2.8-.1 5.5.5 8 1.6 3.2 1.5 5.2 4.8 5.2 8.3h13c-.2-6.9-2.8-12.1-7.7-15.8-4.9-3.6-10.8-5.4-17.7-5.5-8.3 0-14.6 1.9-18.8 5.8-2.5 2.2-4.4 5-5.5 8.2-.2.7-.4 1.4-.5 2.1-1.6 7.5-6.4 12.5-14.4 12.5-12.9 0-17.7-11-17.7-21.8 0-11.4 4.8-22.4 17.7-22.4 7.1 0 13.3 4.9 14.2 11.4H119C117.2 12.4 105.2 4 90.9 4 71.6 4 60 17.7 58.9 35.8V5.7H44.5v40.6c0 9.7-3.3 14.2-13.5 14.2-11.6 0-13.4-7-13.4-14.2V5.7H3.2v40.6C3.2 64 13.4 72.5 31 72.5s27.9-8.6 27.9-26.2v-5.1c1 17.6 12.7 31.3 32 31.3 7.9 0 14.7-2.6 19.6-7.1.3.3.6.5 1 .7 2.6 1.8 7.3 3.5 14.2 5l7 1.5c3.1.5 6.2 1.5 9 3 1.8 1 2.9 2.9 2.8 5 0 3.7-1.9 6.2-5.8 7.5-2.6.8-5.3 1.1-8 1.1-5.4 0-9.3-1.3-11.5-4-1.4-1.9-2.3-4.2-2.5-6.6h-12.9c0 6.8 2.4 12.1 7.3 15.9 4.9 3.8 11.6 5.8 20.1 5.8 8.4 0 14.8-2 19.4-5.9 4.1-3.3 6.5-8.1 6.8-13.3v18.2h14.3v-27h27.4V61.1h-27.4v-15h31.7z" fill="#fff"/><path d="M468.9 44.5V33h-52.1v12.2h32.7l-31.8 38L398.9 33h-39.4v11.2h14.1c-.9 9.3-5.6 17.5-15.2 17.5-13.2 0-18.2-11.3-18.2-22.5 0-11.7 5-23 18.2-23 6.6 0 12 3.5 13.9 10.2h14.2c-2.1-14.6-14.8-22.6-28.1-22.6-20.8 0-33 15.5-33 35.4 0 2.4.2 4.7.6 7.1L310.7 5.4h-15.1l-20 52.7V5.4h-20.8L240 51.5h-.2L224 5.4h-20.8v67.1H217V25.4h.2l16.4 47.1H245L261.4 25h.2v47.5H285l5.3-14.9h25.1l5.1 14.9h15.3L331 59.9c5.5 8.6 14.9 14.2 27.3 14.2 3.9 0 7.7-1 11.1-2.8l-10.6 28h14.8l5.2-14.7h24.8l5 14.7h61.3V87h-36.4l35.4-42.5zm-174.8 2l8.7-24.6h.2l8.5 24.6h-17.4zm88.5 27.1l8.6-24.3h.2l8.3 24.3h-17.1zM472.9 33h14.6v66.2h-14.6zm60.4 44.4h-.2L505.5 33H491v66.2h13.6V54.9h.2l27.6 44.3h14.5V33h-13.6zm31.8 9.6V70.7h32.1V59.4h-32.1V45.2H600V33h-49.5v66.2h50.3V87z" fill="#007cbe"/></g></g></svg>