<svg xmlns="http://www.w3.org/2000/svg" viewBox="0 0 597.57 96.4"><g id="Layer_2" data-name="Layer 2"><g id="UCSF_Magazine_Logo" data-name="UCSF Magazine Logo"><path d="M200.15 42.26V30.2h-45.86v44.43c-.25-5.21-2.15-9.25-5.75-12.09q-3.73-2.94-11.21-4.7L126 55.16c-4.39-1-7.26-1.92-8.61-2.69a5.83 5.83 0 01-2.63-2.64 6.21 6.21 0 01-.53-2.53 6.57 6.57 0 012.09-5l.09-.08a9.19 9.19 0 011-.79 15.44 15.44 0 018.59-2.15 17.88 17.88 0 018 1.63 9.28 9.28 0 015.23 8.31h13q-.36-10.33-7.68-15.76T126.9 28q-12.42 0-18.83 5.76a18.77 18.77 0 00-5.46 8.2 18 18 0 00-.54 2.07c-1.58 7.47-6.39 12.55-14.44 12.55-12.89 0-17.73-11-17.73-21.83 0-11.42 4.84-22.38 17.73-22.38 7.12 0 13.34 4.93 14.25 11.41h13.88C114 8.73 102 .33 87.62.33 68.36.33 56.68 14 55.64 32.1V1.88H41.29v40.56c0 9.68-3.29 14.16-13.52 14.16-11.6 0-13.43-7-13.43-14.16V1.88H0v40.56c0 17.72 10.23 26.22 27.77 26.22s27.87-8.59 27.87-26.22v-5.08c1 17.59 12.72 31.3 32 31.3 7.91 0 14.66-2.55 19.63-7.1q.47.38 1 .72 3.87 2.68 14.22 5l7 1.54a30.87 30.87 0 019 3 5.55 5.55 0 012.84 5q0 5.5-5.79 7.52a25 25 0 01-8 1.06q-8.17 0-11.54-4a13.07 13.07 0 01-2.47-6.64H100.6q0 10.13 7.34 15.9t20.13 5.78q12.54 0 19.4-5.87a18.54 18.54 0 006.82-13.35v18.21h14.34V68.48H196V57.33h-27.37V42.26z" fill="#121a31"/><path d="M465.72 40.69V29.2h-52.11v12.24h32.73l-31.82 38.05-18.8-50.29h-39.44v11.17h14.11c-.85 9.31-5.65 17.51-15.24 17.51-13.24 0-18.22-11.28-18.22-22.46 0-11.74 5-23 18.22-23 6.62 0 12 3.5 13.91 10.23h14.24C381.23 8.07 368.55 0 355.15 0c-20.76 0-33 15.5-33 35.42a44 44 0 00.56 7.06L307.45 1.6h-15.12l-20 52.72V1.6h-20.78l-14.84 46.13h-.19L220.83 1.6h-20.77v67.08h13.81V21.61h.19l16.44 47.07h11.37l16.44-47.54h.19v47.54h23.3l5.26-14.94h25.09l5.07 14.94h15.32l-4.72-12.61c5.52 8.63 14.89 14.21 27.33 14.21a22.67 22.67 0 0011.1-2.83l-10.61 28h14.76l5.19-14.74h24.76l5 14.74h61.29V83.16h-36.43zm-174.8 2.06l8.73-24.62h.19l8.46 24.62zm88.48 27.06l8.6-24.29h.19l8.34 24.29zm90.3-40.61h14.56v66.21H469.7zm60.37 44.41h-.19L502.25 29.2h-14.46v66.2h13.63V51.08h.18l27.54 44.32h14.56V29.2h-13.63v44.41zm31.8 9.55V66.94h32.08V55.62h-32.08V41.44h34.96V29.2h-49.52v66.2h50.26V83.16h-35.7z" fill="#007cbe"/></g></g></svg>