<svg height="18" viewBox="0 0 18 18" width="18" xmlns="http://www.w3.org/2000/svg"><path d="m126.863636 15.2059272-4.33071-4.3306466c1.00233-1.15398304 1.611059-2.65838538 1.611059-4.30329042 0-3.62366679-2.94818-6.57199018-6.572085-6.57199018-3.623906 0-6.5719 2.94850949-6.5719 6.57217628 0 3.62366682 2.947994 6.57180412 6.5719 6.57180412 1.644742 0 3.149167-.608721 4.30298-1.6110355l4.331082 4.3308326c.090816.090815.20992.1362225.329023.1362225.118917 0 .238021-.0454075.328651-.1362225.181819-.1816299.181819-.4762204 0-.6578503zm-14.933141-8.63393702c0-3.11078544 2.53076-5.64150877 5.641405-5.64150877 3.11083 0 5.64159 2.53090943 5.64159 5.64150877 0 3.11059935-2.53076 5.64132272-5.64159 5.64132272-3.110645 0-5.641405-2.53072337-5.641405-5.64132272z" fill="#333" stroke="#333" transform="translate(-110 1)"/></svg>