<?xml version="1.0" encoding="utf-8"?>
<!-- Generator: Adobe Illustrator 22.1.0, SVG Export Plug-In . SVG Version: 6.00 Build 0)  -->
<svg version="1.1" id="transportation" xmlns="http://www.w3.org/2000/svg" xmlns:xlink="http://www.w3.org/1999/xlink" x="0px"
	 y="0px" viewBox="0 0 96 96" style="enable-background:new 0 0 96 96;" xml:space="preserve">
<style type="text/css">
	.st0{clip-path:url(#SVGID_2_);}
	.st1{clip-path:url(#SVGID_4_);enable-background:new    ;}
	.st2{clip-path:url(#SVGID_6_);}
	.st3{clip-path:url(#SVGID_8_);fill:#006BE9;}
	.st4{clip-path:url(#SVGID_10_);}
	.st5{clip-path:url(#SVGID_12_);fill:#007CBE;}
</style>
<g>
	<defs>
		<path id="SVGID_1_" d="M33.4,57.4c1.2,0,2.1-0.9,2.1-2.1s-0.9-2.1-2.1-2.1s-2.1,0.9-2.1,2.1S32.2,57.4,33.4,57.4z M33.4,61.6
			c-3.5,0-6.3-2.8-6.3-6.3s2.8-6.3,6.3-6.3c3.5,0,6.3,2.8,6.3,6.3S36.9,61.6,33.4,61.6z M64.1,57.4c1.2,0,2.1-0.9,2.1-2.1
			s-0.9-2.1-2.1-2.1S62,54.2,62,55.3S62.9,57.4,64.1,57.4z M64.1,61.6c-3.5,0-6.3-2.8-6.3-6.3s2.8-6.3,6.3-6.3
			c3.5,0,6.3,2.8,6.3,6.3S67.5,61.6,64.1,61.6z M31.7,25.4c-0.3,0-0.6,0.2-0.7,0.6l-2,11.2c0,0,0,0.1,0,0.1c0,0.4,0.3,0.7,0.7,0.7
			h37.9c0,0,0.1,0,0.1,0c0.4-0.1,0.6-0.4,0.6-0.8l-2-11.2c-0.1-0.3-0.3-0.6-0.7-0.6H31.7z M31.7,21.2h34c2.4,0,4.4,1.7,4.8,4l2,11.2
			c0.5,2.7-1.3,5.2-3.9,5.7c-0.3,0.1-0.6,0.1-0.9,0.1H29.7c-2.7,0-4.9-2.2-4.9-4.9c0-0.3,0-0.6,0.1-0.9l2-11.2
			C27.3,22.9,29.4,21.2,31.7,21.2z M28.7,14.2c-4.8,0-8.8,3.8-9,8.6l-1.7,36.2c0,0.1,0,0.3,0,0.4c0,5,4.1,9.1,9.1,9.1h43.5
			c0.1,0,0.3,0,0.4,0c5-0.2,8.9-4.5,8.6-9.5l-1.7-36.2c-0.2-4.8-4.2-8.6-9-8.6H28.7z M28.5,72.8v4.9c0,1.2,0.9,2.1,2.1,2.1
			c1.2,0,2.1-0.9,2.1-2.1v-4.9H28.5z M64.8,72.8v4.9c0,1.2,0.9,2.1,2.1,2.1s2.1-0.9,2.1-2.1v-4.9H64.8z M73.1,72.5v5.1
			c0,3.5-2.8,6.3-6.3,6.3c-3.5,0-6.3-2.8-6.3-6.3v-4.9H36.9v4.9c0,3.5-2.8,6.3-6.3,6.3c-3.5,0-6.3-2.8-6.3-6.3v-5.1
			c-6.1-1.2-10.6-6.6-10.6-13c0-0.2,0-0.4,0-0.6l1.7-36.2C15.8,15.6,21.6,10,28.7,10h40.1c7.1,0,12.9,5.6,13.2,12.6l1.7,36.2
			C84,65.5,79.4,71.2,73.1,72.5z"/>
	</defs>
	<clipPath id="SVGID_2_">
		<use xlink:href="#SVGID_1_"  style="overflow:visible;"/>
	</clipPath>
	<g class="st0">
		<defs>
			<rect id="SVGID_3_" x="4.1" y="2.4" width="89.2" height="89.2"/>
		</defs>
		<clipPath id="SVGID_4_">
			<use xlink:href="#SVGID_3_"  style="overflow:visible;"/>
		</clipPath>
		<g class="st1">
			<g>
				<defs>
					<rect id="SVGID_5_" x="-1.5" y="-6" width="100.4" height="105.9"/>
				</defs>
				<clipPath id="SVGID_6_">
					<use xlink:href="#SVGID_5_"  style="overflow:visible;"/>
				</clipPath>
				<g class="st2">
					<defs>
						<rect id="SVGID_7_" x="12.5" y="8" width="72.5" height="78.1"/>
					</defs>
					<clipPath id="SVGID_8_">
						<use xlink:href="#SVGID_7_"  style="overflow:visible;"/>
					</clipPath>
					<rect x="-0.2" y="-3.9" class="st3" width="97.9" height="101.8"/>
				</g>
				<g class="st2">
					<defs>
						<rect id="SVGID_9_" x="4.1" y="2.4" width="89.2" height="89.2"/>
					</defs>
					<clipPath id="SVGID_10_">
						<use xlink:href="#SVGID_9_"  style="overflow:visible;"/>
					</clipPath>
					<g class="st4">
						<defs>
							<rect id="SVGID_11_" x="12.5" y="8" width="72.5" height="78.1"/>
						</defs>
						<clipPath id="SVGID_12_">
							<use xlink:href="#SVGID_11_"  style="overflow:visible;"/>
						</clipPath>
						<rect x="-9.8" y="-11.6" class="st5" width="117.1" height="117.1"/>
					</g>
				</g>
			</g>
		</g>
	</g>
</g>
</svg>
