<?xml version="1.0" encoding="utf-8"?>
<!-- Generator: Adobe Illustrator 22.1.0, SVG Export Plug-In . SVG Version: 6.00 Build 0)  -->
<svg version="1.1" id="Layer_1" xmlns="http://www.w3.org/2000/svg" xmlns:xlink="http://www.w3.org/1999/xlink" x="0px" y="0px"
	 viewBox="0 0 48 48" style="enable-background:new 0 0 48 48;" xml:space="preserve">
<style type="text/css">
	.st0{fill:#007CBE;}
</style>
<path id="a_1_" class="st0" d="M26.7,10.6l0.5,0.2c0.4,0.1,0.6,0.5,0.5,0.9l-0.6,2l0.3,0.2c4.7,2.7,7.8,7.9,7.8,13.4
	c0,2.1-0.4,4.1-1.2,5.9c1.2,0.9,2.1,2.2,2.5,3.6l0.4,0c1.5,0,2.7,1.2,2.7,2.8c0,1.5-1.2,2.8-2.8,2.8H11c-1.5,0-2.8-1.2-2.8-2.8
	c0-1.5,1.2-2.7,2.7-2.7c0,0,3.8,0,11.5,0.1l0.6-1.2c0.3-0.6,0.7-1.1,1.1-1.6l-12.3-2.8c-0.4-0.1-0.7-0.5-0.6-0.9
	c0.1-0.4,0.5-0.7,0.9-0.6l13,3c0.1,0,0.2,0.1,0.3,0.2c1-0.7,2.1-1.1,3.2-1.2c0,0,0,0,0,0c0.7-1.4,1.1-3,1.1-4.6
	c0-3.2-1.6-6.3-4.2-8.2c-0.2,0.3-0.5,0.5-0.9,0.4l-6-2c-0.4-0.1-0.6-0.5-0.5-0.9l2-7c0.1-0.4,0.6-0.6,1-0.5l0.3,0.1l1.9-2.8
	c0.2-0.3,0.5-0.4,0.9-0.3l3,1c0.4,0.1,0.6,0.6,0.5,0.9L26.7,10.6z M26.1,17.3C26.1,17.3,26.1,17.3,26.1,17.3
	c3.2,2.2,5.2,5.9,5.2,9.7c0,1.6-0.3,3.2-1,4.6c0.8,0.1,1.6,0.3,2.4,0.7c0.7-1.6,1-3.4,1-5.1c0-4.9-2.8-9.6-7-12.1L26.1,17.3z
	 M9.8,39.5c0,0.7,0.6,1.2,1.2,1.2h26c0.7,0,1.2-0.6,1.2-1.2c0-0.7-0.6-1.3-1.2-1.3l-1,0c-0.3,0-0.7-0.2-0.7-0.6
	c-0.4-1.7-1.5-3.1-3-3.9c-2.9-1.5-6.4-0.3-7.8,2.6l-0.8,1.6c-0.1,0.3-0.4,0.4-0.7,0.4L11,38.3C10.3,38.3,9.8,38.8,9.8,39.5z
	 M21.5,10.5L19.9,16l4.6,1.5l1.6-5.6L21.5,10.5z M23.2,9l2.3,0.6L26.1,8l-1.7-0.6L23.2,9z M29.5,39c-1.1,0-2-0.9-2-2s0.9-2,2-2
	s2,0.9,2,2S30.6,39,29.5,39z M29.5,37.5c0.3,0,0.5-0.2,0.5-0.5s-0.2-0.5-0.5-0.5S29,36.7,29,37S29.2,37.5,29.5,37.5z M19.2,15.8l6,2
	c0.5,0.2,0.7,0.8,0.4,1.2l-3,4c-0.2,0.3-0.5,0.4-0.8,0.3l-3-1c-0.3-0.1-0.5-0.4-0.5-0.7v-5C18.2,16,18.8,15.6,19.2,15.8z M19.7,17.5
	V21l2,0.7l2.1-2.7L19.7,17.5z"/>
</svg>
