<?xml version="1.0" encoding="utf-8"?>
<!-- Generator: Adobe Illustrator 22.1.0, SVG Export Plug-In . SVG Version: 6.00 Build 0)  -->
<svg version="1.1" xmlns="http://www.w3.org/2000/svg" xmlns:xlink="http://www.w3.org/1999/xlink" x="0px" y="0px"
	 viewBox="0 0 1123 655" style="enable-background:new 0 0 1123 655;" xml:space="preserve">
<style type="text/css">
	@font-face {
		font-family: "GranjonLTW01-Roman";
		src: url("https://ucsf-web-services.github.io/ucsf_8_pa/fonts/GranjonLTW01-Roman.eot?#iefix") format("eot"), url("https://ucsf-web-services.github.io/ucsf_8_pa/fonts/GranjonLTW01-Roman.woff2") format("woff2"), url("https://ucsf-web-services.github.io/ucsf_8_pa/fonts/GranjonLTW01-Roman.woff") format("woff"), url("https://ucsf-web-services.github.io/ucsf_8_pa/fonts/GranjonLTW01-Roman.ttf") format("truetype");
	}

	@font-face {
		font-family: "HelveticaNeueLTW04-45Light";
		src: url("https://ucsf-web-services.github.io/ucsf_8_pa/fonts/HelveticaNeueLTW04-45Light.eot?#iefix") format("eot"), url("https://ucsf-web-services.github.io/ucsf_8_pa/fonts/HelveticaNeueLTW04-45Light.woff2") format("woff2"), url("https://ucsf-web-services.github.io/ucsf_8_pa/fonts/HelveticaNeueLTW04-45Light.woff") format("woff"), url("https://ucsf-web-services.github.io/ucsf_8_pa/fonts/HelveticaNeueLTW04-45Light.ttf") format("truetype");
	}
	@font-face {
		font-family: "HelveticaNeueLTW06-75Bold";
		src: url("https://ucsf-web-services.github.io/ucsf_8_pa/fonts/HelveticaNeueLTW06-75Bold.eot?#iefix") format("eot"), url("https://ucsf-web-services.github.io/ucsf_8_pa/fonts/HelveticaNeueLTW06-75Bold.woff2") format("woff2"), url("https://ucsf-web-services.github.io/ucsf_8_pa/fonts/HelveticaNeueLTW06-75Bold.woff") format("woff"), url("https://ucsf-web-services.github.io/ucsf_8_pa/fonts/HelveticaNeueLTW06-75Bold.ttf") format("truetype");
	}

	.st0{fill:#FFFFFF;}
	.st1{fill:#052049;}
	.st2{font-family:'HelveticaNeueLTW04-45Light';}
	.st3{font-size:18px;}
	.st4{font-family:'GranjonLTW01-Roman';}
	.st5{font-size:28px;}
	.st6{font-family:'HelveticaNeueLTW06-75Bold';}
	.st7{font-size:12px;}
	.st8{letter-spacing:1;}
	.st9{font-size:72px;}
	.st10{letter-spacing:-1;}
	.st11{fill:#716FB2;}
	.st12{fill:#007CBE;}
	.st13{fill:#058488;}
</style>
<g id="cards">
	<g id="Card_1_" transform="translate(2502.000000, 2.000000)">
		<polygon id="_x34_:3-copy-5" class="st0" points="-1904,0 -1452,0 -1452,302 -1904,302 		"/>
		<text transform="matrix(1 0 0 1 -1838 140)" class="st1 st2 st3">Discovered that a missing protein called </text>
		<text transform="matrix(1 0 0 1 -1838 172)" class="st1 st2 st3">surfactant is the culprit in the deaths of </text>
		<text transform="matrix(1 0 0 1 -1838 204)" class="st1 st2 st3">newborns with respiratory distress </text>
		<text transform="matrix(1 0 0 1 -1838 236)" class="st1 st2 st3">syndrome.</text>
		<text transform="matrix(1 0 0 1 -1841 102)" class="st1 st4 st5">Surfactant Discovery</text>
		<text transform="matrix(1 0 0 1 -1748 63)" class="st1 st6 st7 st8">BREAKTHROUGH</text>
		<text transform="matrix(1 0 0 1 -1838 63)" class="st1 st6 st7 st8">2012</text>
		<rect id="line-copy-2_2_" x="-1796" y="59" width="40" height="1"/>
	</g>
	<g id="Card_3_" transform="translate(2504.000000, 352.000000)">
		<polygon id="_x34_:3_1_" class="st0" points="-1904,0 -1452,0 -1452,302 -1904,302 		"/>
		<text transform="matrix(1 0 0 1 -1840 155)" class="st1 st2 st3">Developed the first prenatal tests for </text>
		<text transform="matrix(1 0 0 1 -1840 187)" class="st1 st2 st3">inherited blood diseases such as sickle-</text>
		<text transform="matrix(1 0 0 1 -1524.3123 187)" class="st1 st2 st3"> </text>
		<text transform="matrix(1 0 0 1 -1840 219)" class="st1 st2 st3">cell anemia and thalassemia.</text>
		<text transform="matrix(1 0 0 1 -1840 117)" class="st1 st4 st5">Inherited Blood Diseases</text>
		<text transform="matrix(1 0 0 1 -1750 78)" class="st1 st6 st7 st8">BREAKTHROUGH</text>
		<rect id="line_1_" x="-1798" y="74" width="40" height="1"/>
		<text transform="matrix(1 0 0 1 -1840 78)" class="st1 st6 st7 st8">2015</text>
	</g>
	<g id="Card_6_" transform="translate(1904.000000, 352.000000)">
		<polygon id="_x31_:1-copy" class="st0" points="-1904,0 -1605,0 -1605,302 -1904,302 		"/>
		<text transform="matrix(1 0 0 1 -1864 145)" class="st1 st2 st3">National Medal of Science </text>
		<text transform="matrix(1 0 0 1 -1864 177)" class="st1 st2 st3">awards bestowed by the </text>
		<text transform="matrix(1 0 0 1 -1864 209)" class="st1 st2 st3">President of the United </text>
		<text transform="matrix(1 0 0 1 -1864 241)" class="st1 st2 st3">States</text>
		<text transform="matrix(1 0 0 1 -1817 67)" class="st1 st4 st5">Nobel Prize </text>
		<text transform="matrix(1 0 0 1 -1817 99)" class="st1 st4 st5">Medals</text>
		<text transform="matrix(1 0 0 1 -1865 97)" class="st1 st4 st9 st10">5</text>
	</g>
</g>
<g id="color_sqs">
	<rect id="Rectangle-5-Copy-10" y="304" class="st11" width="48" height="48"/>
	<rect id="Rectangle-5-Copy-11" x="550" y="256" class="st12" width="48" height="48"/>
	<rect id="Rectangle-5-Copy-9" x="350" y="104" class="st13" width="48" height="48"/>
</g>
<g id="photos">

		<image style="overflow:visible;" width="302" height="302" xlink:href="achievement-large-3.jpg"  transform="matrix(1 0 0 1 48 2)">
	</image>

		<image style="overflow:visible;" width="302" height="302" xlink:href="achievement-large-4.jpg"  transform="matrix(1 0 0 1 299 352)">
	</image>

		<image style="overflow:visible;" width="152" height="152" xlink:href="achievement-medium-3.jpg"  transform="matrix(1 0 0 1 398 152)">
	</image>

		<image style="overflow:visible;" width="101" height="101" xlink:href="achievement-small-3.jpg"  transform="matrix(1 0 0 1 398.5 3)">
	</image>
</g>
</svg>
