<svg width="179" height="72" viewBox="0 0 179 72" xmlns="http://www.w3.org/2000/svg"><g id="Symbols" stroke="none" stroke-width="1" fill="none" fill-rule="evenodd"><g id="Top-Nav-Experties" transform="translate(-30 -23)" fill-rule="nonzero"><g id="Group" transform="translate(30 23)"><path d="M.054 48.527v-.054c0-5.13 4.058-9.31 9.64-9.31 5.582 0 9.585 4.153 9.585 9.283v.054c0 5.13-4.057 9.31-9.64 9.31-5.582 0-9.585-4.153-9.585-9.283zm15.059 0v-.054c0-3.094-2.26-5.673-5.474-5.673-3.213 0-5.418 2.524-5.418 5.619v.054c0 3.094 2.26 5.673 5.473 5.673s5.419-2.525 5.419-5.619zm6.426-9.066h3.976V46.6h7.324v-7.139h3.976v18.023h-3.976v-7.247h-7.324v7.247h-3.976zm18.326 0h4.275l4.765 7.628 4.765-7.628h4.276v18.023h-3.949v-11.78l-5.092 7.709h-.109l-5.037-7.627v11.698h-3.894V39.461z" id="Shape" fill="#8A1F03"/><path id="Shape" fill="#EEB111" d="M58.16 28.083V.243H30.19zm29.813 29.674V29.89h-27.97zm-.081-29.674V.243h-27.97z"/><path d="M63.115 59.198h1.089l.816 10.089h-.925l-.19-2.94h-3.402l-1.387 2.94h-.926l4.925-10.09zm.762 6.387l-.326-5.68h-.028l-2.666 5.68h3.02zm5.986 2.458h-.027c-.408.877-1.224 1.414-2.068 1.414-1.605 0-2.04-1.329-1.496-3.929.517-2.6 1.523-3.928 3.101-3.928.898 0 1.415.509 1.443 1.3h.027l.762-3.73h.816l-2.068 10.089h-.735l.245-1.216zm-1.823.707c.817 0 1.66-.424 2.231-3.222.545-2.77-.108-3.221-.925-3.221-.816 0-1.66.423-2.23 3.221-.545 2.77.108 3.222.924 3.222zm4.626-6.98h.87l.245 6.528h.028l2.83-6.528h.87l-3.456 7.489h-.925zm5.115 2.232c.327-1.554 1.197-2.402 2.721-2.402 1.497 0 1.878.82 1.633 2.007l-.898 4.436c-.11.424 0 .622.299.622h.218l-.11.622a1.3 1.3 0 0 1-.407.085c-.653 0-1.034-.142-.844-.933l.055-.254h-.028c-.544.989-1.333 1.272-2.122 1.272-1.251 0-1.66-.82-1.388-2.12.218-.99.79-1.78 1.878-2.063l1.632-.452c.6-.17.762-.311.953-1.187.217-.961-.245-1.3-.98-1.3-.98 0-1.523.622-1.741 1.695h-.87v-.028zm3.265 1.046h-.027c-.136.254-.626.424-.98.509l-.707.197c-.87.226-1.388.65-1.578 1.555-.19.876.136 1.47.843 1.47 1.007 0 1.85-.792 2.123-2.12l.326-1.611zm3.157-3.278h.734l-.217 1.045h.027c.571-.82 1.36-1.215 2.095-1.215 1.088 0 1.714.593 1.442 2.007l-1.143 5.652h-.816l1.115-5.426c.218-1.046-.081-1.555-.925-1.555-.952 0-1.768.763-1.986 1.922l-1.034 5.03h-.816l1.524-7.46zm9.332 5.03c-.462 1.583-1.523 2.657-2.83 2.657-1.523 0-2.203-1.103-1.605-3.929.517-2.6 1.687-3.928 3.265-3.928 1.36 0 1.96.848 1.742 2.402h-.817c.164-1.159-.19-1.695-1.06-1.695-.871 0-1.742.565-2.286 3.221-.572 2.826.109 3.194.898 3.194.816 0 1.496-.622 1.877-1.95h.816v.028zm2.285-5.03h.817l-1.55 7.489h-.817l1.55-7.49zm.545-2.572h.816l-.299 1.441h-.816l.3-1.441zm1.905 2.572h.734l-.217 1.045h.027c.599-.82 1.36-1.215 2.095-1.215 1.116 0 1.714.593 1.442 2.007l-1.143 5.652h-.816l1.116-5.426c.217-1.046-.082-1.555-.925-1.555-.953 0-1.742.763-1.987 1.922l-1.034 5.03h-.816l1.524-7.46zm9.768 0h.735l-1.415 6.952c-.436 2.091-1.388 3.137-3.02 3.137-1.415 0-1.987-.763-1.77-1.837h.817c-.163.706.408 1.13 1.143 1.13 1.007 0 1.66-.706 1.932-2.035l.245-1.187h-.028c-.462.905-1.224 1.357-1.959 1.357-1.115 0-2.095-.763-1.442-3.759.517-2.6 1.524-3.928 3.102-3.928.79 0 1.333.48 1.415 1.328h.027l.218-1.158zm-2.993 6.81c.952 0 1.687-.734 2.177-3.137.49-2.402.054-3.136-.898-3.136-.98 0-1.687.734-2.177 3.136-.49 2.403-.082 3.137.898 3.137zm13.605-2.713c-.6 2.29-1.878 3.59-3.62 3.59-1.986 0-2.775-1.583-2.04-5.2.735-3.618 2.177-5.229 4.163-5.229 1.96 0 2.503 1.442 2.177 3.109h-.87c.271-1.385-.191-2.346-1.443-2.346-1.388 0-2.476 1.187-3.156 4.466-.68 3.25-.055 4.465 1.306 4.465 1.224 0 2.15-1.102 2.585-2.826h.898v-.029zm4.163-4.267c1.578 0 2.23 1.328 1.687 3.928-.545 2.6-1.715 3.929-3.32 3.929-1.578 0-2.231-1.3-1.687-3.929.571-2.6 1.741-3.928 3.32-3.928zm-1.443 7.15c.898 0 1.77-.82 2.286-3.222.49-2.402-.054-3.221-.98-3.221-.925 0-1.795.82-2.258 3.221-.517 2.402.027 3.222.952 3.222zm5.17-6.98h.735l-.218 1.045h.027c.545-.82 1.28-1.215 2.096-1.215.87 0 1.306.565 1.251 1.328h.027c.49-.848 1.17-1.328 2.095-1.328 1.007 0 1.551.593 1.28 1.95l-1.17 5.737h-.817l1.143-5.596c.19-.904-.109-1.356-.844-1.356-.816 0-1.632.763-1.85 1.922l-1.034 5.03h-.816l1.143-5.596c.19-.904-.11-1.356-.844-1.356-.816 0-1.632.763-1.85 1.922l-1.034 5.03h-.816l1.496-7.517zm9.333 0h.735l-.218 1.045h.027c.572-.82 1.279-1.215 2.095-1.215.871 0 1.306.565 1.252 1.328h.027c.49-.848 1.17-1.328 2.095-1.328 1.007 0 1.551.593 1.28 1.95l-1.17 5.737h-.817l1.143-5.596c.19-.904-.11-1.356-.844-1.356-.816 0-1.632.763-1.85 1.922l-1.034 5.03h-.816l1.142-5.596c.19-.904-.108-1.356-.843-1.356-.816 0-1.633.763-1.85 1.922l-1.034 5.03h-.816l1.496-7.517zm9.278 0h.817l-1.089 5.284c-.245 1.216.055 1.668.925 1.668.926 0 1.742-.763 1.96-1.922l1.033-5.03h.817l-1.551 7.489h-.735l.218-1.046h-.027c-.572.848-1.36 1.215-2.123 1.215-1.088 0-1.714-.593-1.415-2.006l1.17-5.652zm6.041 0h.735l-.218 1.045h.027c.599-.82 1.36-1.215 2.095-1.215 1.089 0 1.714.593 1.442 2.007l-1.143 5.652h-.816l1.116-5.426c.217-1.046-.11-1.555-.925-1.555-.953 0-1.769.763-1.987 1.922l-1.034 5.03h-.816l1.524-7.46zm6.095 0h.816l-1.55 7.489h-.817l1.55-7.49zm.517-2.572h.816l-.3 1.441h-.816l.3-1.441zm2.068 3.278h-1.007l.163-.706h1.007l.408-2.092h.816l-.408 2.092h1.279l-.163.706h-1.28l-1.115 5.37c-.109.593.082.791.599.791.163 0 .326-.028.544-.085l-.163.707c-.109.056-.327.084-.599.084-1.088 0-1.469-.31-1.251-1.3l1.17-5.567zm3.183-.706h.816l-1.55 7.489h-.817l1.551-7.49zm.544-2.572h.817l-.3 1.441h-.816l.3-1.441zm5.333 7.602c-.435 1.583-1.496 2.657-2.857 2.657-1.523 0-2.204-1.103-1.605-3.929.517-2.6 1.687-3.928 3.292-3.928 1.606 0 2.095 1.13 1.578 3.646l-.054.31h-3.945l-.055.34c-.462 2.176.136 2.826.953 2.826.87 0 1.523-.622 1.904-1.95h.79v.028zm-.408-1.95c.354-1.865-.027-2.543-1.034-2.543-1.007 0-1.66.678-2.068 2.543h3.102zm3.156.707c-.952-.424-1.17-1.018-1.033-1.78.299-1.555 1.36-2.177 2.584-2.177 1.36 0 1.85.707 1.579 2.091l-.055.226h-.816l.054-.226c.218-.989-.163-1.384-.898-1.384-.952 0-1.415.536-1.578 1.271-.109.537-.027.933.735 1.272l1.088.48c.898.368 1.116 1.074.953 1.922-.245 1.272-1.17 2.233-2.694 2.233-1.47 0-2.068-.622-1.714-2.318l.054-.226h.816l-.054.198c-.218 1.102.136 1.668 1.034 1.668.87 0 1.55-.51 1.687-1.357.136-.65-.027-1.074-.68-1.385l-1.062-.508zM177.5 61c.825 0 1.5.65 1.5 1.5s-.675 1.5-1.5 1.5-1.5-.65-1.5-1.5.675-1.5 1.5-1.5zm0 2.775c.7 0 1.225-.55 1.225-1.275 0-.725-.525-1.275-1.225-1.275-.7 0-1.225.55-1.225 1.275 0 .725.525 1.275 1.225 1.275zm-.575-2.15h.675c.425 0 .6.175.6.5s-.2.45-.45.475l.5.775h-.3l-.475-.75h-.3v.75h-.275v-1.75h.025zm.25.775h.275c.25 0 .45 0 .45-.3 0-.225-.2-.275-.375-.275h-.35v.575z" id="Shape" fill="#E87D1D"/></g></g></g></svg>