<svg width="22" height="22" viewBox="0 0 22 22" xmlns="http://www.w3.org/2000/svg"><g id="Navigation:-Dropdowns,-responsive-top-nav-and-footer-" stroke="none" stroke-width="1" fill="none" fill-rule="evenodd"><g id="Top-Nav-Breakpoints" transform="translate(-756 -970)" fill="#E87D1D" fill-rule="nonzero"><g id="Group-Copy" transform="translate(457 960)"><path d="M320.812 30.908l-5.954-5.954a8.996 8.996 0 0 0 2.215-5.918c0-4.982-4.054-9.036-9.037-9.036-4.983 0-9.036 4.054-9.036 9.037 0 4.982 4.053 9.036 9.036 9.036 2.262 0 4.33-.837 5.917-2.215l5.955 5.955a.638.638 0 0 0 .904 0 .64.64 0 0 0 0-.905zM300.28 19.036c0-4.277 3.48-7.757 7.757-7.757 4.278 0 7.758 3.48 7.758 7.757 0 4.278-3.48 7.757-7.758 7.757-4.277 0-7.757-3.48-7.757-7.757z" id="Shape"/></g></g></g></svg>