<?xml version="1.0" encoding="utf-8"?>
<!-- Generator: Adobe Illustrator 22.1.0, SVG Export Plug-In . SVG Version: 6.00 Build 0)  -->
<svg version="1.1" id="Layer_2" xmlns="http://www.w3.org/2000/svg" xmlns:xlink="http://www.w3.org/1999/xlink" x="0px" y="0px"
	 viewBox="0 0 96 96" style="enable-background:new 0 0 96 96;" xml:space="preserve">
<style type="text/css">
	.st0{fill:#0071ad;}
</style>
<path id="a_1_" class="st0" d="M34.3,82.5c-1.3,4.5-5.5,7.9-10.4,7.9s-9.1-3.3-10.4-7.9H0.2v-5.9h13.2c1.3-4.5,5.5-7.9,10.4-7.9
	S33,72,34.3,76.5h60.5v5.9H34.3z M81.5,51c-1.3,4.5-5.5,7.9-10.4,7.9S62,55.5,60.7,51H0.2V45h60.5c1.3-4.5,5.5-7.9,10.4-7.9
	s9.1,3.3,10.4,7.9h13.2V51H81.5z M50,19.5c-1.3,4.5-5.5,7.9-10.4,7.9s-9.1-3.3-10.4-7.9h-29v-5.9h29c1.3-4.5,5.5-7.9,10.4-7.9
	S48.8,9,50,13.5h44.7v5.9H50z M39.6,21.4c2.7,0,4.9-2.2,4.9-4.9s-2.2-4.9-4.9-4.9s-4.9,2.2-4.9,4.9S36.9,21.4,39.6,21.4z M71.1,52.9
	c2.7,0,4.9-2.2,4.9-4.9c0-2.7-2.2-4.9-4.9-4.9s-4.9,2.2-4.9,4.9C66.2,50.7,68.4,52.9,71.1,52.9z M23.9,84.4c2.7,0,4.9-2.2,4.9-4.9
	s-2.2-4.9-4.9-4.9S19,76.8,19,79.5S21.2,84.4,23.9,84.4z"/>
</svg>
