<?xml version="1.0" encoding="UTF-8"?>
<svg width="26px" height="22px" viewBox="0 0 26 22" version="1.1" xmlns="http://www.w3.org/2000/svg" xmlns:xlink="http://www.w3.org/1999/xlink">
    <!-- Generator: Sketch 62 (91390) - https://sketch.com -->
    <title>Combined Shape</title>
    <desc>Created with Sketch.</desc>
    <defs>
        <path d="M13,0.0427631579 L15.4731579,1.89776316 L15.4736842,0.684210526 L20.6036842,0.684210526 L20.6031579,5.74576316 L25.4868421,9.40789474 L22.4071579,9.40776316 L22.4078947,21.7236842 L3.59210526,21.7236842 L3.59115789,9.40776316 L0.513157895,9.40789474 L13,0.0427631579 Z M21.3815789,9.40789474 L4.61842105,9.40789474 L4.61842105,20.6973684 L10.4341579,20.6967632 L10.4342105,16.5921053 L15.5657895,16.5921053 L15.5651579,20.6967632 L21.3815789,20.6973684 L21.3815789,9.40789474 Z M14.5394737,17.6184211 L11.4605263,17.6184211 L11.4601579,20.6967632 L14.5391579,20.6967632 L14.5394737,17.6184211 Z M8.03947368,15.9078947 L8.03947368,18.4628186 L7.01315789,18.4628186 L7.01315789,15.9078947 L8.03947368,15.9078947 Z M18.9868421,15.9078947 L18.9868421,18.4628186 L17.9605263,18.4628186 L17.9605263,15.9078947 L18.9868421,15.9078947 Z M13,1.326 L3.59210526,8.38157895 L22.4072105,8.38157895 L13,1.326 Z M19.5776842,1.71052632 L16.4996842,1.71052632 L16.4996842,2.63394326 L16.4541579,2.63376316 L19.5771579,4.97576316 L19.5776842,1.71052632 Z" id="path-1"></path>
    </defs>
    <g id="Symbols" stroke="none" stroke-width="1" fill="none" fill-rule="evenodd">
        <g id="navigation/L-Copy-25" transform="translate(-488.000000, -168.000000)">
            <g id="icons/interactive/32px/building" transform="translate(488.000000, 168.000000)">
                <mask id="mask-2" fill="white">
                    <use xlink:href="#path-1"></use>
                </mask>
                <use id="Combined-Shape" fill="#052049" fill-rule="nonzero" xlink:href="#path-1"></use>
            </g>
        </g>
    </g>
</svg>