<?xml version="1.0" encoding="utf-8"?>
<!-- Generator: Adobe Illustrator 22.1.0, SVG Export Plug-In . SVG Version: 6.00 Build 0)  -->
<svg version="1.1" id="Layer_1" xmlns="http://www.w3.org/2000/svg" xmlns:xlink="http://www.w3.org/1999/xlink" x="0px" y="0px"
	 viewBox="0 0 48 48" style="enable-background:new 0 0 48 48;" xml:space="preserve">
<style type="text/css">
	.st0{fill:#0071ad;}
</style>
<path id="a_1_" class="st0" d="M30.8,8.1H15.9v31.7h15.4c4,0,7.2-3.3,7.2-7.4V15.9h-7.8V8.1z M32.7,9.5V14h4.5L32.7,9.5z M15.9,41.8
	h-1c-4.1,0-7.4-3.3-7.4-7.4V23.5H14V6.2h18.2l8.3,8.3v17.9c0,5.1-4.1,9.3-9.2,9.3H15.9z M14,25.4H9.4v8.9c0,2.7,2,5,4.5,5.4V25.4z
	 M27.6,11.4v8.4h-8.4v-8.4H27.6z M21.1,13.3v4.5h4.5v-4.5H21.1z M19.1,31.8v-1.9h16.2v1.9H19.1z M19.1,26.3v-1.9h16.2v1.9H19.1z"/>
</svg>
