<svg xmlns="http://www.w3.org/2000/svg" viewBox="0 0 597.57 96.4"><g id="Layer_2" data-name="Layer 2"><g id="UCSF_Magazine_Logo" data-name="UCSF Magazine Logo"><path d="M200.15,42.26V30.2H154.29V74.63c-.25-5.21-2.15-9.25-5.75-12.09q-3.73-2.94-11.21-4.7L126,55.16c-4.39-1-7.26-1.92-8.61-2.69a5.83,5.83,0,0,1-2.63-2.64h0a0,0,0,0,0,0,0h0a6.21,6.21,0,0,1-.53-2.53,6.57,6.57,0,0,1,2.09-5h0l.09-.08h0a9.19,9.19,0,0,1,1-.79A15.44,15.44,0,0,1,126,39.28,17.88,17.88,0,0,1,134,40.91a9.28,9.28,0,0,1,5.23,8.31h13q-.36-10.33-7.68-15.76T126.9,28q-12.42,0-18.83,5.76a18.77,18.77,0,0,0-5.46,8.2h0a18,18,0,0,0-.54,2.07h0c-1.58,7.47-6.39,12.55-14.44,12.55-12.89,0-17.73-11-17.73-21.83,0-11.42,4.84-22.38,17.73-22.38,7.12,0,13.34,4.93,14.25,11.41h13.88C114,8.73,102,.33,87.62.33,68.36.33,56.68,14,55.64,32.1V1.88H41.29V42.44c0,9.68-3.29,14.16-13.52,14.16-11.6,0-13.43-7-13.43-14.16V1.88H0V42.44C0,60.16,10.23,68.66,27.77,68.66s27.87-8.59,27.87-26.22V37.36c1,17.59,12.72,31.3,32,31.3,7.91,0,14.66-2.55,19.63-7.1q.47.38,1,.72,3.87,2.68,14.22,5l7,1.54a30.87,30.87,0,0,1,9,3,5.55,5.55,0,0,1,2.84,5q0,5.5-5.79,7.52a25,25,0,0,1-8,1.06q-8.17,0-11.54-4a13.07,13.07,0,0,1-2.47-6.64H100.6q0,10.13,7.34,15.9t20.13,5.78q12.54,0,19.4-5.87a18.54,18.54,0,0,0,6.82-13.35V95.43h14.34V68.48H196V57.33H168.63V42.26Z" fill="#FFFFFF"/><path d="M465.72,40.69V29.2H413.61V41.44h32.73L414.52,79.49,395.72,29.2H356.28V40.37h14.11c-.85,9.31-5.65,17.51-15.24,17.51-13.24,0-18.22-11.28-18.22-22.46,0-11.74,5-23,18.22-23,6.62,0,12,3.5,13.91,10.23H383.3C381.23,8.07,368.55,0,355.15,0c-20.76,0-33,15.5-33,35.42a44,44,0,0,0,.56,7.06L307.45,1.6H292.33l-20,52.72V1.6H251.55L236.71,47.73h-.19L220.83,1.6H200.06V68.68h13.81V21.61h.19L230.5,68.68h11.37l16.44-47.54h.19V68.68h23.3l5.26-14.94h25.09l5.07,14.94h15.32l-4.72-12.61c5.52,8.63,14.89,14.21,27.33,14.21a22.67,22.67,0,0,0,11.1-2.83l-10.61,28H370.4l5.19-14.74h24.76l5,14.74h61.29V83.16H430.21Zm-174.8,2.06,8.73-24.62h.19l8.46,24.62ZM379.4,69.81,388,45.52h.19l8.34,24.29Z" fill="#007cbe"/><rect x="469.7" y="29.2" width="14.56" height="66.21" fill="#007cbe"/><polygon points="530.07 73.61 529.88 73.61 502.25 29.2 487.79 29.2 487.79 95.4 501.42 95.4 501.42 51.08 501.6 51.08 529.14 95.4 543.7 95.4 543.7 29.2 530.07 29.2 530.07 73.61" fill="#007cbe"/><polygon points="561.87 83.16 561.87 66.94 593.95 66.94 593.95 55.62 561.87 55.62 561.87 41.44 596.83 41.44 596.83 29.2 547.31 29.2 547.31 95.4 597.57 95.4 597.57 83.16 561.87 83.16" fill="#007cbe"/></g></g></svg>