<?xml version="1.0" encoding="utf-8"?>
<!-- Generator: Adobe Illustrator 25.0.0, SVG Export Plug-In . SVG Version: 6.00 Build 0)  -->
<svg version="1.1" id="Layer_1" xmlns="http://www.w3.org/2000/svg" xmlns:xlink="http://www.w3.org/1999/xlink" x="0px" y="0px"
	 viewBox="0 0 604 104" style="enable-background:new 0 0 604 104;" xml:space="preserve">
<style type="text/css">
	.st0{fill:#007CBE;}
	.st1{fill:#052049;}
</style>
<g>
	<path class="st0" d="M469.4,44.5V33h-52.1v12.2H450l-31.8,38L399.4,33H360v11.2h14.1c-0.9,9.3-5.6,17.5-15.2,17.5
		c-13.2,0-18.2-11.3-18.2-22.5c0-11.7,5-23,18.2-23c6.6,0,12,3.5,13.9,10.2H387c-2.1-14.6-14.8-22.6-28.1-22.6
		c-20.8,0-33,15.5-33,35.4c0,2.4,0.2,4.7,0.6,7.1L311.2,5.4h-15.1l-20,52.7V5.4h-20.8l-14.8,46.1h-0.2L224.5,5.4h-20.8v67.1h13.8
		V25.4h0.2l16.4,47.1h11.4L261.9,25h0.2v47.5h23.4l5.3-14.9h25.1l5.1,14.9h15.3l-4.8-12.6c5.5,8.6,14.9,14.2,27.3,14.2
		c3.9,0,7.7-1,11.1-2.8l-10.6,28h14.8l5.2-14.7h24.8l5,14.7h61.3V87H434L469.4,44.5z M294.6,46.5l8.7-24.6h0.2l8.5,24.6H294.6z
		 M383.1,73.6l8.6-24.3h0.2l8.3,24.3H383.1z"/>
	<rect x="473.4" y="33" class="st0" width="14.6" height="66.2"/>
	<polygon class="st0" points="533.8,77.4 533.6,77.4 506,33 491.5,33 491.5,99.2 505.1,99.2 505.1,54.9 505.3,54.9 532.9,99.2
		547.4,99.2 547.4,33 533.8,33 	"/>
	<polygon class="st0" points="565.6,87 565.6,70.7 597.7,70.7 597.7,59.4 565.6,59.4 565.6,45.2 600.5,45.2 600.5,33 551,33
		551,99.2 601.3,99.2 601.3,87 	"/>
	<g>
		<g>
			<g>
				<path class="st1" d="M203.7,45.9V33.8h-46v44.6c-0.2-5.2-2.2-9.3-5.8-12.1c-2.5-2-6.2-3.5-11.3-4.7l-11.4-2.7
					c-4.4-1-7.3-1.9-8.6-2.7c-1.2-0.7-2.1-1.6-2.6-2.6l0,0l0,0l0,0c-0.3-0.7-0.5-1.6-0.5-2.5c0-2,0.7-3.7,2.1-5l0,0l0.1-0.1l0,0l0,0
					c0.3-0.3,0.6-0.5,1-0.8c2.1-1.4,5-2.1,8.6-2.1c3.2,0,5.9,0.5,8.1,1.6c3.3,1.6,5,4.4,5.2,8.3h13.1c-0.2-6.9-2.8-12.2-7.7-15.8
					s-10.8-5.5-17.8-5.5c-8.3,0-14.6,1.9-18.9,5.8c-2.6,2.4-4.5,5.1-5.5,8.2l0,0c-0.2,0.7-0.4,1.4-0.5,2.1l0,0
					c-1.6,7.5-6.4,12.6-14.5,12.6c-12.9,0-17.8-11-17.8-21.9C73,27,77.9,16,90.8,16c7.1,0,13.4,4.9,14.3,11.5H119
					c-1.7-15.1-13.8-23.6-28.2-23.6c-19.3,0-31.1,13.8-32.1,31.9V5.4H44.2v40.7c0,9.7-3.3,14.2-13.6,14.2
					c-11.6,0-13.5-7.1-13.5-14.2V5.4H2.8v40.7c0,17.8,10.3,26.3,27.9,26.3c17.5,0,28-8.6,28-26.3V41c1,17.7,12.8,31.4,32.1,31.4
					c7.9,0,14.7-2.6,19.7-7.1c0.3,0.2,0.6,0.5,1,0.7c2.6,1.8,7.3,3.5,14.3,5l7,1.5c4.1,0.9,7.1,1.9,9,3c1.9,1.2,2.8,2.8,2.8,5
					c0,3.7-1.9,6.2-5.8,7.5c-2,0.7-4.7,1.1-8,1.1c-5.5,0-9.3-1.3-11.6-4c-1.2-1.5-2.1-3.7-2.5-6.7h-13c0,6.8,2.5,12.1,7.4,16
					s11.6,5.8,20.2,5.8c8.4,0,14.9-2,19.5-5.9c4.2-3.6,6.5-8.1,6.8-13.4v18.3H172v-27h27.4V61H172V45.9H203.7z"/>
			</g>
		</g>
	</g>
</g>
</svg>
