<?xml version="1.0" encoding="utf-8"?>
<!-- Generator: Adobe Illustrator 22.1.0, SVG Export Plug-In . SVG Version: 6.00 Build 0)  -->
<svg version="1.1" id="Layer_1" xmlns="http://www.w3.org/2000/svg" xmlns:xlink="http://www.w3.org/1999/xlink" x="0px" y="0px"
	 viewBox="0 0 48 48" style="enable-background:new 0 0 48 48;" xml:space="preserve">
<style type="text/css">
	.st0{fill:#000000;}
</style>
<path id="a_1_" class="st0" d="M30.9,21.9v5.5c1.2,1.5,1.9,3.4,1.9,5.4c0,4.8-4,8.7-8.9,8.7S15,37.6,15,32.8c0-2.1,0.8-4.1,2.2-5.7
	V22L5,6.5h8.7L24,20.4L34.3,6.5H43L30.9,21.9z M18.7,25.7c1.5-1.1,3.3-1.6,5.2-1.6c2.1,0,4,0.7,5.5,1.8v-3H18.7
	C18.7,22.9,18.7,25.7,18.7,25.7z M23.9,40c4.1,0,7.4-3.2,7.4-7.2s-3.3-7.2-7.4-7.2s-7.4,3.2-7.4,7.2S19.8,40,23.9,40z M23.8,38
	c-3,0-5.5-2.4-5.5-5.4s2.5-5.4,5.5-5.4s5.5,2.4,5.5,5.4C29.3,35.6,26.8,38,23.8,38z M23.8,36.5c2.2,0,4-1.7,4-3.9
	c0-2.2-1.8-3.9-4-3.9c-2.2,0-4,1.7-4,3.9C19.8,34.8,21.6,36.5,23.8,36.5z M22.7,21.1L12.9,8H8.1l10.4,13.1H22.7z M25.3,21.1h4.2
	L39.9,8h-4.8L25.3,21.1z"/>
</svg>
