<?xml version="1.0" encoding="utf-8"?>
<!-- Generator: Adobe Illustrator 22.1.0, SVG Export Plug-In . SVG Version: 6.00 Build 0)  -->
<svg version="1.1" id="campus" xmlns="http://www.w3.org/2000/svg" xmlns:xlink="http://www.w3.org/1999/xlink" x="0px" y="0px"
	 viewBox="0 0 48 48" style="enable-background:new 0 0 48 48;" xml:space="preserve">
<style type="text/css">
	.st0{fill:#007CBE;}
</style>
<path class="st0" d="M42.3,37.6h-1.2v-3c0-1-0.8-1.8-1.8-1.8h-3V19.3h-2.4v13.4h-4.9V19.3h-2.4v13.4h-4.9V19.3h-2.4v13.4h-4.9V19.3
	h-2.4v13.4h-3c-1,0-1.8,0.8-1.8,1.8v3H5.7c-0.7,0-1.2,0.5-1.2,1.2v0.6c0,0.3,0.3,0.6,0.6,0.6h37.8c0.3,0,0.6-0.3,0.6-0.6v-0.6
	C43.5,38.2,43,37.6,42.3,37.6z M9.4,35.2h29.2v2.4H9.4V35.2z M42.9,13.9L25.2,6.1c-0.8-0.3-1.6-0.3-2.3,0L5.1,13.9
	c-0.4,0.1-0.6,0.5-0.6,0.9v0.7c0,0.5,0.4,0.9,0.9,0.9h1.5v0.9c0,0.5,0.4,0.9,0.9,0.9h32.3c0.5,0,0.9-0.4,0.9-0.9v-0.9h1.5
	c0.5,0,0.9-0.4,0.9-0.9v-0.7C43.5,14.3,43.3,14,42.9,13.9z M38.6,15.7H9.4v-1l14.3-6.2c0.2-0.1,0.4-0.1,0.6,0l14.3,6.2V15.7z"/>
</svg>
