<svg version="1.1" id="campus" xmlns="http://www.w3.org/2000/svg" x="0" y="0" viewBox="0 0 48 48" xml:space="preserve"><path d="M42.3 37.6h-1.2v-3c0-1-.8-1.8-1.8-1.8h-3V19.3h-2.4v13.4H29V19.3h-2.4v13.4h-4.9V19.3h-2.4v13.4h-4.9V19.3H12v13.4H9c-1 0-1.8.8-1.8 1.8v3H5.7c-.7 0-1.2.5-1.2 1.2v.6c0 .3.3.6.6.6h37.8c.3 0 .6-.3.6-.6v-.6c0-.5-.5-1.1-1.2-1.1zM9.4 35.2h29.2v2.4H9.4v-2.4zm33.5-21.3L25.2 6.1c-.8-.3-1.6-.3-2.3 0L5.1 13.9c-.4.1-.6.5-.6.9v.7c0 .5.4.9.9.9h1.5v.9c0 .5.4.9.9.9h32.3c.5 0 .9-.4.9-.9v-.9h1.5c.5 0 .9-.4.9-.9v-.7c.1-.5-.1-.8-.5-.9zm-4.3 1.8H9.4v-1l14.3-6.2c.2-.1.4-.1.6 0l14.3 6.2v1z" fill="#000000"/></svg>
