<?xml version="1.0" encoding="utf-8"?>
<!-- Generator: Adobe Illustrator 22.1.0, SVG Export Plug-In . SVG Version: 6.00 Build 0)  -->
<svg version="1.1" id="Layer_1" xmlns="http://www.w3.org/2000/svg" xmlns:xlink="http://www.w3.org/1999/xlink" x="0px" y="0px"
	 viewBox="0 0 48 48" style="enable-background:new 0 0 48 48;" xml:space="preserve">
<style type="text/css">
	.st0{filter:url(#Adobe_OpacityMaskFilter);}
	.st1{fill:#FFFFFF;}
	.st2{opacity:0.4;mask:url(#b_1_);fill:#052049;enable-background:new    ;}
	.st3{filter:url(#Adobe_OpacityMaskFilter_1_);}
	.st4{mask:url(#d_1_);fill:#000000;}
</style>
<g transform="translate(4.5 4)">
	<defs>
		<filter id="Adobe_OpacityMaskFilter" filterUnits="userSpaceOnUse" x="-4.5" y="-4" width="48" height="48">
			<feColorMatrix  type="matrix" values="1 0 0 0 0  0 1 0 0 0  0 0 1 0 0  0 0 0 1 0"/>
		</filter>
	</defs>
	<mask maskUnits="userSpaceOnUse" x="-4.5" y="-4" width="48" height="48" id="b_1_">
		<g class="st0">
			<path id="a_1_" class="st1" d="M4,2.6L2.6,4.4C13,12.3,18.2,20,18.2,27.5v10h2.2v-10C20.4,19.2,14.9,10.9,4,2.6z"/>
		</g>
	</mask>
	<rect x="-4.5" y="-4" class="st2" width="48" height="48"/>
	<defs>
		<filter id="Adobe_OpacityMaskFilter_1_" filterUnits="userSpaceOnUse" x="-4.5" y="-4" width="48" height="48">
			<feColorMatrix  type="matrix" values="1 0 0 0 0  0 1 0 0 0  0 0 1 0 0  0 0 0 1 0"/>
		</filter>
	</defs>
	<mask maskUnits="userSpaceOnUse" x="-4.5" y="-4" width="48" height="48" id="d_1_">
		<g class="st3">
			<path id="c_1_" class="st1" d="M32,4.7H18V2.4h18.1v18.1h-2.2V6c-9,7.3-13.5,14.5-13.5,21.5v10h-2.2v-10
				C18.1,19.9,22.8,12.3,32,4.7z"/>
		</g>
	</mask>
	<rect x="-4.5" y="-4" class="st4" width="48" height="48"/>
</g>
</svg>
