<?xml version="1.0" encoding="utf-8"?>
<!-- Generator: Adobe Illustrator 22.1.0, SVG Export Plug-In . SVG Version: 6.00 Build 0)  -->
<svg version="1.1" id="education" xmlns="http://www.w3.org/2000/svg" xmlns:xlink="http://www.w3.org/1999/xlink" x="0px" y="0px"
	 viewBox="0 0 48 48" style="enable-background:new 0 0 48 48;" xml:space="preserve">
<style type="text/css">
	.st0{fill:#FFFFFF;}
</style>
<path class="st0" d="M38.6,8.6L38.6,8.6c-1.6,0-9.3,0.6-14.1,3.1c-0.3,0.1-0.7,0.1-0.9,0C18.7,9.2,11,8.6,9.4,8.6h0
	c-2.2,0-3.9,1.7-3.9,3.8v19.1c0,2,1.6,3.7,3.7,3.8c2.2,0.1,7.8,0.5,11.7,2c0.3,0.1,0.7,0.2,1,0.2h4.1c0.4,0,0.7-0.1,1-0.2
	c3.8-1.4,9.5-1.8,11.7-2c2.1-0.1,3.7-1.8,3.7-3.8V12.4C42.5,10.3,40.7,8.6,38.6,8.6z M23,34.4c0,0.6-0.5,1-1,1c-0.1,0-0.2,0-0.3-0.1
	c-4-1.5-9.6-1.9-12.3-2.1c-1,0-1.8-0.8-1.8-1.7V12.4c0-1,0.8-1.7,1.9-1.7c1.2,0,7.9,0.5,12.3,2.5c0.7,0.3,1.2,1,1.2,1.8l0,6.4V34.4z
	 M40.4,31.5c0,0.9-0.8,1.7-1.8,1.7c-2.8,0.1-8.3,0.6-12.3,2.1c-0.1,0-0.2,0.1-0.3,0.1c-0.5,0-1-0.4-1-1v-13l0-6.4
	c0-0.8,0.5-1.5,1.2-1.8c4.5-2,11.1-2.5,12.3-2.5c1,0,1.9,0.8,1.9,1.7L40.4,31.5L40.4,31.5z"/>
</svg>
