<?xml version="1.0" encoding="utf-8"?>
<!-- Generator: Adobe Illustrator 22.1.0, SVG Export Plug-In . SVG Version: 6.00 Build 0)  -->
<svg version="1.1" id="Layer_1" xmlns="http://www.w3.org/2000/svg" xmlns:xlink="http://www.w3.org/1999/xlink" x="0px" y="0px"
	 viewBox="0 0 32 32" style="enable-background:new 0 0 32 32;" xml:space="preserve">
<style type="text/css">
	.st0{fill:#006BE9;}
</style>
<path id="a_1_" class="st0" d="M12.6,24.8c-0.3,1.2-1.4,2-2.6,2s-2.3-0.8-2.6-2H4v-1.5h3.4c0.3-1.2,1.4-2,2.6-2s2.3,0.8,2.6,2H28
	v1.5H12.6z M24.6,16.8c-0.3,1.2-1.4,2-2.6,2s-2.3-0.8-2.6-2H4v-1.5h15.4c0.3-1.2,1.4-2,2.6-2s2.3,0.8,2.6,2H28v1.5H24.6z M16.6,8.8
	c-0.3,1.2-1.4,2-2.6,2s-2.3-0.8-2.6-2H4V7.2h7.4c0.3-1.2,1.4-2,2.6-2s2.3,0.8,2.6,2H28v1.5H16.6z M14,9.2c0.7,0,1.2-0.6,1.2-1.2
	S14.7,6.8,14,6.8S12.8,7.3,12.8,8S13.3,9.2,14,9.2z M22,17.2c0.7,0,1.2-0.6,1.2-1.2c0-0.7-0.6-1.2-1.2-1.2s-1.2,0.6-1.2,1.2
	C20.8,16.7,21.3,17.2,22,17.2z M10,25.2c0.7,0,1.2-0.6,1.2-1.2s-0.6-1.2-1.2-1.2S8.8,23.3,8.8,24S9.3,25.2,10,25.2z"/>
</svg>
