<?xml version="1.0" encoding="utf-8"?>
<!-- Generator: Adobe Illustrator 22.1.0, SVG Export Plug-In . SVG Version: 6.00 Build 0)  -->
<svg version="1.1" id="Layer_1" xmlns="http://www.w3.org/2000/svg" xmlns:xlink="http://www.w3.org/1999/xlink" x="0px" y="0px"
	 viewBox="0 0 48 48" style="enable-background:new 0 0 48 48;" xml:space="preserve">
<style type="text/css">
	.st0{fill:#000000;}
</style>
<path id="a_1_" class="st0" d="M39.7,17.4c0-4.8-3.1-7.6-7.7-7.6c-4,0-6.8,3.2-6.8,7.6l-2.3,0c0-4.2-3.1-7.6-7.1-7.6
	c-4.5,0-7.4,2.7-7.4,7.6c0,8.6,8.5,17.4,15.7,20.7C31.2,34.8,39.7,26,39.7,17.4z M32,7.5c5.8,0,10,3.8,10,9.9
	c0,9.9-9.5,19.6-17.6,23L24,40.5l-0.4-0.2C15.5,37,6,27.3,6,17.4c0-6.1,4-9.9,9.7-9.9c3.6,0,6.7,2,8.3,5C25.5,9.5,28.4,7.5,32,7.5z"
	/>
</svg>
