<?xml version="1.0" encoding="utf-8"?>
<!-- Generator: Adobe Illustrator 22.1.0, SVG Export Plug-In . SVG Version: 6.00 Build 0)  -->
<svg version="1.1" id="hosptial" xmlns="http://www.w3.org/2000/svg" xmlns:xlink="http://www.w3.org/1999/xlink" x="0px" y="0px"
	 viewBox="0 0 48 48" style="enable-background:new 0 0 48 48;" xml:space="preserve">
<style type="text/css">
	.st0{fill:#006BE9;}
</style>
<path class="st0" d="M20.5,30.7h-3.2c-0.5,0-1-0.4-1-1v-3.2c0-0.5,0.4-1,1-1h3.2c0.5,0,1,0.4,1,1v3.2C21.4,30.3,21,30.7,20.5,30.7z
	 M27.5,30.7h3.2c0.5,0,1-0.4,1-1v-3.2c0-0.5-0.4-1-1-1h-3.2c-0.5,0-1,0.4-1,1v3.2C26.6,30.3,27,30.7,27.5,30.7z M17.2,23h3.2
	c0.5,0,1-0.4,1-1v-3.2c0-0.5-0.4-1-1-1h-3.2c-0.5,0-1,0.4-1,1V22C16.3,22.6,16.7,23,17.2,23z M27.5,23h3.2c0.5,0,1-0.4,1-1v-3.2
	c0-0.5-0.4-1-1-1h-3.2c-0.5,0-1,0.4-1,1V22C26.6,22.6,27,23,27.5,23z M42,43.6H6V42c0-0.5,0.4-1,1-1h1.6V9.3c0-0.9,0.9-1.7,1.9-1.7
	h7.1V4.4c0-1.1,0.9-1.9,1.9-1.9h9c1.1,0,1.9,0.9,1.9,1.9v3.2h7.1c1.1,0,1.9,0.8,1.9,1.7V41H41c0.5,0,1,0.4,1,1V43.6z M11.1,41h10.3
	v-6.8c0-0.5,0.4-1,1-1h3.2c0.5,0,1,0.4,1,1V41h10.3V10.1h-6.4v3.2c0,1.1-0.9,1.9-1.9,1.9h-9c-1.1,0-1.9-0.9-1.9-1.9v-3.2h-6.4V41z
	 M27.4,7.6h-2.1V5.5c0-0.3-0.2-0.5-0.5-0.5h-1.6c-0.3,0-0.5,0.2-0.5,0.5v2.1h-2.1c-0.3,0-0.5,0.2-0.5,0.5v1.6c0,0.3,0.2,0.5,0.5,0.5
	h2.1v2.1c0,0.3,0.2,0.5,0.5,0.5h1.6c0.3,0,0.5-0.2,0.5-0.5v-2.1h2.1c0.3,0,0.5-0.2,0.5-0.5V8.1C27.9,7.8,27.6,7.6,27.4,7.6z"/>
</svg>
