<?xml version="1.0" encoding="utf-8"?>
<!-- Generator: Adobe Illustrator 22.1.0, SVG Export Plug-In . SVG Version: 6.00 Build 0)  -->
<svg version="1.1" id="Layer_1" xmlns="http://www.w3.org/2000/svg" xmlns:xlink="http://www.w3.org/1999/xlink" x="0px" y="0px"
	 viewBox="0 0 48 48" style="enable-background:new 0 0 48 48;" xml:space="preserve">
<style type="text/css">
	.st0{fill:#006BE9;}
</style>
<path id="a_1_" class="st0" d="M7.2,33.2l-0.4-0.4l0.5-0.5l5-4.8c1.9-1.7,3.7-2.6,5.4-2.8c1.7-0.2,3.8,0.2,6.3,1.2h5.8l0.1,0
	c0.6,0.1,1.1,0.3,1.5,0.7c0.6-0.6,1.5-1.3,5-4.6c1.4-1,2.8-0.9,3.9,0.3c1,1.2,1.2,2.5,0.3,3.8l-0.1,0.1l-10.3,9.9H18.1l-5.1,4
	L7.2,33.2L7.2,33.2z M8.8,32.9l4.3,5.2l4.4-3.4h12.1l9.8-9.5c0.4-0.7,0.4-1.3-0.2-2c-0.6-0.6-1.1-0.7-1.8-0.1l-5.2,4.8
	c0,0.2,0.1,0.5,0.1,0.7c0,1.5-0.7,2.5-2.1,2.6h-9v-1.5h0.8l8.2,0c0.5,0,0.7-0.3,0.7-1.1c0-0.8-0.3-1.2-1-1.3h-6l-0.1-0.1
	c-2.4-1-4.3-1.4-5.7-1.2c-1.4,0.2-2.9,1-4.6,2.5L8.8,32.9z M24.3,22c-3.6,0-6.5-2.9-6.5-6.5S20.7,9,24.3,9s6.5,2.9,6.5,6.5
	S27.9,22,24.3,22z M24.3,20.5c2.8,0,5-2.2,5-5s-2.2-5-5-5s-5,2.2-5,5S21.5,20.5,24.3,20.5z"/>
</svg>
