<?xml version="1.0" encoding="utf-8"?>
<!-- Generator: Adobe Illustrator 22.1.0, SVG Export Plug-In . SVG Version: 6.00 Build 0)  -->
<svg version="1.1" id="patient_care" xmlns="http://www.w3.org/2000/svg" xmlns:xlink="http://www.w3.org/1999/xlink" x="0px"
	 y="0px" viewBox="0 0 48 48" style="enable-background:new 0 0 48 48;" xml:space="preserve">
<style type="text/css">
	.st0{fill:#16A0AC;}
</style>
<path class="st0" d="M39.3,10c-3.3-3.2-6.8-3.2-7.7-3.2s-4.4,0-7.7,3.2c-3.2-3.2-6.8-3.2-7.7-3.2c-0.9,0-4.4,0-7.7,3.2
	c-2,2-3.1,4.6-3.1,7.5c0,2.5,0.9,4.8,2.4,6.7h8.7l2.2-5.2l4.1,9.1c0.4,0.9,1.7,0.9,2.1,0l3.6-7.2l1.6,3.2H40
	c1.6-1.9,2.4-4.2,2.4-6.7C42.5,14.7,41.3,12,39.3,10L39.3,10z M38.9,21.9h-7.3l-2-4c-0.4-0.9-1.6-0.9-2.1,0L24,24.9l-4.2-9.3
	c-0.4-0.9-1.7-0.9-2.1,0l-2.6,6.2H9c-0.7-1.1-3.1-6,1.3-10.3c1.6-1.6,3.8-2.4,5.9-2.4c2.5,0,3.9,0.5,7.7,4.1c4-3.9,5.4-4.1,7.7-4.1
	c2.1,0,4.3,0.8,5.9,2.4C42,15.9,39.5,20.8,38.9,21.9L38.9,21.9z M24.9,36.6c-0.4,0.4-1.2,0.4-1.6,0l-9.9-10.1h-3.2l11.6,11.7
	c1.4,1.3,3.5,1.3,4.9,0l11.3-11.7h-3.2L24.9,36.6z"/>
</svg>
