<?xml version="1.0" encoding="utf-8"?>
<!-- Generator: Adobe Illustrator 22.1.0, SVG Export Plug-In . SVG Version: 6.00 Build 0)  -->
<svg version="1.1" id="Layer_1" xmlns="http://www.w3.org/2000/svg" xmlns:xlink="http://www.w3.org/1999/xlink" x="0px" y="0px"
	 viewBox="0 0 48 48" style="enable-background:new 0 0 48 48;" xml:space="preserve">
<style type="text/css">
	.st0{fill:#006BE9;}
</style>
<path id="a_1_" class="st0" d="M22.9,10.4v1.7h-1.7V7.3h1.7v1.4h3c1.5,0,2.4,0.9,2.3,2.4l-2.9,17.4c-0.2,1-1.4,2.1-2.3,2.1h-5v7
	h17.2v-5.7c-2.5-0.4-4.3-2.5-4.3-5.1c0-2.9,2.3-5.2,5.2-5.2s5.2,2.3,5.2,5.2c0,2.6-1.9,4.7-4.3,5.1v6.5c0,0.5-0.4,0.8-0.8,0.8H17.1
	c-0.5,0-0.8-0.4-0.8-0.8v-7.9h-5c-1,0-2.2-1.1-2.3-2.1L6.2,11.1C6,9.7,7,8.7,8.4,8.7h3.1V7.3h1.7v4.8h-1.7v-1.7H8.4
	c-0.5,0-0.7,0.1-0.6,0.5l2.9,17.5c0,0.2,0.5,0.7,0.6,0.7h11.6c0,0,0.6-0.5,0.6-0.8l2.9-17.3c0-0.4-0.1-0.5-0.6-0.5H22.9z M36,30.5
	c1.9,0,3.5-1.6,3.5-3.5s-1.6-3.5-3.5-3.5S32.5,25,32.5,27S34,30.5,36,30.5z"/>
</svg>
