<?xml version="1.0" encoding="utf-8"?>
<!-- Generator: Adobe Illustrator 22.1.0, SVG Export Plug-In . SVG Version: 6.00 Build 0)  -->
<svg version="1.1" id="Layer_1" xmlns="http://www.w3.org/2000/svg" xmlns:xlink="http://www.w3.org/1999/xlink" x="0px" y="0px"
	 viewBox="0 0 48 48" style="enable-background:new 0 0 48 48;" xml:space="preserve">
<style type="text/css">
	.st0{fill:#006BE9;}
</style>
<path id="a_1_" class="st0" d="M30.1,12.2c0-1.8-1.2-2.9-2.9-2.9c-1.5,0-2.6,1.2-2.6,2.9h-1.5c0-1.6-1.2-2.9-2.7-2.9
	c-1.7,0-2.8,1-2.8,2.9c0,3.4,3.4,6.9,6.2,8.3C26.7,19.2,30.1,15.6,30.1,12.2z M7.2,33.2l-0.4-0.4l0.5-0.5l5-4.8
	c1.9-1.7,3.7-2.6,5.4-2.8c1.7-0.2,3.8,0.2,6.3,1.2h5.8l0.1,0c0.6,0.1,1.1,0.3,1.5,0.7l5-4.6c1.4-1,2.8-0.9,3.9,0.3
	c1,1.2,1.2,2.5,0.3,3.8l-0.1,0.1l-10.3,9.9H18.1l-5.1,4L7.2,33.2L7.2,33.2z M8.8,32.9l4.3,5.2l4.4-3.4h12.1l9.8-9.5
	c0.4-0.7,0.4-1.3-0.2-2c-0.6-0.6-1.1-0.7-1.8-0.1l-5.2,4.8c0,0.2,0.1,0.5,0.1,0.7c0,1.5-0.7,2.5-2.1,2.6h-9v-1.5h0.8l8.2,0
	c0.5,0,0.7-0.3,0.7-1.1c0-0.8-0.3-1.2-1-1.3h-6l-0.1-0.1c-2.4-1-4.3-1.4-5.7-1.2c-1.4,0.2-2.9,1-4.6,2.5
	C13.4,28.5,8.8,32.9,8.8,32.9z M27.2,7.9c2.5,0,4.4,1.7,4.4,4.4c0,4.3-4,8.4-7.5,9.8l-0.3,0.1L23.6,22c-3.4-1.4-7.5-5.5-7.5-9.8
	c0-2.7,1.8-4.4,4.3-4.4c1.4,0,2.7,0.7,3.4,1.8C24.6,8.5,25.8,7.8,27.2,7.9L27.2,7.9z"/>
</svg>
