<?xml version="1.0" encoding="utf-8"?>
<!-- Generator: Adobe Illustrator 22.1.0, SVG Export Plug-In . SVG Version: 6.00 Build 0)  -->
<svg version="1.1" id="Layer_1" xmlns="http://www.w3.org/2000/svg" xmlns:xlink="http://www.w3.org/1999/xlink" x="0px" y="0px"
	 viewBox="0 0 48 48" style="enable-background:new 0 0 48 48;" xml:space="preserve">
<style type="text/css">
	.st0{fill:#000000;}
</style>
<path id="a_1_" class="st0" d="M35.5,36v2.4c0,1.6-1.3,3-3,3s-3-1.3-3-3v-2.3H18.4v2.3c0,1.6-1.3,3-3,3s-3-1.3-3-3V36
	c-2.9-0.6-5-3.1-5-6.1c0-0.1,0-0.2,0-0.3l0.8-17.1c0.2-3.3,2.9-5.9,6.2-5.9h18.9c3.3,0,6.1,2.6,6.2,5.9l0.8,17.1
	C40.6,32.7,38.5,35.4,35.5,36z M31.6,36.2v2.3c0,0.5,0.4,1,1,1c0.5,0,1-0.4,1-1v-2.3H31.6z M14.5,36.2v2.3c0,0.5,0.4,1,1,1
	c0.5,0,1-0.4,1-1v-2.3H14.5z M14.6,8.6c-2.3,0-4.2,1.8-4.3,4.1L9.5,29.7c0,0.1,0,0.1,0,0.2c0,2.4,1.9,4.3,4.3,4.3h20.5
	c0.1,0,0.1,0,0.2,0c2.4-0.1,4.2-2.1,4.1-4.5l-0.8-17.1c-0.1-2.3-2-4.1-4.3-4.1H14.6z M16,11.8h16c1.1,0,2.1,0.8,2.3,1.9l0.9,5.3
	c0.2,1.3-0.6,2.4-1.9,2.7c-0.1,0-0.3,0-0.4,0H15.1c-1.3,0-2.3-1-2.3-2.3c0-0.1,0-0.3,0-0.4l0.9-5.3C13.9,12.6,14.9,11.8,16,11.8z
	 M16,13.8c-0.2,0-0.3,0.1-0.3,0.3l-0.9,5.3c0,0,0,0,0,0.1c0,0.2,0.1,0.3,0.3,0.3h17.9c0,0,0,0,0.1,0c0.2,0,0.3-0.2,0.3-0.4l-0.9-5.3
	c0-0.2-0.2-0.3-0.3-0.3H16z M31.2,30.9c-1.6,0-3-1.3-3-3s1.3-3,3-3s3,1.3,3,3S32.9,30.9,31.2,30.9z M31.2,28.9c0.5,0,1-0.4,1-1
	c0-0.5-0.4-1-1-1s-1,0.4-1,1C30.2,28.5,30.7,28.9,31.2,28.9z M16.8,30.9c-1.6,0-3-1.3-3-3s1.3-3,3-3s3,1.3,3,3S18.4,30.9,16.8,30.9z
	 M16.8,28.9c0.5,0,1-0.4,1-1c0-0.5-0.4-1-1-1c-0.5,0-1,0.4-1,1C15.8,28.5,16.2,28.9,16.8,28.9z"/>
</svg>
