<?xml version="1.0" encoding="utf-8"?>
<!-- Generator: Adobe Illustrator 22.1.0, SVG Export Plug-In . SVG Version: 6.00 Build 0)  -->
<svg version="1.1" xmlns="http://www.w3.org/2000/svg" xmlns:xlink="http://www.w3.org/1999/xlink" x="0px" y="0px"
	 viewBox="0 0 14 10" style="enable-background:new 0 0 14 10;" xml:space="preserve">
<style type="text/css">
	.st0{display:none;}
	.st1{display:inline;}
	.st2{fill:#007CBE;}
	.st3{filter:url(#Adobe_OpacityMaskFilter);}
	.st4{fill:#FFFFFF;}
	.st5{mask:url(#b_2_);fill:#007CBE;}
</style>
<g id="Layer_2" class="st0">
	<g class="st1">
		<path class="st2" d="M10.6,5.1c0.1,0,0.2,0.1,0.3,0.1c0.1,0.1,0.1,0.2,0.1,0.3V9c0,0.3-0.1,0.5-0.3,0.7c-0.2,0.2-0.4,0.3-0.7,0.3
			H3.4c-0.3,0-0.5-0.1-0.7-0.3C2.6,9.4,2.5,9.2,2.5,9V2.2c0-0.3,0.1-0.5,0.3-0.7c0.2-0.2,0.4-0.3,0.7-0.3h5.7c0.1,0,0.2,0,0.3,0.1
			c0.1,0.1,0.1,0.2,0.1,0.3c0,0.1,0,0.2-0.1,0.3L9.1,2.4C9,2.5,8.9,2.5,8.8,2.5H3.7v6.1h6.1V5.9c0-0.1,0-0.2,0.1-0.3l0.3-0.3
			C10.4,5.2,10.5,5.1,10.6,5.1z M13.4,0.2C13.3,0.1,13.2,0,13.1,0h-2.5c-0.1,0-0.2,0-0.3,0.1c-0.1,0.1-0.1,0.2-0.1,0.3
			s0,0.2,0.1,0.3L11,1.5L6.3,6.2C6.2,6.3,6.2,6.4,6.2,6.5c0,0.1,0,0.2,0.1,0.3l0.4,0.4c0.1,0.1,0.2,0.1,0.3,0.1c0.1,0,0.2,0,0.3-0.1
			l4.7-4.7l0.7,0.7c0.1,0.1,0.2,0.1,0.3,0.1s0.2,0,0.3-0.1c0.1-0.1,0.1-0.2,0.1-0.3V0.5C13.5,0.4,13.5,0.3,13.4,0.2z"/>
	</g>
</g>
<g id="Layer_3">
	<defs>
		<filter id="Adobe_OpacityMaskFilter" filterUnits="userSpaceOnUse" x="4" y="0" width="10" height="10">
			<feColorMatrix  type="matrix" values="1 0 0 0 0  0 1 0 0 0  0 0 1 0 0  0 0 0 1 0"/>
		</filter>
	</defs>
	<mask maskUnits="userSpaceOnUse" x="4" y="0" width="10" height="10" id="b_2_">
		<g class="st3">
			<path id="a_2_" class="st4" d="M4.9,1v8.1h8.1V7.2h0.6v2.5h-0.6H4.9H4.3V0.3h0.6h1.9V1H4.9z M8.8,0.8l4.9-0.4l-0.4,4.9l-2-2
				L7.7,6.8L7.2,6.3l3.5-3.5L8.8,0.8z"/>
		</g>
	</mask>
	<rect x="4" y="0" class="st5" width="10" height="10"/>
</g>
</svg>
