<svg width="18" height="17" viewBox="0 0 18 17" xmlns="http://www.w3.org/2000/svg"><g id="Symbols" stroke="none" stroke-width="1" fill="none" fill-rule="evenodd"><g id="M:-Footer" transform="translate(-113 -329)" fill="#C9C8C7"><g id="Group-9" transform="translate(22 326)"><path d="M95.02 8.495v11.417h-3.8V8.495h3.802zm.243-3.525a1.83 1.83 0 0 1-.582 1.406c-.396.376-.916.564-1.561.564h-.023c-.63 0-1.137-.188-1.521-.564C91.192 5.999 91 5.53 91 4.97c0-.568.198-1.039.593-1.411.396-.373.912-.559 1.55-.559.637 0 1.148.186 1.532.559.384.372.58.843.588 1.411zm5.645 5.148c.146-.23.296-.434.45-.609.16-.184.377-.384.65-.599a2.993 2.993 0 0 1 1.002-.501 4.567 4.567 0 0 1 1.32-.179c1.313 0 2.369.436 3.168 1.308.798.872 1.198 2.149 1.198 3.83v6.544h-3.79v-6.106c0-.806-.156-1.438-.467-1.895-.311-.457-.797-.685-1.457-.685-.484 0-.89.132-1.216.397a2.45 2.45 0 0 0-.731.985c-.085.23-.127.542-.127.933v6.371h-3.79c.015-3.064.023-5.549.023-7.453 0-1.905-.004-3.042-.012-3.41l-.011-.554h3.79v1.623z" id=""/></g></g></g></svg>