<svg width="19" height="15" viewBox="0 0 19 15" xmlns="http://www.w3.org/2000/svg"><g id="Symbols" stroke="none" stroke-width="1" fill="none" fill-rule="evenodd"><g id="M:-Footer" transform="translate(-63 -331)" fill="#C9C8C7"><g id="Group-9" transform="translate(22 326)"><path d="M59.157 6.751a7.798 7.798 0 0 1-1.867 1.924 10.571 10.571 0 0 1-.426 3.474 10.804 10.804 0 0 1-1.33 2.863 11.254 11.254 0 0 1-2.126 2.425c-.822.702-1.813 1.263-2.973 1.682-1.16.418-2.4.628-3.72.628-2.082 0-3.987-.557-5.715-1.671.269.03.568.046.899.046 1.728 0 3.268-.53 4.62-1.59a3.628 3.628 0 0 1-2.166-.743 3.64 3.64 0 0 1-1.314-1.837c.254.038.488.057.703.057.33 0 .657-.042.98-.127a3.661 3.661 0 0 1-2.138-1.284 3.595 3.595 0 0 1-.847-2.368v-.046c.523.292 1.083.45 1.682.473a3.717 3.717 0 0 1-1.21-1.325 3.626 3.626 0 0 1-.449-1.774c0-.676.17-1.302.507-1.878a10.55 10.55 0 0 0 3.393 2.747c1.333.688 2.76 1.07 4.28 1.147a4.133 4.133 0 0 1-.092-.853c0-1.029.363-1.906 1.089-2.632A3.586 3.586 0 0 1 53.569 5c1.075 0 1.982.392 2.719 1.175a7.296 7.296 0 0 0 2.362-.899 3.613 3.613 0 0 1-1.636 2.051 7.414 7.414 0 0 0 2.143-.576z" id=""/></g></g></g></svg>