<svg width="18" height="16" viewBox="0 0 18 16" xmlns="http://www.w3.org/2000/svg"><g id="Symbols" stroke="none" stroke-width="1" fill="none" fill-rule="evenodd"><g id="M:-Footer" transform="translate(-162 -330)" fill="#C9C8C7" fill-rule="nonzero"><g id="Group-9" transform="translate(22 326)"><path d="M157.413 7.579c-.07 1.752-1.254 4.13-3.552 7.168-2.368 3.146-4.37 4.737-6.025 4.737-1.01 0-1.88-.965-2.577-2.896l-1.41-5.309c-.523-1.93-1.08-2.896-1.672-2.896-.122 0-.592.286-1.359.84L140 8.152c.853-.769 1.706-1.555 2.542-2.324 1.15-1.019 2.003-1.555 2.577-1.609 1.359-.125 2.195.823 2.508 2.86.33 2.2.575 3.576.697 4.112.383 1.823.818 2.735 1.288 2.735.366 0 .906-.59 1.637-1.77.731-1.18 1.114-2.091 1.167-2.7.104-1.018-.279-1.536-1.167-1.536-.418 0-.853.107-1.289.286.854-2.878 2.49-4.29 4.91-4.201 1.794.036 2.63 1.233 2.543 3.575z" id="Shape"/></g></g></g></svg>