<?xml version="1.0" encoding="UTF-8"?>
<svg width="200px" height="22px" viewBox="0 0 200 22" version="1.1" xmlns="http://www.w3.org/2000/svg" xmlns:xlink="http://www.w3.org/1999/xlink">
    <!-- Generator: Sketch 52.3 (67297) - http://www.bohemiancoding.com/sketch -->
    <title>Group</title>
    <desc>Created with Sketch.</desc>
    <g id="Symbols" stroke="none" stroke-width="1" fill="none" fill-rule="evenodd">
        <g id="Footer" transform="translate(-30.000000, -42.000000)" fill="#FFFFFF">
            <g id="Group" transform="translate(30.000000, 42.000000)">
                <path d="M0,11.4010408 L0,11.3404929 C0,5.61871287 4.75521069,0.956521739 11.2976146,0.956521739 C17.8400186,0.956521739 22.531401,5.5884389 22.531401,11.3102189 L22.531401,11.3707669 C22.531401,17.0925469 17.7761903,21.754738 11.2337863,21.754738 C4.69138235,21.754738 0,17.1228209 0,11.4010408 Z M17.6485336,11.4010408 L17.6485336,11.3404929 C17.6485336,7.8892605 14.9996579,5.0132335 11.2337863,5.0132335 C7.46791477,5.0132335 4.88286735,7.82871256 4.88286735,11.279945 L4.88286735,11.3404929 C4.88286735,14.7917253 7.5317431,17.6677523 11.2976146,17.6677523 C15.0634862,17.6677523 17.6485336,14.8522732 17.6485336,11.4010408 Z" id="Shape" fill-rule="nonzero"></path>
                <polygon id="Shape" fill-rule="nonzero" points="23.9130435 0.956521739 28.6491792 0.956521739 28.6491792 9.19436945 37.375347 9.19436945 37.375347 0.956521739 42.1114827 0.956521739 42.1114827 21.754738 37.375347 21.754738 37.375347 13.3915998 28.6491792 13.3915998 28.6491792 21.754738 23.9130435 21.754738"></polygon>
                <polygon id="Shape" fill-rule="nonzero" points="44.9565217 0.956521739 49.8741723 0.956521739 55.3556299 9.75817652 60.8370875 0.956521739 65.754738 0.956521739 65.754738 21.754738 61.2129589 21.754738 61.2129589 8.16072316 55.3556299 17.0563458 55.2303394 17.0563458 49.4356557 8.254691 49.4356557 21.754738 44.9565217 21.754738 44.9565217 0.956521739"></polygon>
                <path d="M71.7391304,20.9478261 L80.8930435,0.717391304 L83.0165217,0.717391304 L92.1704348,20.9478261 L89.7313043,20.9478261 L87.3782609,15.6391304 L76.4452174,15.6391304 L74.0634783,20.9478261 L71.7391304,20.9478261 Z M77.3347826,13.6017391 L86.4886957,13.6017391 L81.926087,3.3573913 L77.3347826,13.6017391 Z M101.506087,21.2634783 C97.9478261,21.2634783 94.4182609,18.4513043 94.4182609,13.5730435 L94.4182609,13.5156522 C94.4182609,8.66608696 97.9478261,5.79652174 101.506087,5.79652174 C104.26087,5.79652174 106.04,7.28869565 107.187826,8.95304348 L107.187826,0 L109.397391,0 L109.397391,20.9478261 L107.187826,20.9478261 L107.187826,17.9634783 C105.982609,19.7426087 104.232174,21.2634783 101.506087,21.2634783 Z M101.907826,19.2834783 C104.662609,19.2834783 107.273913,16.9591304 107.273913,13.5443478 L107.273913,13.4869565 C107.273913,10.0721739 104.662609,7.77652174 101.907826,7.77652174 C99.0382609,7.77652174 96.6852174,9.9 96.6852174,13.4869565 L96.6852174,13.5443478 C96.6852174,17.0452174 99.0956522,19.2834783 101.907826,19.2834783 Z M118.81913,21.0626087 L112.391304,6.11217391 L114.830435,6.11217391 L119.823478,18.4226087 L124.845217,6.11217391 L127.226957,6.11217391 L120.770435,21.0626087 L118.81913,21.0626087 Z M130.278261,2.86956522 L130.278261,0.430434783 L132.803478,0.430434783 L132.803478,2.86956522 L130.278261,2.86956522 Z M130.421739,20.9478261 L130.421739,6.11217391 L132.631304,6.11217391 L132.631304,20.9478261 L130.421739,20.9478261 Z M142.196522,21.2347826 C140.073043,21.2347826 137.72,20.4026087 136.055652,19.053913 L137.174783,17.4756522 C138.781739,18.6808696 140.56087,19.3695652 142.311304,19.3695652 C144.090435,19.3695652 145.381739,18.4513043 145.381739,17.0165217 L145.381739,16.9591304 C145.381739,15.4669565 143.631304,14.8930435 141.68,14.3478261 C139.355652,13.6878261 136.773043,12.8843478 136.773043,10.1582609 L136.773043,10.1008696 C136.773043,7.54695652 138.896522,5.85391304 141.823478,5.85391304 C143.631304,5.85391304 145.64,6.48521739 147.16087,7.48956522 L146.156522,9.15391304 C144.77913,8.26434783 143.20087,7.71913043 141.766087,7.71913043 C140.015652,7.71913043 138.896522,8.6373913 138.896522,9.87130435 L138.896522,9.92869565 C138.896522,11.3347826 140.733043,11.88 142.713043,12.4826087 C145.008696,13.1713043 147.476522,14.0608696 147.476522,16.7295652 L147.476522,16.7869565 C147.476522,19.5991304 145.152174,21.2347826 142.196522,21.2347826 Z M157.873913,21.2921739 C153.426087,21.2921739 150.183478,17.7913043 150.183478,13.6017391 L150.183478,13.5443478 C150.183478,9.35478261 153.454783,5.79652174 157.931304,5.79652174 C162.37913,5.79652174 165.650435,9.2973913 165.650435,13.4869565 L165.650435,13.5443478 C165.650435,17.733913 162.350435,21.2921739 157.873913,21.2921739 Z M157.931304,19.3121739 C161.145217,19.3121739 163.383478,16.7295652 163.383478,13.6017391 L163.383478,13.5443478 C163.383478,10.3591304 161.001739,7.74782609 157.873913,7.74782609 C154.66,7.74782609 152.450435,10.3591304 152.450435,13.4869565 L152.450435,13.5443478 C152.450435,16.7295652 154.803478,19.3121739 157.931304,19.3121739 Z M169.16087,20.9478261 L169.16087,6.11217391 L171.370435,6.11217391 L171.370435,9.98608696 C172.46087,7.51826087 174.613043,5.73913043 177.425217,5.85391304 L177.425217,8.23565217 L177.253043,8.23565217 C174.010435,8.23565217 171.370435,10.56 171.370435,15.0365217 L171.370435,20.9478261 L169.16087,20.9478261 Z M185.211304,21.2347826 C183.087826,21.2347826 180.734783,20.4026087 179.070435,19.053913 L180.189565,17.4756522 C181.796522,18.6808696 183.575652,19.3695652 185.326087,19.3695652 C187.105217,19.3695652 188.396522,18.4513043 188.396522,17.0165217 L188.396522,16.9591304 C188.396522,15.4669565 186.646087,14.8930435 184.694783,14.3478261 C182.370435,13.6878261 179.787826,12.8843478 179.787826,10.1582609 L179.787826,10.1008696 C179.787826,7.54695652 181.911304,5.85391304 184.838261,5.85391304 C186.646087,5.85391304 188.654783,6.48521739 190.175652,7.48956522 L189.171304,9.15391304 C187.793913,8.26434783 186.215652,7.71913043 184.78087,7.71913043 C183.030435,7.71913043 181.911304,8.6373913 181.911304,9.87130435 L181.911304,9.92869565 C181.911304,11.3347826 183.747826,11.88 185.727826,12.4826087 C188.023478,13.1713043 190.491304,14.0608696 190.491304,16.7295652 L190.491304,16.7869565 C190.491304,19.5991304 188.166957,21.2347826 185.211304,21.2347826 Z" id="Advisors"></path>
                <path d="M195.448,9.26678261 C193.117913,9.26678261 191.304348,7.39582609 191.304348,5.1346087 L191.304348,5.11165217 C191.304348,2.85043478 193.14087,0.956521739 195.470957,0.956521739 C197.801043,0.956521739 199.614609,2.82747826 199.614609,5.08869565 L199.614609,5.11165217 C199.614609,7.37286957 197.778087,9.26678261 195.448,9.26678261 Z M195.448,8.91095652 C197.605913,8.91095652 199.235826,7.18921739 199.235826,5.11165217 L199.235826,5.08869565 C199.235826,3.01113043 197.617391,1.31234783 195.470957,1.31234783 C193.313043,1.31234783 191.68313,3.03408696 191.68313,5.11165217 L191.68313,5.1346087 C191.68313,7.21217391 193.301565,8.91095652 195.448,8.91095652 Z M193.829565,7.12034783 L193.829565,2.86191304 L195.734957,2.86191304 C196.274435,2.86191304 196.722087,3.03408696 196.997565,3.30956522 C197.204174,3.50469565 197.341913,3.79165217 197.341913,4.136 L197.341913,4.15895652 C197.341913,4.84765217 196.882783,5.26086957 196.24,5.41008696 L197.56,7.12034783 L196.779478,7.12034783 L195.551304,5.5133913 L194.46087,5.5133913 L194.46087,7.12034783 L193.829565,7.12034783 Z M194.46087,4.95095652 L195.677565,4.95095652 C196.274435,4.95095652 196.687652,4.67547826 196.687652,4.1933913 L196.687652,4.17043478 C196.687652,3.72278261 196.320348,3.43582609 195.712,3.43582609 L194.46087,3.43582609 L194.46087,4.95095652 Z" id="®"></path>
            </g>
        </g>
    </g>
</svg>