<?xml version="1.0" encoding="UTF-8"?>
<svg width="10px" height="20px" viewBox="0 0 10 20" version="1.1" xmlns="http://www.w3.org/2000/svg" xmlns:xlink="http://www.w3.org/1999/xlink">
    <!-- Generator: Sketch 52.3 (67297) - http://www.bohemiancoding.com/sketch -->
    <title></title>
    <desc>Created with Sketch.</desc>
    <g id="Symbols" stroke="none" stroke-width="1" fill="none" fill-rule="evenodd">
        <g id="M:-Footer" transform="translate(-22.000000, -326.000000)" fill="#C9C8C7">
            <g id="Group-9" transform="translate(22.000000, 326.000000)">
                <path d="M9.95391705,0.138248848 L9.95391705,3.1797235 L8.14516129,3.1797235 C7.48463571,3.1797235 7.03917166,3.31797097 6.80875576,3.59447005 C6.57833986,3.87096912 6.46313364,4.28571152 6.46313364,4.83870968 L6.46313364,7.01612903 L9.83870968,7.01612903 L9.38940092,10.4262673 L6.46313364,10.4262673 L6.46313364,19.1705069 L2.93778802,19.1705069 L2.93778802,10.4262673 L4.4408921e-15,10.4262673 L4.4408921e-15,7.01612903 L2.93778802,7.01612903 L2.93778802,4.50460829 C2.93778802,3.07602972 3.33716959,1.9681299 4.1359447,1.18087558 C4.93471982,0.393621256 5.99845726,-2.94875235e-13 7.32718894,-2.94875235e-13 C8.45622684,-2.94875235e-13 9.33179412,0.0460824885 9.95391705,0.138248848 Z" id=""></path>
            </g>
        </g>
    </g>
</svg>