<?xml version="1.0" encoding="UTF-8"?>
<svg width="18px" height="16px" viewBox="0 0 18 16" version="1.1" xmlns="http://www.w3.org/2000/svg" xmlns:xlink="http://www.w3.org/1999/xlink">
    <!-- Generator: Sketch 52.3 (67297) - http://www.bohemiancoding.com/sketch -->
    <title>Shape</title>
    <desc>Created with Sketch.</desc>
    <g id="Symbols" stroke="none" stroke-width="1" fill="none" fill-rule="evenodd">
        <g id="M:-Footer" transform="translate(-162.000000, -330.000000)" fill="#C9C8C7" fill-rule="nonzero">
            <g id="Group-9" transform="translate(22.000000, 326.000000)">
                <path d="M157.413198,7.57902096 C157.343545,9.33078568 156.159448,11.7081806 153.860906,14.7469562 C151.492711,17.8929826 149.490193,19.483871 147.835939,19.483871 C146.825974,19.483871 145.955314,18.5186129 145.258786,16.5880966 C144.788629,14.8184568 144.318473,13.0488169 143.848317,11.279177 C143.325921,9.34866083 142.768699,8.38340272 142.17665,8.38340272 C142.054757,8.38340272 141.584601,8.66940512 140.81842,9.22353478 L140,8.15102577 C140.853247,7.38239431 141.706493,6.5958877 142.542327,5.82725625 C143.691598,4.80837269 144.544845,4.27211818 145.11948,4.21849273 C146.47771,4.09336668 147.313543,5.04074964 147.626981,7.07851676 C147.957832,9.27716023 148.201616,10.6535468 148.323509,11.1898013 C148.706599,13.0130666 149.141929,13.9246993 149.612085,13.9246993 C149.977763,13.9246993 150.517572,13.3348193 151.248926,12.1550594 C151.98028,10.9752995 152.363371,10.0636668 152.41561,9.45591173 C152.520089,8.43702817 152.136999,7.91864882 151.248926,7.91864882 C150.831009,7.91864882 150.395679,8.02589972 149.960349,8.20465122 C150.813596,5.32675204 152.450437,3.91461518 154.870871,4.00399093 C156.664431,4.03974123 157.500264,5.23737629 157.413198,7.57902096 Z" id="Shape"></path>
            </g>
        </g>
    </g>
</svg>