<?xml version="1.0" encoding="UTF-8"?>
<svg width="179px" height="72px" viewBox="0 0 179 72" version="1.1" xmlns="http://www.w3.org/2000/svg" xmlns:xlink="http://www.w3.org/1999/xlink">
    <!-- Generator: Sketch 52.3 (67297) - http://www.bohemiancoding.com/sketch -->
    <title>Group 4</title>
    <desc>Created with Sketch.</desc>
    <g id="Homepage" stroke="none" stroke-width="1" fill="none" fill-rule="evenodd">
        <g id="-g-Homepage-2" transform="translate(-30.000000, -25.000000)" fill="#FFFFFF" fill-rule="nonzero">
            <g id="Group-4" transform="translate(30.000000, 25.000000)">
                <path d="M0.0544600939,48.5271429 L0.0544600939,48.4728571 C0.0544600939,43.3428571 4.11173709,39.1628571 9.69389671,39.1628571 C15.2760563,39.1628571 19.2788732,43.3157143 19.2788732,48.4457143 L19.2788732,48.5 C19.2788732,53.63 15.2215962,57.81 9.63943662,57.81 C4.057277,57.81 0.0544600939,53.6571429 0.0544600939,48.5271429 Z M15.1126761,48.5271429 L15.1126761,48.4728571 C15.1126761,45.3785714 12.8525822,42.8 9.63943662,42.8 C6.42629108,42.8 4.22065728,45.3242857 4.22065728,48.4185714 L4.22065728,48.4728571 C4.22065728,51.5671429 6.48075117,54.1457143 9.69389671,54.1457143 C12.9070423,54.1457143 15.1126761,51.6214286 15.1126761,48.5271429 Z" id="Shape"></path>
                <polygon id="Shape" points="21.5389671 39.4614286 25.514554 39.4614286 25.514554 46.6 32.8394366 46.6 32.8394366 39.4614286 36.8150235 39.4614286 36.8150235 57.4842857 32.8394366 57.4842857 32.8394366 50.2371429 25.514554 50.2371429 25.514554 57.4842857 21.5389671 57.4842857"></polygon>
                <polygon id="Shape" points="39.8647887 39.4614286 44.1399061 39.4614286 48.9051643 47.0885714 53.6704225 39.4614286 57.9455399 39.4614286 57.9455399 57.4842857 53.9971831 57.4842857 53.9971831 45.7042857 48.9051643 53.4128571 48.7962441 53.4128571 43.7586854 45.7857143 43.7586854 57.4842857 39.8647887 57.4842857 39.8647887 39.4614286"></polygon>
                <polygon id="Shape" points="58.1598131 28.0827907 58.1598131 0.242790698 30.1897196 0.242790698"></polygon>
                <polygon id="Shape" points="87.9728972 57.7572093 87.9728972 29.8902326 60.0028037 29.8902326"></polygon>
                <polygon id="Shape" points="87.8915888 28.0827907 87.8915888 0.242790698 59.9214953 0.242790698"></polygon>
                <g id="Group-8" transform="translate(58.000000, 59.000000)">
                    <path d="M5.11534884,0.197826087 L6.20372093,0.197826087 L7.02,10.2869565 L6.09488372,10.2869565 L5.9044186,7.34782609 L2.50325581,7.34782609 L1.1155814,10.2869565 L0.190465116,10.2869565 L5.11534884,0.197826087 Z M5.8772093,6.58478261 L5.55069767,0.904347826 L5.52348837,0.904347826 L2.85697674,6.58478261 L5.8772093,6.58478261 Z" id="Shape"></path>
                    <path d="M11.8632558,9.04347826 L11.8360465,9.04347826 C11.427907,9.91956522 10.6116279,10.4565217 9.76813953,10.4565217 C8.1627907,10.4565217 7.72744186,9.12826087 8.27162791,6.52826087 C8.78860465,3.92826087 9.79534884,2.6 11.3734884,2.6 C12.2713953,2.6 12.7883721,3.10869565 12.8155814,3.9 L12.8427907,3.9 L13.6046512,0.169565217 L14.4209302,0.169565217 L12.3530233,10.2586957 L11.6183721,10.2586957 L11.8632558,9.04347826 Z M10.0402326,9.75 C10.8565116,9.75 11.7,9.32608696 12.2713953,6.52826087 C12.8155814,3.75869565 12.1625581,3.30652174 11.3462791,3.30652174 C10.53,3.30652174 9.68651163,3.73043478 9.11511628,6.52826087 C8.57093023,9.29782609 9.22395349,9.75 10.0402326,9.75 Z" id="Shape"></path>
                    <polygon id="Shape" points="14.665814 2.76956522 15.5365116 2.76956522 15.7813953 9.29782609 15.8086047 9.29782609 18.6383721 2.76956522 19.5090698 2.76956522 16.0534884 10.2586957 15.1283721 10.2586957"></polygon>
                    <path d="M19.7811628,5.00217391 C20.1076744,3.44782609 20.9783721,2.6 22.502093,2.6 C23.9986047,2.6 24.3795349,3.41956522 24.1346512,4.60652174 L23.2367442,9.04347826 C23.127907,9.4673913 23.2367442,9.66521739 23.5360465,9.66521739 L23.7537209,9.66521739 L23.6448837,10.2869565 C23.4816279,10.3434783 23.3455814,10.3717391 23.2367442,10.3717391 C22.5837209,10.3717391 22.2027907,10.2304348 22.3932558,9.43913043 L22.4476744,9.18478261 L22.4204651,9.18478261 C21.8762791,10.173913 21.0872093,10.4565217 20.2981395,10.4565217 C19.0465116,10.4565217 18.6383721,9.63695652 18.9104651,8.33695652 C19.1281395,7.34782609 19.6995349,6.55652174 20.787907,6.27391304 L22.4204651,5.82173913 C23.0190698,5.65217391 23.1823256,5.51086957 23.3727907,4.63478261 C23.5904651,3.67391304 23.127907,3.33478261 22.3932558,3.33478261 C21.4137209,3.33478261 20.8695349,3.95652174 20.6518605,5.03043478 L19.7811628,5.03043478 L19.7811628,5.00217391 Z M23.0462791,6.04782609 L23.0190698,6.04782609 C22.8830233,6.30217391 22.3932558,6.47173913 22.0395349,6.55652174 L21.332093,6.75434783 C20.4613953,6.98043478 19.9444186,7.40434783 19.7539535,8.30869565 C19.5634884,9.18478261 19.89,9.77826087 20.5974419,9.77826087 C21.604186,9.77826087 22.4476744,8.98695652 22.7197674,7.65869565 L23.0462791,6.04782609 Z" id="Shape"></path>
                    <path d="M26.2025581,2.76956522 L26.9372093,2.76956522 L26.7195349,3.81521739 L26.7467442,3.81521739 C27.3181395,2.99565217 28.1072093,2.6 28.8418605,2.6 C29.9302326,2.6 30.5560465,3.19347826 30.2839535,4.60652174 L29.1411628,10.2586957 L28.3248837,10.2586957 L29.4404651,4.8326087 C29.6581395,3.78695652 29.3588372,3.27826087 28.5153488,3.27826087 C27.5630233,3.27826087 26.7467442,4.04130435 26.5290698,5.2 L25.4951163,10.2304348 L24.6788372,10.2304348 L26.2025581,2.76956522 Z" id="Shape"></path>
                    <path d="M35.5353488,7.8 C35.0727907,9.3826087 34.0116279,10.4565217 32.7055814,10.4565217 C31.1818605,10.4565217 30.5016279,9.35434783 31.1002326,6.52826087 C31.6172093,3.92826087 32.7872093,2.6 34.3653488,2.6 C35.725814,2.6 36.3244186,3.44782609 36.1067442,5.00217391 L35.2904651,5.00217391 C35.4537209,3.84347826 35.1,3.30652174 34.2293023,3.30652174 C33.3586047,3.30652174 32.487907,3.87173913 31.9437209,6.52826087 C31.3723256,9.35434783 32.0525581,9.72173913 32.8416279,9.72173913 C33.657907,9.72173913 34.3381395,9.1 34.7190698,7.77173913 L35.5353488,7.77173913 L35.5353488,7.8 Z" id="Shape"></path>
                    <path d="M37.8209302,2.76956522 L38.6372093,2.76956522 L37.0862791,10.2586957 L36.27,10.2586957 L37.8209302,2.76956522 Z M38.3651163,0.197826087 L39.1813953,0.197826087 L38.882093,1.63913043 L38.065814,1.63913043 L38.3651163,0.197826087 Z" id="Shape"></path>
                    <path d="M40.2697674,2.76956522 L41.0044186,2.76956522 L40.7867442,3.81521739 L40.8139535,3.81521739 C41.4125581,2.99565217 42.1744186,2.6 42.9090698,2.6 C44.0246512,2.6 44.6232558,3.19347826 44.3511628,4.60652174 L43.2083721,10.2586957 L42.392093,10.2586957 L43.5076744,4.8326087 C43.7253488,3.78695652 43.4260465,3.27826087 42.5825581,3.27826087 C41.6302326,3.27826087 40.8411628,4.04130435 40.5962791,5.2 L39.5623256,10.2304348 L38.7460465,10.2304348 L40.2697674,2.76956522 Z" id="Shape"></path>
                    <path d="M50.037907,2.76956522 L50.7725581,2.76956522 L49.3576744,9.72173913 C48.9223256,11.8130435 47.97,12.8586957 46.3374419,12.8586957 C44.9225581,12.8586957 44.3511628,12.0956522 44.5688372,11.0217391 L45.3851163,11.0217391 C45.2218605,11.7282609 45.7932558,12.1521739 46.527907,12.1521739 C47.5346512,12.1521739 48.1876744,11.4456522 48.4597674,10.1173913 L48.7046512,8.93043478 L48.6774419,8.93043478 C48.2148837,9.83478261 47.4530233,10.2869565 46.7183721,10.2869565 C45.6027907,10.2869565 44.6232558,9.52391304 45.2762791,6.52826087 C45.7932558,3.92826087 46.8,2.6 48.3781395,2.6 C49.1672093,2.6 49.7113953,3.08043478 49.7930233,3.92826087 L49.8202326,3.92826087 L50.037907,2.76956522 Z M47.0448837,9.58043478 C47.9972093,9.58043478 48.7318605,8.84565217 49.2216279,6.44347826 C49.7113953,4.04130435 49.2760465,3.30652174 48.3237209,3.30652174 C47.344186,3.30652174 46.6367442,4.04130435 46.1469767,6.44347826 C45.6572093,8.84565217 46.0653488,9.58043478 47.0448837,9.58043478 Z" id="Shape"></path>
                    <path d="M60.6495349,6.8673913 C60.0509302,9.15652174 58.772093,10.4565217 57.0306977,10.4565217 C55.0444186,10.4565217 54.2553488,8.87391304 54.99,5.25652174 C55.7246512,1.63913043 57.1667442,0.0282608696 59.1530233,0.0282608696 C61.112093,0.0282608696 61.6562791,1.46956522 61.3297674,3.13695652 L60.4590698,3.13695652 C60.7311628,1.75217391 60.2686047,0.791304348 59.0169767,0.791304348 C57.6293023,0.791304348 56.5409302,1.97826087 55.8606977,5.25652174 C55.1804651,8.50652174 55.8062791,9.72173913 57.1667442,9.72173913 C58.3911628,9.72173913 59.3162791,8.61956522 59.7516279,6.89565217 L60.6495349,6.89565217 L60.6495349,6.8673913 Z" id="Shape"></path>
                    <path d="M64.8125581,2.6 C66.3906977,2.6 67.0437209,3.92826087 66.4995349,6.52826087 C65.9553488,9.12826087 64.7853488,10.4565217 63.18,10.4565217 C61.6018605,10.4565217 60.9488372,9.15652174 61.4930233,6.52826087 C62.0644186,3.92826087 63.2344186,2.6 64.8125581,2.6 Z M63.3704651,9.75 C64.2683721,9.75 65.1390698,8.93043478 65.6560465,6.52826087 C66.145814,4.12608696 65.6016279,3.30652174 64.6765116,3.30652174 C63.7513953,3.30652174 62.8806977,4.12608696 62.4181395,6.52826087 C61.9011628,8.93043478 62.4453488,9.75 63.3704651,9.75 Z" id="Shape"></path>
                    <path d="M68.5402326,2.76956522 L69.2748837,2.76956522 L69.0572093,3.81521739 L69.0844186,3.81521739 C69.6286047,2.99565217 70.3632558,2.6 71.1795349,2.6 C72.0502326,2.6 72.4855814,3.16521739 72.4311628,3.92826087 L72.4583721,3.92826087 C72.9481395,3.08043478 73.6283721,2.6 74.5534884,2.6 C75.5602326,2.6 76.1044186,3.19347826 75.8323256,4.55 L74.6623256,10.2869565 L73.8460465,10.2869565 L74.9888372,4.69130435 C75.1793023,3.78695652 74.88,3.33478261 74.1453488,3.33478261 C73.3290698,3.33478261 72.5127907,4.09782609 72.2951163,5.25652174 L71.2611628,10.2869565 L70.4448837,10.2869565 L71.5876744,4.69130435 C71.7781395,3.78695652 71.4788372,3.33478261 70.744186,3.33478261 C69.927907,3.33478261 69.1116279,4.09782609 68.8939535,5.25652174 L67.86,10.2869565 L67.0437209,10.2869565 L68.5402326,2.76956522 Z" id="Shape"></path>
                    <path d="M77.8730233,2.76956522 L78.6076744,2.76956522 L78.39,3.81521739 L78.4172093,3.81521739 C78.9886047,2.99565217 79.6960465,2.6 80.5123256,2.6 C81.3830233,2.6 81.8183721,3.16521739 81.7639535,3.92826087 L81.7911628,3.92826087 C82.2809302,3.08043478 82.9611628,2.6 83.8862791,2.6 C84.8930233,2.6 85.4372093,3.19347826 85.1651163,4.55 L83.9951163,10.2869565 L83.1788372,10.2869565 L84.3216279,4.69130435 C84.512093,3.78695652 84.2127907,3.33478261 83.4781395,3.33478261 C82.6618605,3.33478261 81.8455814,4.09782609 81.627907,5.25652174 L80.5939535,10.2869565 L79.7776744,10.2869565 L80.9204651,4.69130435 C81.1109302,3.78695652 80.8116279,3.33478261 80.0769767,3.33478261 C79.2606977,3.33478261 78.4444186,4.09782609 78.2267442,5.25652174 L77.1927907,10.2869565 L76.3765116,10.2869565 L77.8730233,2.76956522 Z" id="Shape"></path>
                    <path d="M87.1513953,2.76956522 L87.9676744,2.76956522 L86.8793023,8.05434783 C86.6344186,9.26956522 86.9337209,9.72173913 87.8044186,9.72173913 C88.7295349,9.72173913 89.545814,8.95869565 89.7634884,7.8 L90.7974419,2.76956522 L91.6137209,2.76956522 L90.0627907,10.2586957 L89.3281395,10.2586957 L89.545814,9.21304348 L89.5186047,9.21304348 C88.9472093,10.0608696 88.1581395,10.4282609 87.3962791,10.4282609 C86.307907,10.4282609 85.682093,9.83478261 85.9813953,8.42173913 L87.1513953,2.76956522 Z" id="Shape"></path>
                    <path d="M93.1918605,2.76956522 L93.9265116,2.76956522 L93.7088372,3.81521739 L93.7360465,3.81521739 C94.3346512,2.99565217 95.0965116,2.6 95.8311628,2.6 C96.9195349,2.6 97.5453488,3.19347826 97.2732558,4.60652174 L96.1304651,10.2586957 L95.314186,10.2586957 L96.4297674,4.8326087 C96.6474419,3.78695652 96.3209302,3.27826087 95.5046512,3.27826087 C94.5523256,3.27826087 93.7360465,4.04130435 93.5183721,5.2 L92.4844186,10.2304348 L91.6681395,10.2304348 L93.1918605,2.76956522 Z" id="Shape"></path>
                    <path d="M99.2867442,2.76956522 L100.103023,2.76956522 L98.552093,10.2586957 L97.735814,10.2586957 L99.2867442,2.76956522 Z M99.8037209,0.197826087 L100.62,0.197826087 L100.320698,1.63913043 L99.5044186,1.63913043 L99.8037209,0.197826087 Z" id="Shape"></path>
                    <path d="M101.871628,3.47608696 L100.864884,3.47608696 L101.02814,2.76956522 L102.034884,2.76956522 L102.443023,0.67826087 L103.259302,0.67826087 L102.851163,2.76956522 L104.13,2.76956522 L103.966744,3.47608696 L102.687907,3.47608696 L101.572326,8.84565217 C101.463488,9.43913043 101.653953,9.63695652 102.17093,9.63695652 C102.334186,9.63695652 102.497442,9.60869565 102.715116,9.55217391 L102.55186,10.2586957 C102.443023,10.3152174 102.225349,10.3434783 101.953256,10.3434783 C100.864884,10.3434783 100.483953,10.0326087 100.701628,9.04347826 L101.871628,3.47608696 Z" id="Shape"></path>
                    <path d="M105.055116,2.76956522 L105.871395,2.76956522 L104.320465,10.2586957 L103.504186,10.2586957 L105.055116,2.76956522 Z M105.599302,0.197826087 L106.415581,0.197826087 L106.116279,1.63913043 L105.3,1.63913043 L105.599302,0.197826087 Z" id="Shape"></path>
                    <path d="M110.932326,7.8 C110.496977,9.3826087 109.435814,10.4565217 108.075349,10.4565217 C106.551628,10.4565217 105.871395,9.35434783 106.47,6.52826087 C106.986977,3.92826087 108.156977,2.6 109.762326,2.6 C111.367674,2.6 111.857442,3.73043478 111.340465,6.24565217 L111.286047,6.55652174 L107.340698,6.55652174 L107.286279,6.89565217 C106.823721,9.07173913 107.422326,9.72173913 108.238605,9.72173913 C109.109302,9.72173913 109.762326,9.1 110.143256,7.77173913 L110.932326,7.77173913 L110.932326,7.8 Z M110.524186,5.85 C110.877907,3.98478261 110.496977,3.30652174 109.490233,3.30652174 C108.483488,3.30652174 107.830465,3.98478261 107.422326,5.85 L110.524186,5.85 Z" id="Shape"></path>
                    <path d="M113.680465,6.55652174 C112.72814,6.1326087 112.510465,5.53913043 112.646512,4.77608696 C112.945814,3.22173913 114.006977,2.6 115.231395,2.6 C116.59186,2.6 117.081628,3.30652174 116.809535,4.69130435 L116.755116,4.9173913 L115.938837,4.9173913 L115.993256,4.69130435 C116.21093,3.70217391 115.83,3.30652174 115.095349,3.30652174 C114.143023,3.30652174 113.680465,3.84347826 113.517209,4.57826087 C113.408372,5.11521739 113.49,5.51086957 114.25186,5.85 L115.340233,6.33043478 C116.23814,6.69782609 116.455814,7.40434783 116.292558,8.25217391 C116.047674,9.52391304 115.122558,10.4847826 113.598837,10.4847826 C112.129535,10.4847826 111.53093,9.86304348 111.884651,8.1673913 L111.93907,7.94130435 L112.755349,7.94130435 L112.70093,8.13913043 C112.483256,9.24130435 112.836977,9.80652174 113.734884,9.80652174 C114.605581,9.80652174 115.285814,9.29782609 115.42186,8.45 C115.557907,7.8 115.394651,7.37608696 114.741628,7.06521739 L113.680465,6.55652174 Z" id="Shape"></path>
                    <path d="M119.5,2 C120.325,2 121,2.65 121,3.5 C121,4.35 120.325,5 119.5,5 C118.675,5 118,4.35 118,3.5 C118,2.65 118.675,2 119.5,2 Z M119.5,4.775 C120.2,4.775 120.725,4.225 120.725,3.5 C120.725,2.775 120.2,2.225 119.5,2.225 C118.8,2.225 118.275,2.775 118.275,3.5 C118.275,4.225 118.8,4.775 119.5,4.775 Z M118.925,2.625 L119.6,2.625 C120.025,2.625 120.2,2.8 120.2,3.125 C120.2,3.45 120,3.575 119.75,3.6 L120.25,4.375 L119.95,4.375 L119.475,3.625 L119.175,3.625 L119.175,4.375 L118.9,4.375 L118.9,2.625 L118.925,2.625 Z M119.175,3.4 L119.45,3.4 C119.7,3.4 119.9,3.4 119.9,3.1 C119.9,2.875 119.7,2.825 119.525,2.825 L119.175,2.825 L119.175,3.4 Z" id="Shape"></path>
                </g>
            </g>
        </g>
    </g>
</svg>