<?xml version="1.0" encoding="UTF-8"?>
<svg width="179px" height="72px" viewBox="0 0 179 72" version="1.1" xmlns="http://www.w3.org/2000/svg" xmlns:xlink="http://www.w3.org/1999/xlink">
    <!-- Generator: Sketch 52.3 (67297) - http://www.bohemiancoding.com/sketch -->
    <title>Group</title>
    <desc>Created with Sketch.</desc>
    <g id="Symbols" stroke="none" stroke-width="1" fill="none" fill-rule="evenodd">
        <g id="Top-Nav-Experties" transform="translate(-30.000000, -23.000000)" fill-rule="nonzero">
            <g id="Group" transform="translate(30.000000, 23.000000)">
                <path d="M0.0544600939,48.5271429 L0.0544600939,48.4728571 C0.0544600939,43.3428571 4.11173709,39.1628571 9.69389671,39.1628571 C15.2760563,39.1628571 19.2788732,43.3157143 19.2788732,48.4457143 L19.2788732,48.5 C19.2788732,53.63 15.2215962,57.81 9.63943662,57.81 C4.057277,57.81 0.0544600939,53.6571429 0.0544600939,48.5271429 Z M15.1126761,48.5271429 L15.1126761,48.4728571 C15.1126761,45.3785714 12.8525822,42.8 9.63943662,42.8 C6.42629108,42.8 4.22065728,45.3242857 4.22065728,48.4185714 L4.22065728,48.4728571 C4.22065728,51.5671429 6.48075117,54.1457143 9.69389671,54.1457143 C12.9070423,54.1457143 15.1126761,51.6214286 15.1126761,48.5271429 Z" id="Shape" fill="#8A1F03"></path>
                <polygon id="Shape" fill="#8A1F03" points="21.5389671 39.4614286 25.514554 39.4614286 25.514554 46.6 32.8394366 46.6 32.8394366 39.4614286 36.8150235 39.4614286 36.8150235 57.4842857 32.8394366 57.4842857 32.8394366 50.2371429 25.514554 50.2371429 25.514554 57.4842857 21.5389671 57.4842857"></polygon>
                <polygon id="Shape" fill="#8A1F03" points="39.8647887 39.4614286 44.1399061 39.4614286 48.9051643 47.0885714 53.6704225 39.4614286 57.9455399 39.4614286 57.9455399 57.4842857 53.9971831 57.4842857 53.9971831 45.7042857 48.9051643 53.4128571 48.7962441 53.4128571 43.7586854 45.7857143 43.7586854 57.4842857 39.8647887 57.4842857 39.8647887 39.4614286"></polygon>
                <polygon id="Shape" fill="#EEB111" points="58.1598131 28.0827907 58.1598131 0.242790698 30.1897196 0.242790698"></polygon>
                <polygon id="Shape" fill="#EEB111" points="87.9728972 57.7572093 87.9728972 29.8902326 60.0028037 29.8902326"></polygon>
                <polygon id="Shape" fill="#EEB111" points="87.8915888 28.0827907 87.8915888 0.242790698 59.9214953 0.242790698"></polygon>
                <path d="M63.1153488,59.1978261 L64.2037209,59.1978261 L65.02,69.2869565 L64.0948837,69.2869565 L63.9044186,66.3478261 L60.5032558,66.3478261 L59.1155814,69.2869565 L58.1904651,69.2869565 L63.1153488,59.1978261 Z M63.8772093,65.5847826 L63.5506977,59.9043478 L63.5234884,59.9043478 L60.8569767,65.5847826 L63.8772093,65.5847826 Z" id="Shape" fill="#E87D1D"></path>
                <path d="M69.8632558,68.0434783 L69.8360465,68.0434783 C69.427907,68.9195652 68.6116279,69.4565217 67.7681395,69.4565217 C66.1627907,69.4565217 65.7274419,68.1282609 66.2716279,65.5282609 C66.7886047,62.9282609 67.7953488,61.6 69.3734884,61.6 C70.2713953,61.6 70.7883721,62.1086957 70.8155814,62.9 L70.8427907,62.9 L71.6046512,59.1695652 L72.4209302,59.1695652 L70.3530233,69.2586957 L69.6183721,69.2586957 L69.8632558,68.0434783 Z M68.0402326,68.75 C68.8565116,68.75 69.7,68.326087 70.2713953,65.5282609 C70.8155814,62.7586957 70.1625581,62.3065217 69.3462791,62.3065217 C68.53,62.3065217 67.6865116,62.7304348 67.1151163,65.5282609 C66.5709302,68.2978261 67.2239535,68.75 68.0402326,68.75 Z" id="Shape" fill="#E87D1D"></path>
                <polygon id="Shape" fill="#E87D1D" points="72.665814 61.7695652 73.5365116 61.7695652 73.7813953 68.2978261 73.8086047 68.2978261 76.6383721 61.7695652 77.5090698 61.7695652 74.0534884 69.2586957 73.1283721 69.2586957"></polygon>
                <path d="M77.7811628,64.0021739 C78.1076744,62.4478261 78.9783721,61.6 80.502093,61.6 C81.9986047,61.6 82.3795349,62.4195652 82.1346512,63.6065217 L81.2367442,68.0434783 C81.127907,68.4673913 81.2367442,68.6652174 81.5360465,68.6652174 L81.7537209,68.6652174 L81.6448837,69.2869565 C81.4816279,69.3434783 81.3455814,69.3717391 81.2367442,69.3717391 C80.5837209,69.3717391 80.2027907,69.2304348 80.3932558,68.4391304 L80.4476744,68.1847826 L80.4204651,68.1847826 C79.8762791,69.173913 79.0872093,69.4565217 78.2981395,69.4565217 C77.0465116,69.4565217 76.6383721,68.6369565 76.9104651,67.3369565 C77.1281395,66.3478261 77.6995349,65.5565217 78.787907,65.273913 L80.4204651,64.8217391 C81.0190698,64.6521739 81.1823256,64.5108696 81.3727907,63.6347826 C81.5904651,62.673913 81.127907,62.3347826 80.3932558,62.3347826 C79.4137209,62.3347826 78.8695349,62.9565217 78.6518605,64.0304348 L77.7811628,64.0304348 L77.7811628,64.0021739 Z M81.0462791,65.0478261 L81.0190698,65.0478261 C80.8830233,65.3021739 80.3932558,65.4717391 80.0395349,65.5565217 L79.332093,65.7543478 C78.4613953,65.9804348 77.9444186,66.4043478 77.7539535,67.3086957 C77.5634884,68.1847826 77.89,68.7782609 78.5974419,68.7782609 C79.604186,68.7782609 80.4476744,67.9869565 80.7197674,66.6586957 L81.0462791,65.0478261 Z" id="Shape" fill="#E87D1D"></path>
                <path d="M84.2025581,61.7695652 L84.9372093,61.7695652 L84.7195349,62.8152174 L84.7467442,62.8152174 C85.3181395,61.9956522 86.1072093,61.6 86.8418605,61.6 C87.9302326,61.6 88.5560465,62.1934783 88.2839535,63.6065217 L87.1411628,69.2586957 L86.3248837,69.2586957 L87.4404651,63.8326087 C87.6581395,62.7869565 87.3588372,62.2782609 86.5153488,62.2782609 C85.5630233,62.2782609 84.7467442,63.0413043 84.5290698,64.2 L83.4951163,69.2304348 L82.6788372,69.2304348 L84.2025581,61.7695652 Z" id="Shape" fill="#E87D1D"></path>
                <path d="M93.5353488,66.8 C93.0727907,68.3826087 92.0116279,69.4565217 90.7055814,69.4565217 C89.1818605,69.4565217 88.5016279,68.3543478 89.1002326,65.5282609 C89.6172093,62.9282609 90.7872093,61.6 92.3653488,61.6 C93.725814,61.6 94.3244186,62.4478261 94.1067442,64.0021739 L93.2904651,64.0021739 C93.4537209,62.8434783 93.1,62.3065217 92.2293023,62.3065217 C91.3586047,62.3065217 90.487907,62.8717391 89.9437209,65.5282609 C89.3723256,68.3543478 90.0525581,68.7217391 90.8416279,68.7217391 C91.657907,68.7217391 92.3381395,68.1 92.7190698,66.7717391 L93.5353488,66.7717391 L93.5353488,66.8 Z" id="Shape" fill="#E87D1D"></path>
                <path d="M95.8209302,61.7695652 L96.6372093,61.7695652 L95.0862791,69.2586957 L94.27,69.2586957 L95.8209302,61.7695652 Z M96.3651163,59.1978261 L97.1813953,59.1978261 L96.882093,60.6391304 L96.065814,60.6391304 L96.3651163,59.1978261 Z" id="Shape" fill="#E87D1D"></path>
                <path d="M98.2697674,61.7695652 L99.0044186,61.7695652 L98.7867442,62.8152174 L98.8139535,62.8152174 C99.4125581,61.9956522 100.174419,61.6 100.90907,61.6 C102.024651,61.6 102.623256,62.1934783 102.351163,63.6065217 L101.208372,69.2586957 L100.392093,69.2586957 L101.507674,63.8326087 C101.725349,62.7869565 101.426047,62.2782609 100.582558,62.2782609 C99.6302326,62.2782609 98.8411628,63.0413043 98.5962791,64.2 L97.5623256,69.2304348 L96.7460465,69.2304348 L98.2697674,61.7695652 Z" id="Shape" fill="#E87D1D"></path>
                <path d="M108.037907,61.7695652 L108.772558,61.7695652 L107.357674,68.7217391 C106.922326,70.8130435 105.97,71.8586957 104.337442,71.8586957 C102.922558,71.8586957 102.351163,71.0956522 102.568837,70.0217391 L103.385116,70.0217391 C103.22186,70.7282609 103.793256,71.1521739 104.527907,71.1521739 C105.534651,71.1521739 106.187674,70.4456522 106.459767,69.1173913 L106.704651,67.9304348 L106.677442,67.9304348 C106.214884,68.8347826 105.453023,69.2869565 104.718372,69.2869565 C103.602791,69.2869565 102.623256,68.523913 103.276279,65.5282609 C103.793256,62.9282609 104.8,61.6 106.37814,61.6 C107.167209,61.6 107.711395,62.0804348 107.793023,62.9282609 L107.820233,62.9282609 L108.037907,61.7695652 Z M105.044884,68.5804348 C105.997209,68.5804348 106.73186,67.8456522 107.221628,65.4434783 C107.711395,63.0413043 107.276047,62.3065217 106.323721,62.3065217 C105.344186,62.3065217 104.636744,63.0413043 104.146977,65.4434783 C103.657209,67.8456522 104.065349,68.5804348 105.044884,68.5804348 Z" id="Shape" fill="#E87D1D"></path>
                <path d="M118.649535,65.8673913 C118.05093,68.1565217 116.772093,69.4565217 115.030698,69.4565217 C113.044419,69.4565217 112.255349,67.873913 112.99,64.2565217 C113.724651,60.6391304 115.166744,59.0282609 117.153023,59.0282609 C119.112093,59.0282609 119.656279,60.4695652 119.329767,62.1369565 L118.45907,62.1369565 C118.731163,60.7521739 118.268605,59.7913043 117.016977,59.7913043 C115.629302,59.7913043 114.54093,60.9782609 113.860698,64.2565217 C113.180465,67.5065217 113.806279,68.7217391 115.166744,68.7217391 C116.391163,68.7217391 117.316279,67.6195652 117.751628,65.8956522 L118.649535,65.8956522 L118.649535,65.8673913 Z" id="Shape" fill="#E87D1D"></path>
                <path d="M122.812558,61.6 C124.390698,61.6 125.043721,62.9282609 124.499535,65.5282609 C123.955349,68.1282609 122.785349,69.4565217 121.18,69.4565217 C119.60186,69.4565217 118.948837,68.1565217 119.493023,65.5282609 C120.064419,62.9282609 121.234419,61.6 122.812558,61.6 Z M121.370465,68.75 C122.268372,68.75 123.13907,67.9304348 123.656047,65.5282609 C124.145814,63.126087 123.601628,62.3065217 122.676512,62.3065217 C121.751395,62.3065217 120.880698,63.126087 120.41814,65.5282609 C119.901163,67.9304348 120.445349,68.75 121.370465,68.75 Z" id="Shape" fill="#E87D1D"></path>
                <path d="M126.540233,61.7695652 L127.274884,61.7695652 L127.057209,62.8152174 L127.084419,62.8152174 C127.628605,61.9956522 128.363256,61.6 129.179535,61.6 C130.050233,61.6 130.485581,62.1652174 130.431163,62.9282609 L130.458372,62.9282609 C130.94814,62.0804348 131.628372,61.6 132.553488,61.6 C133.560233,61.6 134.104419,62.1934783 133.832326,63.55 L132.662326,69.2869565 L131.846047,69.2869565 L132.988837,63.6913043 C133.179302,62.7869565 132.88,62.3347826 132.145349,62.3347826 C131.32907,62.3347826 130.512791,63.0978261 130.295116,64.2565217 L129.261163,69.2869565 L128.444884,69.2869565 L129.587674,63.6913043 C129.77814,62.7869565 129.478837,62.3347826 128.744186,62.3347826 C127.927907,62.3347826 127.111628,63.0978261 126.893953,64.2565217 L125.86,69.2869565 L125.043721,69.2869565 L126.540233,61.7695652 Z" id="Shape" fill="#E87D1D"></path>
                <path d="M135.873023,61.7695652 L136.607674,61.7695652 L136.39,62.8152174 L136.417209,62.8152174 C136.988605,61.9956522 137.696047,61.6 138.512326,61.6 C139.383023,61.6 139.818372,62.1652174 139.763953,62.9282609 L139.791163,62.9282609 C140.28093,62.0804348 140.961163,61.6 141.886279,61.6 C142.893023,61.6 143.437209,62.1934783 143.165116,63.55 L141.995116,69.2869565 L141.178837,69.2869565 L142.321628,63.6913043 C142.512093,62.7869565 142.212791,62.3347826 141.47814,62.3347826 C140.66186,62.3347826 139.845581,63.0978261 139.627907,64.2565217 L138.593953,69.2869565 L137.777674,69.2869565 L138.920465,63.6913043 C139.11093,62.7869565 138.811628,62.3347826 138.076977,62.3347826 C137.260698,62.3347826 136.444419,63.0978261 136.226744,64.2565217 L135.192791,69.2869565 L134.376512,69.2869565 L135.873023,61.7695652 Z" id="Shape" fill="#E87D1D"></path>
                <path d="M145.151395,61.7695652 L145.967674,61.7695652 L144.879302,67.0543478 C144.634419,68.2695652 144.933721,68.7217391 145.804419,68.7217391 C146.729535,68.7217391 147.545814,67.9586957 147.763488,66.8 L148.797442,61.7695652 L149.613721,61.7695652 L148.062791,69.2586957 L147.32814,69.2586957 L147.545814,68.2130435 L147.518605,68.2130435 C146.947209,69.0608696 146.15814,69.4282609 145.396279,69.4282609 C144.307907,69.4282609 143.682093,68.8347826 143.981395,67.4217391 L145.151395,61.7695652 Z" id="Shape" fill="#E87D1D"></path>
                <path d="M151.19186,61.7695652 L151.926512,61.7695652 L151.708837,62.8152174 L151.736047,62.8152174 C152.334651,61.9956522 153.096512,61.6 153.831163,61.6 C154.919535,61.6 155.545349,62.1934783 155.273256,63.6065217 L154.130465,69.2586957 L153.314186,69.2586957 L154.429767,63.8326087 C154.647442,62.7869565 154.32093,62.2782609 153.504651,62.2782609 C152.552326,62.2782609 151.736047,63.0413043 151.518372,64.2 L150.484419,69.2304348 L149.66814,69.2304348 L151.19186,61.7695652 Z" id="Shape" fill="#E87D1D"></path>
                <path d="M157.286744,61.7695652 L158.103023,61.7695652 L156.552093,69.2586957 L155.735814,69.2586957 L157.286744,61.7695652 Z M157.803721,59.1978261 L158.62,59.1978261 L158.320698,60.6391304 L157.504419,60.6391304 L157.803721,59.1978261 Z" id="Shape" fill="#E87D1D"></path>
                <path d="M159.871628,62.476087 L158.864884,62.476087 L159.02814,61.7695652 L160.034884,61.7695652 L160.443023,59.6782609 L161.259302,59.6782609 L160.851163,61.7695652 L162.13,61.7695652 L161.966744,62.476087 L160.687907,62.476087 L159.572326,67.8456522 C159.463488,68.4391304 159.653953,68.6369565 160.17093,68.6369565 C160.334186,68.6369565 160.497442,68.6086957 160.715116,68.5521739 L160.55186,69.2586957 C160.443023,69.3152174 160.225349,69.3434783 159.953256,69.3434783 C158.864884,69.3434783 158.483953,69.0326087 158.701628,68.0434783 L159.871628,62.476087 Z" id="Shape" fill="#E87D1D"></path>
                <path d="M163.055116,61.7695652 L163.871395,61.7695652 L162.320465,69.2586957 L161.504186,69.2586957 L163.055116,61.7695652 Z M163.599302,59.1978261 L164.415581,59.1978261 L164.116279,60.6391304 L163.3,60.6391304 L163.599302,59.1978261 Z" id="Shape" fill="#E87D1D"></path>
                <path d="M168.932326,66.8 C168.496977,68.3826087 167.435814,69.4565217 166.075349,69.4565217 C164.551628,69.4565217 163.871395,68.3543478 164.47,65.5282609 C164.986977,62.9282609 166.156977,61.6 167.762326,61.6 C169.367674,61.6 169.857442,62.7304348 169.340465,65.2456522 L169.286047,65.5565217 L165.340698,65.5565217 L165.286279,65.8956522 C164.823721,68.0717391 165.422326,68.7217391 166.238605,68.7217391 C167.109302,68.7217391 167.762326,68.1 168.143256,66.7717391 L168.932326,66.7717391 L168.932326,66.8 Z M168.524186,64.85 C168.877907,62.9847826 168.496977,62.3065217 167.490233,62.3065217 C166.483488,62.3065217 165.830465,62.9847826 165.422326,64.85 L168.524186,64.85 Z" id="Shape" fill="#E87D1D"></path>
                <path d="M171.680465,65.5565217 C170.72814,65.1326087 170.510465,64.5391304 170.646512,63.776087 C170.945814,62.2217391 172.006977,61.6 173.231395,61.6 C174.59186,61.6 175.081628,62.3065217 174.809535,63.6913043 L174.755116,63.9173913 L173.938837,63.9173913 L173.993256,63.6913043 C174.21093,62.7021739 173.83,62.3065217 173.095349,62.3065217 C172.143023,62.3065217 171.680465,62.8434783 171.517209,63.5782609 C171.408372,64.1152174 171.49,64.5108696 172.25186,64.85 L173.340233,65.3304348 C174.23814,65.6978261 174.455814,66.4043478 174.292558,67.2521739 C174.047674,68.523913 173.122558,69.4847826 171.598837,69.4847826 C170.129535,69.4847826 169.53093,68.8630435 169.884651,67.1673913 L169.93907,66.9413043 L170.755349,66.9413043 L170.70093,67.1391304 C170.483256,68.2413043 170.836977,68.8065217 171.734884,68.8065217 C172.605581,68.8065217 173.285814,68.2978261 173.42186,67.45 C173.557907,66.8 173.394651,66.376087 172.741628,66.0652174 L171.680465,65.5565217 Z" id="Shape" fill="#E87D1D"></path>
                <path d="M177.5,61 C178.325,61 179,61.65 179,62.5 C179,63.35 178.325,64 177.5,64 C176.675,64 176,63.35 176,62.5 C176,61.65 176.675,61 177.5,61 Z M177.5,63.775 C178.2,63.775 178.725,63.225 178.725,62.5 C178.725,61.775 178.2,61.225 177.5,61.225 C176.8,61.225 176.275,61.775 176.275,62.5 C176.275,63.225 176.8,63.775 177.5,63.775 Z M176.925,61.625 L177.6,61.625 C178.025,61.625 178.2,61.8 178.2,62.125 C178.2,62.45 178,62.575 177.75,62.6 L178.25,63.375 L177.95,63.375 L177.475,62.625 L177.175,62.625 L177.175,63.375 L176.9,63.375 L176.9,61.625 L176.925,61.625 Z M177.175,62.4 L177.45,62.4 C177.7,62.4 177.9,62.4 177.9,62.1 C177.9,61.875 177.7,61.825 177.525,61.825 L177.175,61.825 L177.175,62.4 Z" id="Shape" fill="#E87D1D"></path>
            </g>
        </g>
    </g>
</svg>