<svg height="27" viewBox="0 0 27 27" width="27" xmlns="http://www.w3.org/2000/svg"><path d="m810.769886 256.660002-7.308073-7.307966c1.691431-1.947346 2.718662-4.486025 2.718662-7.261803 0-6.114937-4.975054-11.090233-11.090394-11.090233-6.115341 0-11.090081 4.97561-11.090081 11.090547 0 6.114938 4.97474 11.08992 11.090081 11.08992 2.775503 0 5.314219-1.027217 7.26128-2.718623l7.3087 7.308281c.153253.15325.35424.229875.555226.229875.200673 0 .40166-.076625.554599-.229875.306819-.306501.306819-.803622 0-1.110123zm-25.199676-14.569769c0-5.24945 4.270658-9.520046 9.519871-9.520046 5.249526 0 9.520184 4.27091 9.520184 9.520046 0 5.249137-4.270658 9.519732-9.520184 9.519732-5.249213 0-9.519871-4.270595-9.519871-9.519732z" fill="#555559" transform="translate(-784 -231)"/></svg>