<?xml version="1.0" encoding="UTF-8"?>
<svg width="22px" height="22px" viewBox="0 0 22 22" version="1.1" xmlns="http://www.w3.org/2000/svg" xmlns:xlink="http://www.w3.org/1999/xlink">
    <!-- Generator: Sketch 52.4 (67378) - http://www.bohemiancoding.com/sketch -->
    <title>Shape</title>
    <desc>Created with Sketch.</desc>
    <g id="Navigation:-Dropdowns,-responsive-top-nav-and-footer-" stroke="none" stroke-width="1" fill="none" fill-rule="evenodd">
        <g id="Top-Nav-Breakpoints" transform="translate(-756.000000, -970.000000)" fill="#E87D1D" fill-rule="nonzero">
            <g id="Group-Copy" transform="translate(457.000000, 960.000000)">
                <path d="M320.812499,30.9081499 L314.857774,24.9535108 C316.235976,23.3667841 317.07298,21.2982309 317.07298,19.0364865 C317.07298,14.0539447 313.019232,10 308.036362,10 C303.053492,10 299,14.0542005 299,19.0367424 C299,24.0192842 303.053492,28.072973 308.036362,28.072973 C310.297883,28.072973 312.366467,27.2359817 313.952961,25.8577992 L319.908198,31.8126941 C320.03307,31.9375647 320.196837,32 320.360605,32 C320.524116,32 320.687883,31.9375647 320.812499,31.8126941 C321.0625,31.5629529 321.0625,31.1578911 320.812499,30.9081499 Z M300.279431,19.0364865 C300.279431,14.7591565 303.759226,11.2794119 308.036362,11.2794119 C312.313754,11.2794119 315.793549,14.7594124 315.793549,19.0364865 C315.793549,23.3135606 312.313754,26.7933052 308.036362,26.7933052 C303.759226,26.7933052 300.279431,23.3135606 300.279431,19.0364865 Z" id="Shape"></path>
            </g>
        </g>
    </g>
</svg>