<?xml version="1.0" encoding="utf-8"?>
<!-- Generator: Adobe Illustrator 22.1.0, SVG Export Plug-In . SVG Version: 6.00 Build 0)  -->
<svg version="1.1" id="Layer_1" xmlns="http://www.w3.org/2000/svg" xmlns:xlink="http://www.w3.org/1999/xlink" x="0px" y="0px"
	 viewBox="0 0 60 40" style="enable-background:new 0 0 60 40;" xml:space="preserve">
<style type="text/css">
	.st0{fill:#FFFFFF;}
	.st1{fill:#EFEFEF;}
	.st2{fill:#007CBE;}
</style>
<g>
	
		<image style="overflow:visible;opacity:0.13;" width="93" height="92" xlink:href="D4F67A55787E5E0E.png"  transform="matrix(0.48 0 0 0.48 -2.16 -2.16)">
	</image>
	<g>
		<path class="st0" d="M20.2,33.7c-8.7,0-15.8-7.1-15.8-15.8S11.5,2.2,20.2,2.2C28.9,2.2,36,9.3,36,18S28.9,33.7,20.2,33.7z"/>
		<path class="st1" d="M20.2,2.5c8.5,0,15.5,7,15.5,15.5s-7,15.5-15.5,15.5S4.7,26.5,4.7,18S11.7,2.5,20.2,2.5 M20.2,2
			c-8.8,0-16,7.2-16,16s7.2,16,16,16c8.8,0,16-7.2,16-16S29.1,2,20.2,2L20.2,2z"/>
	</g>
</g>
<g>
	<path class="st2" d="M25.3,16.9V19h-4v4h-2.1v-4h-4v-2.1h4v-4h2.1v4H25.3z"/>
</g>
</svg>
