<svg id="Layer_1" data-name="Layer 1" xmlns="http://www.w3.org/2000/svg" xmlns:xlink="http://www.w3.org/1999/xlink" viewBox="0 0 26 26"><defs><style>.cls-1{fill:none;}.cls-2{clip-path:url(#clip-path);}.cls-3{fill:#fff;}.cls-4{clip-path:url(#clip-path-2);}.cls-5{clip-path:url(#clip-path-3);}.cls-6{clip-path:url(#clip-path-4);}.cls-7{isolation:isolate;}</style><clipPath id="clip-path" transform="translate(6 6)"><polygon class="cls-1" points="6 10 0 5 6 0 6 4.5 14 4.5 14 5.5 6 5.5 6 10"/></clipPath><clipPath id="clip-path-2" transform="translate(6 6)"><rect class="cls-1" x="-1" y="-1" width="16" height="16"/></clipPath><clipPath id="clip-path-3" transform="translate(6 6)"><rect class="cls-1" x="-5" y="-5" width="24" height="20"/></clipPath><clipPath id="clip-path-4" transform="translate(6 6)"><rect class="cls-1" width="14" height="10"/></clipPath></defs><title>cta-arrow-white-left</title><g class="cls-2"><rect id="SVGID" class="cls-3" x="5" y="5" width="16" height="16"/><g class="cls-4"><rect id="SVGID-2" data-name="SVGID" class="cls-3" x="1" y="1" width="24" height="20"/><g class="cls-5"><rect id="SVGID-3" data-name="SVGID" class="cls-3" x="6" y="6" width="14" height="10"/><g class="cls-6"><rect class="cls-3" x="1" y="1" width="24" height="20"/></g><g class="cls-5"><g class="cls-7"><rect id="SVGID-4" data-name="SVGID" class="cls-3" x="5" y="5" width="16" height="16"/><g class="cls-4"><rect id="SVGID-5" data-name="SVGID" class="cls-3" x="6" y="6" width="14" height="10"/><g class="cls-6"><rect class="cls-3" width="26" height="26"/></g></g></g></g></g></g></g></svg>