<?xml version="1.0" encoding="UTF-8"?>
<svg width="82px" height="82px" viewBox="0 0 82 82" version="1.1" xmlns="http://www.w3.org/2000/svg" xmlns:xlink="http://www.w3.org/1999/xlink">
    <!-- Generator: Sketch 62 (91390) - https://sketch.com -->
    <title>Group 7</title>
    <desc>Created with Sketch.</desc>
    <g id="Home" stroke="none" stroke-width="1" fill="none" fill-rule="evenodd">
        <g id="Issue-Landing-Revised-Opt.C-Hybrid" transform="translate(-756.000000, -5144.000000)">
            <g id="Group-15-Copy" transform="translate(757.000000, 4694.000000)">
                <g id="1-copy-2" transform="translate(0.000000, 440.000000)">
                    <g id="Group-7" transform="translate(0.000000, 11.000000)">
                        <g id="thin-0611_microphone_mic_voice_recording" transform="translate(15.000000, 15.000000)">
                            <g id="Group" transform="translate(12.000000, 0.000000)" fill="#0071AD" fill-rule="nonzero">
                                <path d="M19.9726,48 L5.9726,48 C5.4198,48 4.9726,47.5528 4.9726,47 C4.9726,46.4472 5.42,46 5.9726,46 L19.9726,46 C20.5254,46 20.9726,46.4472 20.9726,47 C20.9726,47.5528 20.5254,48 19.9726,48 Z" id="Path"></path>
                                <path d="M13.0624,39.9708 C7.5516,39.9708 1.9726,36.3478 1.9726,29.422 L1.9726,10.5772 C1.9726,3.6494 7.5634,0.0254 13.0858,0.0254 C18.33,0.0254 23.9726,3.3272 23.9726,10.5772 L23.9726,29.422 C23.9726,32.6896 22.7832,35.4338 20.5312,37.3576 C18.5606,39.043 15.9082,39.9708 13.0624,39.9708 Z M13.086,2.0254 C8.6964,2.0254 3.9728,4.7012 3.9728,10.5772 L3.9728,29.422 C3.9728,35.297 8.6848,37.9708 13.0626,37.9708 C15.4318,37.9708 17.6232,37.213 19.2306,35.838 C21.0256,34.3048 21.9728,32.086 21.9728,29.422 L21.9728,10.5772 C21.9726,4.67 17.5098,2.0254 13.086,2.0254 Z" id="Shape"></path>
                                <path d="M22.9726,30 L2.9726,30 C2.4198,30 1.9726,29.5528 1.9726,29 C1.9726,28.4472 2.42,28 2.9726,28 L22.9726,28 C23.5254,28 23.9726,28.4472 23.9726,29 C23.9726,29.5528 23.5254,30 22.9726,30 Z" id="Path"></path>
                                <path d="M12.9726,48 C12.4198,48 11.9726,47.5528 11.9726,47 L11.9726,43 C11.9726,42.4472 12.4198,42 12.9726,42 C13.5254,42 13.9726,42.4472 13.9726,43 L13.9726,47 C13.9726,47.5528 13.5254,48 12.9726,48 Z" id="Path"></path>
                                <path d="M6.9394,22.96 C6.6796,22.96 6.4394,22.8594 6.2392,22.6592 C6.0596,22.4794 5.96,22.2392 5.96,21.96 C5.96,21.6992 6.0596,21.4394 6.2392,21.2598 C6.62,20.88 7.2792,20.88 7.6592,21.2598 C7.8398,21.4394 7.9394,21.6992 7.9394,21.96 C7.9394,22.2198 7.8398,22.4796 7.6592,22.6798 C7.46,22.8594 7.2198,22.96 6.9394,22.96 Z" id="Path"></path>
                                <path d="M13,22.96 C12.7392,22.96 12.4794,22.8594 12.2792,22.6798 C12.0996,22.4794 12,22.2198 12,21.96 C12,21.6992 12.0996,21.4394 12.2998,21.2392 C12.6396,20.8994 13.3194,20.8798 13.6992,21.2598 C13.8798,21.4394 14,21.6992 14,21.96 C14,22.2198 13.8798,22.4796 13.6992,22.6592 C13.5,22.8594 13.2598,22.96 13,22.96 Z" id="Path"></path>
                                <path d="M19.0196,22.96 C18.7598,22.96 18.5,22.8594 18.3204,22.6798 C18.1192,22.4796 18.0196,22.2198 18.0196,21.96 C18.0196,21.6992 18.1192,21.4394 18.2988,21.2598 C18.6796,20.88 19.3398,20.88 19.7188,21.2598 C19.9004,21.4394 20.0196,21.6992 20.0196,21.96 C20.0196,22.2198 19.9004,22.4796 19.7404,22.6592 C19.5196,22.8594 19.2792,22.96 19.0196,22.96 Z" id="Path"></path>
                                <path d="M9.96,25.9394 C9.6992,25.9394 9.46,25.8398 9.2598,25.6602 C9.0596,25.4394 8.96,25.1992 8.96,24.9394 C8.96,24.6796 9.0596,24.4198 9.2598,24.2402 C9.6396,23.8398 10.3194,23.8594 10.6798,24.2402 C10.8594,24.4198 10.96,24.6796 10.96,24.9394 C10.96,25.1992 10.8594,25.459 10.6798,25.6386 C10.4794,25.8398 10.2198,25.9394 9.96,25.9394 Z" id="Path"></path>
                                <path d="M15.9804,25.9394 C15.7186,25.9394 15.459,25.8398 15.2792,25.6386 C15.08,25.459 14.9804,25.1992 14.9804,24.9394 C14.9804,24.6796 15.08,24.4198 15.2792,24.2186 C15.6386,23.8592 16.2988,23.8592 16.6796,24.2186 C16.8788,24.4198 16.9804,24.6796 16.9804,24.9394 C16.9804,25.1992 16.8788,25.4394 16.6992,25.6386 C16.5,25.8398 16.2402,25.9394 15.9804,25.9394 Z" id="Path"></path>
                                <path d="M9.96,20.0196 C9.6992,20.0196 9.46,19.92 9.2598,19.7394 C9.0596,19.54 8.96,19.2792 8.96,19.0196 C8.96,18.76 9.0596,18.5 9.2392,18.3194 C9.6592,17.92 10.2792,17.9396 10.6592,18.2998 C10.8594,18.5 10.96,18.7598 10.96,19.0196 C10.96,19.2794 10.8594,19.54 10.6796,19.7198 C10.4794,19.92 10.2198,20.0196 9.96,20.0196 Z" id="Path"></path>
                                <path d="M15.9804,20.0196 C15.7186,20.0196 15.459,19.92 15.2792,19.7198 C15.08,19.54 14.9804,19.2792 14.9804,19.0196 C14.9804,18.76 15.08,18.5 15.2792,18.3194 C15.6386,17.9396 16.2988,17.9396 16.6796,18.3194 C16.8788,18.5 16.9804,18.7598 16.9804,19.0196 C16.9804,19.2794 16.879,19.54 16.6992,19.7198 C16.4804,19.92 16.2402,20.0196 15.9804,20.0196 Z" id="Path"></path>
                                <path d="M6.9394,17.0196 C6.6592,17.0196 6.3994,16.8994 6.2196,16.7198 C6.0398,16.5402 5.9394,16.2792 5.9394,16.0196 C5.9394,15.7394 6.04,15.5 6.2196,15.2998 C6.58,14.9394 7.2596,14.92 7.6396,15.2998 C7.8398,15.5 7.9394,15.7598 7.9394,16.0196 C7.9394,16.2794 7.8192,16.5196 7.6396,16.7198 C7.46,16.8994 7.1992,17.0196 6.9394,17.0196 Z" id="Path"></path>
                                <path d="M12.9794,17.0196 C12.7196,17.0196 12.4598,16.92 12.2792,16.7394 C12.08,16.5402 11.9794,16.2794 11.9794,16.0196 C11.9794,15.7394 12.08,15.4796 12.2792,15.2998 C12.659,14.92 13.2998,14.9394 13.6796,15.2998 C13.8798,15.4794 13.9794,15.7392 13.9794,16.0196 C13.9794,16.2794 13.8798,16.5402 13.6796,16.7198 C13.5,16.8994 13.2392,17.0196 12.9794,17.0196 Z" id="Path"></path>
                                <path d="M19,17.0196 C18.7402,17.0196 18.4804,16.8994 18.2792,16.7198 C18.0996,16.5196 18,16.2792 18,16.0196 C18,15.76 18.0996,15.5 18.2792,15.3194 C18.66,14.9396 19.3202,14.92 19.6992,15.2998 C19.9004,15.5 20,15.7598 20,16.0196 C20,16.2794 19.9004,16.5196 19.7188,16.7198 C19.5196,16.92 19.2598,17.0196 19,17.0196 Z" id="Path"></path>
                                <path d="M6.9394,11.0596 C6.6592,11.0596 6.3994,10.96 6.2196,10.7598 C6.04,10.58 5.9394,10.3194 5.9394,10.0596 C5.9394,9.7998 6.04,9.54 6.2198,9.3594 C6.5802,9 7.2598,8.9796 7.6398,9.3594 C7.8194,9.5596 7.9396,9.7998 7.9396,10.0596 C7.9396,10.3194 7.8194,10.58 7.6396,10.7598 C7.46,10.96 7.1992,11.0596 6.9394,11.0596 Z" id="Path"></path>
                                <path d="M12.9794,11.0596 C12.7196,11.0596 12.4598,10.96 12.2792,10.7794 C12.08,10.5802 11.9794,10.3194 11.9794,10.0596 C11.9794,9.7998 12.08,9.54 12.2792,9.3594 C12.659,8.9796 13.3192,8.9796 13.6796,9.3594 C13.8798,9.54 13.9794,9.7998 13.9794,10.0596 C13.9794,10.3194 13.8798,10.58 13.6796,10.7792 C13.5,10.96 13.2392,11.0596 12.9794,11.0596 Z" id="Path"></path>
                                <path d="M19,11.0596 C18.7402,11.0596 18.4804,10.96 18.2792,10.7794 C18.0996,10.58 18,10.3194 18,10.0596 C18,9.7998 18.0996,9.5596 18.2792,9.3594 C18.66,8.9796 19.3202,8.9796 19.6992,9.3594 C19.9004,9.5596 20,9.8194 20,10.0596 C20,10.3194 19.9004,10.5802 19.7188,10.7598 C19.5196,10.96 19.2598,11.0596 19,11.0596 Z" id="Path"></path>
                                <path d="M9.96,8.0596 C9.6992,8.0596 9.46,7.96 9.2598,7.7794 C9.0596,7.58 8.96,7.3194 8.96,7.0596 C8.96,6.7998 9.0596,6.5596 9.2392,6.3594 C9.62,5.9796 10.2998,5.9796 10.6796,6.3594 C10.8594,6.5596 10.96,6.7998 10.96,7.0596 C10.96,7.3194 10.8594,7.58 10.6796,7.7598 C10.4794,7.96 10.2198,8.0596 9.96,8.0596 Z" id="Path"></path>
                                <path d="M15.9804,8.0596 C15.7186,8.0596 15.459,7.96 15.2596,7.7598 C15.08,7.58 14.9804,7.3194 14.9804,7.0596 C14.9804,6.7998 15.08,6.54 15.2792,6.3594 C15.66,5.9796 16.2988,5.9796 16.6796,6.3398 C16.8788,6.54 16.9804,6.7998 16.9804,7.0596 C16.9804,7.3194 16.879,7.58 16.6796,7.7598 C16.5,7.96 16.2402,8.0596 15.9804,8.0596 Z" id="Path"></path>
                                <path d="M9.96,14.04 C9.6992,14.04 9.4394,13.9394 9.2598,13.7392 C9.08,13.5596 8.96,13.2998 8.96,13.04 C8.96,12.7792 9.0596,12.5194 9.2392,12.3398 C9.6396,11.96 10.2792,11.96 10.6592,12.3192 C10.8594,12.5196 10.96,12.7792 10.96,13.04 C10.96,13.2998 10.8594,13.5596 10.6798,13.7392 C10.4794,13.9394 10.2198,14.04 9.96,14.04 Z" id="Path"></path>
                                <path d="M15.9804,14.04 C15.7186,14.04 15.459,13.9394 15.2792,13.7598 C15.08,13.5596 14.9804,13.2998 14.9804,13.04 C14.9804,12.7792 15.08,12.5194 15.2792,12.3398 C15.6386,11.96 16.3202,11.96 16.6992,12.3398 C16.8788,12.5194 16.9804,12.7792 16.9804,13.04 C16.9804,13.2998 16.8788,13.5596 16.6992,13.7392 C16.5,13.9394 16.2402,14.04 15.9804,14.04 Z" id="Path"></path>
                            </g>
                            <rect id="Rectangle" x="1.9728" y="0" width="48" height="48"></rect>
                        </g>
                        <circle id="Oval" stroke="#0071AD" stroke-width="2" cx="40" cy="40" r="40"></circle>
                    </g>
                </g>
            </g>
        </g>
    </g>
</svg>