<?xml version="1.0" encoding="utf-8"?>
<!-- Generator: Adobe Illustrator 22.1.0, SVG Export Plug-In . SVG Version: 6.00 Build 0)  -->
<svg version="1.1" id="Layer_1" xmlns="http://www.w3.org/2000/svg" xmlns:xlink="http://www.w3.org/1999/xlink" x="0px" y="0px"
	 viewBox="0 0 96 96" style="enable-background:new 0 0 96 96;" xml:space="preserve">
<style type="text/css">
	.st0{clip-path:url(#SVGID_2_);}
	.st1{clip-path:url(#SVGID_4_);enable-background:new    ;}
	.st2{clip-path:url(#SVGID_6_);}
	.st3{clip-path:url(#SVGID_8_);fill:#006BE9;}
	.st4{clip-path:url(#SVGID_10_);}
	.st5{clip-path:url(#SVGID_12_);fill:#006BE9;}
</style>
<g>
	<defs>
		<path id="SVGID_1_" d="M39.8,69.5c16.9,0,30.7-13.7,30.7-30.7S56.8,8.2,39.8,8.2S9.2,21.9,9.2,38.9S22.9,69.5,39.8,69.5z
			 M63.9,68.1c-6.6,5.4-15,8.7-24.1,8.7c-20.9,0-37.9-17-37.9-37.9S18.9,1,39.8,1s37.9,17,37.9,37.9c0,9.2-3.3,17.6-8.7,24.1
			l25.9,25.9L89.8,94L63.9,68.1z"/>
	</defs>
	<clipPath id="SVGID_2_">
		<use xlink:href="#SVGID_1_"  style="overflow:visible;"/>
	</clipPath>
	<g class="st0">
		<defs>
			<rect id="SVGID_3_" x="-9.3" y="-10.2" width="115.4" height="115.4"/>
		</defs>
		<clipPath id="SVGID_4_">
			<use xlink:href="#SVGID_3_"  style="overflow:visible;"/>
		</clipPath>
		<g class="st1">
			<g>
				<defs>
					<rect id="SVGID_5_" x="-16.5" y="-17.4" width="129.9" height="129.9"/>
				</defs>
				<clipPath id="SVGID_6_">
					<use xlink:href="#SVGID_5_"  style="overflow:visible;"/>
				</clipPath>
				<g class="st2">
					<defs>
						<rect id="SVGID_7_" x="1.5" y="0.6" width="93.8" height="93.8"/>
					</defs>
					<clipPath id="SVGID_8_">
						<use xlink:href="#SVGID_7_"  style="overflow:visible;"/>
					</clipPath>
					<rect x="-16.1" y="-17" class="st3" width="129.1" height="129.1"/>
				</g>
				<g class="st2">
					<defs>
						<rect id="SVGID_9_" x="-9.3" y="-10.2" width="115.4" height="115.4"/>
					</defs>
					<clipPath id="SVGID_10_">
						<use xlink:href="#SVGID_9_"  style="overflow:visible;"/>
					</clipPath>
					<g class="st4">
						<defs>
							<rect id="SVGID_11_" x="1.5" y="0.6" width="93.8" height="93.8"/>
						</defs>
						<clipPath id="SVGID_12_">
							<use xlink:href="#SVGID_11_"  style="overflow:visible;"/>
						</clipPath>
						<rect x="-27.3" y="-28.3" class="st5" width="151.5" height="151.5"/>
					</g>
				</g>
			</g>
		</g>
	</g>
</g>
</svg>
