<?xml version="1.0" encoding="UTF-8"?>
<svg width="82px" height="82px" viewBox="0 0 82 82" version="1.1" xmlns="http://www.w3.org/2000/svg" xmlns:xlink="http://www.w3.org/1999/xlink">
    <!-- Generator: Sketch 62 (91390) - https://sketch.com -->
    <title>Group 7</title>
    <desc>Created with Sketch.</desc>
    <g id="Home" stroke="none" stroke-width="1" fill="none" fill-rule="evenodd">
        <g id="Issue-Landing-Revised-Opt.C-Hybrid" transform="translate(-756.000000, -4827.000000)">
            <g id="Group-15-Copy" transform="translate(757.000000, 4694.000000)">
                <g id="1" transform="translate(0.000000, 123.000000)">
                    <g id="Group-7" transform="translate(0.000000, 11.000000)">
                        <g id="thin-0016_bookmarks_reading_book" transform="translate(19.000000, 19.000000)">
                            <g id="Group" fill="#006BE9" fill-rule="nonzero">
                                <path d="M21.3716571,40.7916568 C20.9489143,40.7916568 20.5848,40.4810795 20.5237714,40.0584824 C20.0057143,36.4543494 8.73548571,36.0986222 1.74702857,36.7266176 C1.51097143,36.7483375 1.26994286,36.6664176 1.09251429,36.5061693 C0.915085714,36.3442108 0.813771429,36.1153824 0.813771429,35.8749244 L0.813771429,2.77330455 C0.813771429,2.53609602 0.912514286,2.30983295 1.08582857,2.14787443 C1.26,1.98677102 1.49262857,1.9091267 1.7304,1.91990114 C1.7304,1.91990114 3.08897143,2.01430568 5.26782857,2.27733864 C5.73822857,2.3349733 6.07302857,2.76081989 6.01611429,3.22925114 C5.95817143,3.6985375 5.53885714,4.02929545 5.0616,3.97576534 C3.99188571,3.84630114 3.12548571,3.75856648 2.52788571,3.70349716 L2.52788571,34.9493494 C5.95902857,34.705471 16.3601143,34.2512347 20.5153714,37.2374625 L20.5153714,34.7422409 C20.5153714,34.2695341 20.8986857,33.8871273 21.3725143,33.8871273 C21.8454857,33.8871273 22.2288,34.2695341 22.2288,34.7422409 L22.2288,39.9363722 C22.2288,40.3856489 21.8823429,40.7581364 21.4335429,40.7897756 C21.4126286,40.7916568 21.3925714,40.7916568 21.3716571,40.7916568 Z" id="Path"></path>
                                <path d="M21.3733714,40.7916568 C21.3332571,40.7916568 21.2921143,40.7882364 21.2502857,40.7832767 C20.7816,40.7148676 20.4567429,40.2821801 20.5237714,39.814604 C21.3582857,34.0391665 36.0101143,34.6538222 40.2171429,34.9495205 L40.2171429,3.6985375 C39.6111429,3.75189659 38.7354857,3.83638182 37.6825714,3.96242557 C37.2121714,4.01339034 36.7853143,3.68519773 36.7299429,3.21505625 C36.6730286,2.74576989 37.0078286,2.3199233 37.4782286,2.26382784 C39.5993143,2.01088523 41.0189143,1.91973011 41.0189143,1.91973011 C41.2582286,1.90963977 41.4876,1.98899432 41.6600571,2.14941364 C41.8325143,2.31154318 41.9314286,2.53695114 41.9314286,2.77330455 L41.9314286,35.8747534 C41.9314286,36.1152114 41.8309714,36.3440398 41.6535429,36.5059983 C41.4744,36.6664176 41.2534286,36.7432068 40.9973143,36.7264466 C34.0095429,36.1034108 22.7412,36.4593091 22.2205714,40.0583114 C22.1602286,40.484329 21.7935429,40.7916568 21.3733714,40.7916568 Z" id="Path"></path>
                                <path d="M21.3716571,35.5975256 C20.9506286,35.5975256 20.5873714,35.2901977 20.5246286,34.8676006 C20.2734857,33.1741335 16.3368,32.1635602 9.9936,32.1635602 C7.35771429,32.1635602 5.26011429,32.342279 5.2392,32.3439892 C5.00142857,32.3607494 4.76297143,32.2837892 4.58554286,32.1218307 C4.40811429,31.9598722 4.30765714,31.7310437 4.30765714,31.492125 L4.30765714,1.26180568 C4.30765714,1.02630739 4.40554286,0.800899432 4.57714286,0.638769886 C4.7496,0.476811364 4.9848,0.396601705 5.21657143,0.40823125 C7.92531429,0.572755114 21.4755429,1.64831705 22.2204,6.67792443 L22.2288,34.7422409 C22.2288,35.1898074 21.8838857,35.5622949 21.4352571,35.5956443 C21.4143429,35.5975256 21.3925714,35.5975256 21.3716571,35.5975256 Z M9.9936,30.453333 C15.0711429,30.453333 18.5893714,31.0613187 20.5153714,32.2687392 L20.5153714,6.80328409 C20.1437143,4.35492273 12.1062857,2.65974545 6.02177143,2.17865852 L6.02177143,30.5735619 C6.9024,30.5202028 8.33365714,30.453333 9.9936,30.453333 Z" id="Shape"></path>
                                <path d="M21.3733714,35.5975256 C21.3524571,35.5975256 21.3306857,35.5975256 21.3097714,35.5958153 C20.862,35.5624659 20.5153714,35.1899784 20.5153714,34.7424119 L20.5153714,6.80328409 C21.2712,1.64831705 34.8197143,0.572755114 37.5284571,0.40823125 C37.7712,0.396601705 37.9971429,0.477495455 38.1678857,0.638769886 C38.3403429,0.800728409 38.4373714,1.02630739 38.4373714,1.26180568 L38.4373714,31.492296 C38.4373714,31.7310438 38.3369143,31.9598722 38.1594857,32.1220017 C37.9820571,32.2841313 37.7326286,32.3624597 37.5065143,32.3441602 C37.4847429,32.34245 35.3871429,32.1637313 32.7504,32.1637313 C26.4089143,32.1637313 22.4713714,33.1741335 22.2202286,34.8677716 C22.1585143,35.2901977 21.7952571,35.5975256 21.3733714,35.5975256 Z M36.7232571,2.17951364 C30.6396,2.66128466 22.6004571,4.36244773 22.2204,6.92864375 L22.2288,32.2689102 C24.1539429,31.0613188 27.6730286,30.453504 32.7505714,30.453504 C34.4113714,30.453504 35.8426286,30.5203739 36.7232571,30.573733 L36.7232571,2.17951364 L36.7232571,2.17951364 Z" id="Shape"></path>
                            </g>
                            <rect id="Rectangle" x="0.954545455" y="0" width="41.0454545" height="41.0454545"></rect>
                        </g>
                        <circle id="Oval" stroke="#006BE9" stroke-width="2" cx="40" cy="40" r="40"></circle>
                    </g>
                </g>
            </g>
        </g>
    </g>
</svg>
