<?xml version="1.0" encoding="UTF-8"?>
<svg width="82px" height="82px" viewBox="0 0 82 82" version="1.1" xmlns="http://www.w3.org/2000/svg" xmlns:xlink="http://www.w3.org/1999/xlink">
    <!-- Generator: Sketch 62 (91390) - https://sketch.com -->
    <title>Group 7</title>
    <desc>Created with Sketch.</desc>
    <g id="Home" stroke="none" stroke-width="1" fill="none" fill-rule="evenodd">
        <g id="Issue-Landing-Revised-Opt.C-Hybrid" transform="translate(-756.000000, -4982.000000)">
            <g id="Group-15-Copy" transform="translate(757.000000, 4694.000000)">
                <g id="1-copy" transform="translate(0.000000, 278.000000)">
                    <g id="Group-7" transform="translate(0.000000, 11.000000)">
                        <g id="thin-0586_movie_video_camera_recording" transform="translate(16.000000, 16.000000)">
                            <g id="Group" transform="translate(0.000000, 10.000000)" fill="#006BE9" fill-rule="nonzero">
                                <path d="M46.377,23.746 L46.377,23.746 C46.0234,23.746 45.6798,23.6776 45.3496,23.539 L34.4882,18.168 C33.5956,17.795 32.9824,16.914 32.9824,15.9492 L32.9824,9.998 C32.9824,9.0498 33.6132,8.1474 34.5528,7.7538 L45.3282,2.4344 C47.254,1.622 48.9824,2.996 48.9824,4.6532 L48.9824,21.2948 C48.9824,21.953 48.6856,22.5976 48.166,23.0624 C47.6738,23.504 47.0372,23.746 46.377,23.746 Z M46.4004,4.2042 C46.3184,4.2042 46.2364,4.2208 46.1562,4.254 L35.3828,9.5734 C35.1308,9.6808 34.9824,9.8526 34.9824,9.9982 L34.9824,15.9494 C34.9824,16.0978 35.127,16.2698 35.3184,16.3498 L46.1798,21.7208 C46.2052,21.7286 46.2912,21.7462 46.377,21.7462 L46.377,21.7462 C46.543,21.7462 46.709,21.6838 46.832,21.5724 C46.9278,21.4864 46.9824,21.3848 46.9824,21.295 L46.9824,4.6534 C46.9824,4.4502 46.7226,4.2042 46.4004,4.2042 Z" id="Shape"></path>
                                <path d="M32.1524,26 L3.7432,26 C2.1954,26 0.9824,24.7168 0.9824,23.08 L0.9824,2.8652 C0.9824,1.2314 2.169,0 3.7432,0 L32.1524,0 C33.7402,0 34.9824,1.2588 34.9824,2.8652 L34.9824,23.08 C34.9824,24.6894 33.7128,26 32.1524,26 Z M3.7432,2 C3.1816,2 2.9824,2.4658 2.9824,2.8652 L2.9824,23.08 C2.9824,23.5234 3.2206,24 3.7432,24 L32.1524,24 C32.672,24 32.9824,23.5332 32.9824,23.08 L32.9824,2.8652 C32.9824,2.3642 32.6328,2 32.1524,2 L3.7432,2 Z" id="Shape"></path>
                                <path d="M11.6846,17.9316 C8.9472,17.9316 6.7208,15.705 6.7208,12.9668 C6.7208,10.2294 8.9474,8.002 11.6846,8.002 C14.4218,8.002 16.6494,10.2296 16.6494,12.9668 C16.6494,15.705 14.4218,17.9316 11.6846,17.9316 Z M11.6846,10.002 C10.0498,10.002 8.7208,11.332 8.7208,12.9668 C8.7208,14.6016 10.05,15.9316 11.6846,15.9316 C13.3192,15.9316 14.6494,14.6016 14.6494,12.9668 C14.6494,11.332 13.3194,10.002 11.6846,10.002 Z" id="Shape"></path>
                                <path d="M24.2802,17.9316 C21.5428,17.9316 19.3154,15.705 19.3154,12.9668 C19.3154,10.2294 21.543,8.002 24.2802,8.002 C27.0174,8.002 29.244,10.2296 29.244,12.9668 C29.2442,15.705 27.0176,17.9316 24.2802,17.9316 Z M24.2802,10.002 C22.6454,10.002 21.3154,11.332 21.3154,12.9668 C21.3154,14.6016 22.6454,15.9316 24.2802,15.9316 C25.914,15.9316 27.244,14.6016 27.244,12.9668 C27.244,11.332 25.914,10.002 24.2802,10.002 Z" id="Shape"></path>
                                <path d="M24.2792,10.002 L11.6846,10.002 C11.1318,10.002 10.6846,9.5548 10.6846,9.002 C10.6846,8.4492 11.1318,8.002 11.6846,8.002 L24.2794,8.002 C24.8322,8.002 25.2794,8.4492 25.2794,9.002 C25.2794,9.5548 24.832,10.002 24.2792,10.002 Z" id="Path"></path>
                            </g>
                            <rect id="Rectangle" x="0.9726" y="0.0004" width="48" height="48"></rect>
                        </g>
                        <circle id="Oval" stroke="#006BE9" stroke-width="2" cx="40" cy="40" r="40"></circle>
                    </g>
                </g>
            </g>
        </g>
    </g>
</svg>
