<svg version="1.1" id="Layer_1" xmlns="http://www.w3.org/2000/svg" xmlns:xlink="http://www.w3.org/1999/xlink" x="0" y="0" viewBox="0 0 60 40" xml:space="preserve"><image width="93" height="92" xlink:href="D4F67A55787E5E0E.png" transform="matrix(.48 0 0 .48 -2.16 -2.16)" overflow="visible" opacity=".13"/><path d="M20.2 33.7c-8.7 0-15.8-7.1-15.8-15.8S11.5 2.2 20.2 2.2C28.9 2.2 36 9.3 36 18s-7.1 15.7-15.8 15.7z" fill="#fff"/><path d="M20.2 2.5c8.5 0 15.5 7 15.5 15.5s-7 15.5-15.5 15.5S4.7 26.5 4.7 18s7-15.5 15.5-15.5m0-.5c-8.8 0-16 7.2-16 16s7.2 16 16 16 16-7.2 16-16-7.1-16-16-16z" fill="#efefef"/><path d="M25.3 16.9V19h-4v4h-2.1v-4h-4v-2.1h4v-4h2.1v4h4z" fill="#007cbe"/></svg>