<svg width="240" height="26" viewBox="0 0 240 26" xmlns="http://www.w3.org/2000/svg"><g id="Expertise" stroke="none" stroke-width="1" fill="none" fill-rule="evenodd"><g fill="#808184" fill-rule="nonzero" id="Group-8-Copy"><path d="M9.375 1h2.071L13 21h-1.761l-.363-5.826H4.402L1.761 21H0L9.375 1zm1.45 12.661l-.622-11.26h-.052L5.076 13.66h5.749zm11.358 4.454h-.05C21.362 19.904 19.825 21 18.237 21c-3.023 0-3.843-2.712-2.818-8.02.973-5.307 2.87-8.018 5.841-8.018 1.691 0 2.665 1.038 2.716 2.653h.051L25.463 0H27l-3.894 20.596h-1.384l.461-2.48zm-3.433 1.443c1.537 0 3.126-.866 4.202-6.577 1.025-5.654-.205-6.577-1.742-6.577s-3.126.865-4.202 6.577c-1.025 5.654.205 6.577 1.742 6.577zM28 6h1.618l.455 13.075h.05L35.383 6H37l-6.421 15h-1.72zm10.77 3.892C39.378 6.727 40.998 5 43.834 5c2.785 0 3.494 1.67 3.038 4.086l-1.67 9.036c-.203.864 0 1.266.556 1.266h.405l-.202 1.267c-.304.115-.557.172-.76.172-1.215 0-1.924-.287-1.57-1.899l.102-.518h-.05C42.668 20.424 41.2 21 39.732 21c-2.33 0-3.09-1.67-2.583-4.317.405-2.014 1.468-3.625 3.494-4.201l3.038-.92c1.114-.346 1.418-.634 1.772-2.418.406-1.957-.455-2.648-1.823-2.648-1.823 0-2.835 1.267-3.24 3.454h-1.62v-.058zm6.077 2.13h-.05c-.254.518-1.166.863-1.824 1.036l-1.316.402c-1.621.46-2.583 1.324-2.938 3.166-.354 1.784.254 2.993 1.57 2.993 1.874 0 3.444-1.612 3.95-4.317l.608-3.28zm6.11-6.668h1.425L51.96 7.54h.053C53.122 5.827 54.653 5 56.078 5c2.112 0 3.327 1.24 2.799 4.192L56.659 21h-1.584L57.24 9.664c.422-2.184-.158-3.247-1.795-3.247-1.848 0-3.432 1.594-3.855 4.015L49.584 20.94H48l2.957-15.587zM69.832 15.59C68.954 18.813 66.94 21 64.46 21c-2.894 0-4.185-2.245-3.049-8 .982-5.295 3.204-8 6.2-8 2.584 0 3.72 1.727 3.307 4.892h-1.55c.31-2.36-.362-3.453-2.015-3.453s-3.307 1.15-4.34 6.561c-1.085 5.755.207 6.504 1.705 6.504 1.55 0 2.842-1.267 3.565-3.972h1.55v.058zm5.364-9.478h1.683L73.682 21H72l3.196-14.888zM76.318 1H78l-.617 2.865h-1.682L76.318 1zm3.638 4.354h1.425L80.96 7.54h.053C82.172 5.827 83.65 5 85.076 5c2.164 0 3.325 1.24 2.798 4.192L85.657 21h-1.584l2.164-11.336c.423-2.184-.158-3.247-1.794-3.247-1.848 0-3.379 1.594-3.854 4.015L78.584 20.94H77l2.956-15.587zm18.634-.007H100L97.283 19.58c-.836 4.28-2.665 6.421-5.8 6.421-2.717 0-3.815-1.562-3.397-3.76h1.568c-.314 1.446.784 2.314 2.194 2.314 1.934 0 3.188-1.447 3.71-4.166l.47-2.43h-.052c-.888 1.852-2.35 2.778-3.762 2.778-2.142 0-4.023-1.562-2.77-7.695C90.439 7.72 92.372 5 95.403 5c1.515 0 2.56.983 2.717 2.719h.052l.418-2.372zM92.84 19.29c1.83 0 3.24-1.504 4.18-6.421.941-4.918.105-6.422-1.724-6.422-1.88 0-3.24 1.504-4.18 6.422-.94 4.917-.157 6.421 1.724 6.421zm26.668-5.518c-1.162 4.61-3.643 7.228-7.023 7.228-3.855 0-5.386-3.187-3.96-10.472C109.95 3.244 112.749 0 116.604 0c3.802 0 4.858 2.902 4.224 6.26h-1.69c.529-2.788-.37-4.723-2.798-4.723-2.693 0-4.805 2.39-6.125 8.991-1.32 6.545-.106 8.992 2.534 8.992 2.376 0 4.172-2.22 5.017-5.69h1.742v-.058zM128.168 5c3.224 0 4.558 2.705 3.446 8-1.112 5.295-3.502 8-6.782 8-3.224 0-4.558-2.647-3.446-8 1.167-5.295 3.558-8 6.782-8zm-2.947 14.561c1.835 0 3.614-1.669 4.67-6.561 1-4.892-.111-6.561-2.001-6.561s-3.67 1.669-4.614 6.561c-1.056 4.892.055 6.561 1.945 6.561zm10.651-14.208h1.41l-.418 2.176h.052C137.961 5.824 139.37 5 140.937 5c1.671 0 2.506 1.176 2.402 2.765h.052C144.331 6 145.637 5 147.411 5c1.933 0 2.977 1.235 2.455 4.059L147.621 21h-1.567l2.193-11.647c.366-1.882-.208-2.824-1.618-2.824-1.567 0-3.133 1.589-3.551 4L141.094 21h-1.567l2.193-11.647c.366-1.882-.209-2.824-1.618-2.824-1.567 0-3.133 1.589-3.551 4L134.567 21H133l2.872-15.647zm18 0h1.41l-.418 2.176h.052C156.013 5.824 157.37 5 158.937 5c1.671 0 2.506 1.176 2.402 2.765h.052C162.331 6 163.637 5 165.411 5c1.933 0 2.977 1.235 2.455 4.059L165.621 21h-1.567l2.193-11.647c.366-1.882-.208-2.824-1.618-2.824-1.567 0-3.133 1.589-3.551 4L159.094 21h-1.567l2.193-11.647c.366-1.882-.209-2.824-1.618-2.824-1.567 0-3.133 1.589-3.551 4L152.567 21H151l2.872-15.647zM173.4 5h1.572l-2.097 11.04c-.472 2.54.105 3.484 1.783 3.484 1.783 0 3.356-1.594 3.776-4.015L180.427 5H182l-2.99 15.646h-1.415l.42-2.185h-.053C176.86 20.232 175.34 21 173.872 21c-2.099 0-3.305-1.24-2.728-4.192L173.399 5zm11.557.354h1.425l-.422 2.185h.053C187.174 5.827 188.653 5 190.078 5c2.112 0 3.327 1.24 2.799 4.192L190.659 21h-1.584l2.165-11.336c.422-2.184-.211-3.247-1.795-3.247-1.848 0-3.432 1.594-3.855 4.015l-2.006 10.509H182l2.957-15.587zm11.269.758h1.699L194.698 21H193l3.226-14.888zM197.302 1H199l-.623 2.865h-1.698L197.302 1zm4.165 5.79h-2.021l.327-1.463h2.021l.82-4.327h1.638l-.82 4.327H206l-.328 1.462h-2.567l-2.24 11.112c-.218 1.228.165 1.637 1.202 1.637.328 0 .656-.058 1.093-.175l-.328 1.462c-.218.117-.655.175-1.202.175-2.184 0-2.95-.643-2.512-2.69l2.349-11.52zm6.729-.678h1.683L206.682 21H205l3.196-14.888zM209.318 1H211l-.617 2.865h-1.682L209.318 1zm9.536 14.59c-.824 3.223-2.832 5.41-5.407 5.41-2.884 0-4.17-2.245-3.038-8 .978-5.295 3.193-8 6.23-8 3.04 0 3.966 2.302 2.988 7.424l-.103.634h-7.467l-.103.69c-.876 4.432.257 5.756 1.802 5.756 1.648 0 2.884-1.267 3.605-3.972h1.493v.058zm-.772-3.971c.67-3.799-.052-5.18-1.957-5.18s-3.141 1.381-3.914 5.18h5.87zm7.636 1.41c-1.868-.86-2.296-2.065-2.029-3.613.588-3.154 2.67-4.416 5.072-4.416 2.67 0 3.631 1.434 3.097 4.244l-.107.459h-1.601l.106-.46c.428-2.006-.32-2.81-1.761-2.81-1.87 0-2.777 1.09-3.097 2.581-.214 1.09-.054 1.893 1.441 2.581l2.136.975c1.762.745 2.19 2.18 1.869 3.9-.48 2.58-2.296 4.53-5.286 4.53-2.883 0-4.058-1.262-3.364-4.703l.107-.458h1.602l-.107.401c-.427 2.237.267 3.384 2.029 3.384 1.709 0 3.043-1.033 3.31-2.753.267-1.319-.053-2.18-1.335-2.81l-2.082-1.032zM237 4c1.65 0 3 1.3 3 3s-1.35 3-3 3-3-1.3-3-3 1.35-3 3-3zm0 5.55c1.4 0 2.45-1.1 2.45-2.55 0-1.45-1.05-2.55-2.45-2.55-1.4 0-2.45 1.1-2.45 2.55 0 1.45 1.05 2.55 2.45 2.55zm-1.15-4.3h1.35c.85 0 1.2.35 1.2 1s-.4.9-.9.95l1 1.55h-.6l-.95-1.5h-.6v1.5h-.55v-3.5h.05zm.5 1.55h.55c.5 0 .9 0 .9-.6 0-.45-.4-.55-.75-.55h-.7V6.8z" id="Shape"/></g></g></svg>