<svg id="Layer_1" data-name="Layer 1" xmlns="http://www.w3.org/2000/svg" viewBox="0 0 26 26"><defs><style>.cls-1{fill:none}.cls-3{fill:#fff}.cls-4{clip-path:url(#clip-path-2)}.cls-6{clip-path:url(#clip-path-4)}</style><clipPath id="clip-path" transform="translate(6 6)"><path class="cls-1" d="M6 10L0 5l6-5v4.5h8v1H6V10z"/></clipPath><clipPath id="clip-path-2" transform="translate(6 6)"><path class="cls-1" d="M-1-1h16v16H-1z"/></clipPath><clipPath id="clip-path-3" transform="translate(6 6)"><path class="cls-1" d="M-5-5h24v20H-5z"/></clipPath><clipPath id="clip-path-4" transform="translate(6 6)"><path class="cls-1" d="M0 0h14v10H0z"/></clipPath></defs><g clip-path="url(#clip-path)"><path id="SVGID" class="cls-3" d="M5 5h16v16H5z"/><g class="cls-4"><path id="SVGID-2" data-name="SVGID" class="cls-3" d="M1 1h24v20H1z"/><g clip-path="url(#clip-path-3)"><path id="SVGID-3" data-name="SVGID" class="cls-3" d="M6 6h14v10H6z"/><g class="cls-6"><path class="cls-3" d="M1 1h24v20H1z"/></g><g style="isolation:isolate"><path id="SVGID-4" data-name="SVGID" class="cls-3" d="M5 5h16v16H5z"/><g class="cls-4"><path id="SVGID-5" data-name="SVGID" class="cls-3" d="M6 6h14v10H6z"/><g class="cls-6"><path class="cls-3" d="M0 0h26v26H0z"/></g></g></g></g></g></g></svg>