<svg version="1.1" id="Layer_2" xmlns="http://www.w3.org/2000/svg" x="0" y="0" viewBox="0 0 96 96" xml:space="preserve"><path id="a_1_" d="M34.3 82.5c-1.3 4.5-5.5 7.9-10.4 7.9s-9.1-3.3-10.4-7.9H.2v-5.9h13.2c1.3-4.5 5.5-7.9 10.4-7.9S33 72 34.3 76.5h60.5v5.9H34.3zM81.5 51c-1.3 4.5-5.5 7.9-10.4 7.9S62 55.5 60.7 51H.2v-6h60.5c1.3-4.5 5.5-7.9 10.4-7.9s9.1 3.3 10.4 7.9h13.2v6H81.5zM50 19.5c-1.3 4.5-5.5 7.9-10.4 7.9s-9.1-3.3-10.4-7.9H.2v-5.9h29c1.3-4.5 5.5-7.9 10.4-7.9S48.8 9 50 13.5h44.7v5.9H50zm-10.4 1.9c2.7 0 4.9-2.2 4.9-4.9s-2.2-4.9-4.9-4.9-4.9 2.2-4.9 4.9 2.2 4.9 4.9 4.9zm31.5 31.5c2.7 0 4.9-2.2 4.9-4.9s-2.2-4.9-4.9-4.9-4.9 2.2-4.9 4.9 2.2 4.9 4.9 4.9zM23.9 84.4c2.7 0 4.9-2.2 4.9-4.9s-2.2-4.9-4.9-4.9-4.9 2.2-4.9 4.9 2.2 4.9 4.9 4.9z" fill="#0f388a"/></svg>