<svg width="82" height="82" viewBox="0 0 82 82" xmlns="http://www.w3.org/2000/svg"><g id="Home" stroke="none" stroke-width="1" fill="none" fill-rule="evenodd"><g id="Issue-Landing-Revised-Opt.C-Hybrid" transform="translate(-756 -5144)"><g id="Group-15-Copy" transform="translate(757 4694)"><g id="1-copy-2" transform="translate(0 440)"><g id="Group-7" transform="translate(0 11)"><g id="thin-0611_microphone_mic_voice_recording" transform="translate(15 15)"><g id="Group" transform="translate(12)" fill="#0071AD" fill-rule="nonzero"><path d="M19.973 48h-14a1 1 0 110-2h14a1 1 0 110 2z" id="Path"/><path d="M13.062 39.97c-5.51 0-11.09-3.622-11.09-10.548V10.577C1.973 3.65 7.564.025 13.087.025c5.244 0 10.887 3.302 10.887 10.552v18.845c0 3.268-1.19 6.012-3.442 7.936-1.97 1.685-4.623 2.613-7.469 2.613zm.024-37.945c-4.39 0-9.113 2.676-9.113 8.552v18.845c0 5.875 4.712 8.549 9.09 8.549 2.369 0 4.56-.758 6.168-2.133 1.795-1.533 2.742-3.752 2.742-6.416V10.577c0-5.907-4.463-8.552-8.887-8.552z" id="Shape"/><path d="M22.973 30h-20a1 1 0 110-2h20a1 1 0 110 2zm-10 18a1 1 0 01-1-1v-4a1 1 0 112 0v4a1 1 0 01-1 1zM6.94 22.96c-.26 0-.5-.1-.7-.3a.965.965 0 01-.28-.7 1 1 0 01.28-.7c.38-.38 1.04-.38 1.42 0a1 1 0 01.28.7c0 .26-.1.52-.28.72-.2.18-.44.28-.72.28zm6.06 0c-.26 0-.52-.1-.72-.28-.18-.2-.28-.46-.28-.72 0-.26.1-.52.3-.72.34-.34 1.02-.36 1.4.02.18.18.3.44.3.7 0 .26-.12.52-.3.7-.2.2-.44.3-.7.3zm6.02 0a1 1 0 01-.7-.28 1.015 1.015 0 01-.021-1.42c.38-.38 1.04-.38 1.42 0 .181.18.3.44.3.7 0 .26-.119.52-.279.7-.22.2-.46.3-.72.3zm-9.06 2.98c-.26 0-.5-.1-.7-.28-.2-.22-.3-.46-.3-.72 0-.26.1-.52.3-.7.38-.4 1.06-.38 1.42 0a1 1 0 01.28.7 1 1 0 01-.28.699c-.2.2-.46.3-.72.3zm6.02 0a.934.934 0 01-.7-.301.938.938 0 01-.3-.7c0-.26.1-.52.3-.72.359-.36 1.019-.36 1.4 0 .199.2.3.46.3.72 0 .26-.101.5-.28.7-.2.2-.46.3-.72.3zm-6.02-5.92c-.26 0-.5-.1-.7-.28a1.015 1.015 0 01-.02-1.42c.42-.4 1.04-.38 1.42-.02a1.015 1.015 0 01.02 1.42c-.2.2-.46.3-.72.3zm6.02 0a.937.937 0 01-.7-.3.94.94 0 01-.3-.7c0-.26.1-.52.3-.7.359-.38 1.019-.38 1.4 0 .199.18.3.44.3.7 0 .26-.101.52-.28.7-.22.2-.46.3-.72.3zm-9.04-3c-.28 0-.54-.12-.72-.3a1 1 0 01-.28-.7c0-.28.1-.52.28-.72.36-.36 1.04-.38 1.42 0 .2.2.3.46.3.72 0 .26-.12.5-.3.7-.18.18-.44.3-.7.3zm6.04 0a1 1 0 01-.7-.28c-.2-.2-.3-.46-.3-.72 0-.28.1-.54.3-.72.379-.38 1.02-.36 1.4 0 .2.18.3.44.3.72 0 .26-.1.52-.3.7-.18.18-.44.3-.7.3zm6.02 0c-.26 0-.52-.12-.72-.3-.18-.2-.28-.44-.28-.7a1 1 0 01.28-.7c.38-.38 1.04-.4 1.42-.02a1.011 1.011 0 01.019 1.42c-.2.2-.46.3-.719.3zM6.94 11.06a.95.95 0 01-.72-.3 1 1 0 01-.28-.7 1 1 0 01.28-.7c.36-.36 1.04-.38 1.42 0 .18.2.3.44.3.7 0 .26-.12.52-.3.7-.18.2-.44.3-.7.3zm6.04 0a1 1 0 01-.7-.28c-.2-.2-.3-.46-.3-.72 0-.26.1-.52.3-.7.379-.38 1.04-.38 1.4 0 .2.18.3.44.3.7 0 .26-.1.52-.3.72a1 1 0 01-.7.28zm6.02 0c-.26 0-.52-.1-.72-.28a1.038 1.038 0 010-1.42c.38-.38 1.04-.38 1.42 0a1 1 0 01.3.7.994.994 0 01-1 1zm-9.04-3c-.26 0-.5-.1-.7-.28a1.013 1.013 0 01-.02-1.42c.38-.38 1.06-.38 1.44 0 .18.2.28.44.28.7a1 1 0 01-.28.7c-.2.2-.46.3-.72.3zm6.02 0c-.261 0-.521-.1-.72-.3a1 1 0 01-.28-.7c0-.26.1-.52.3-.7.38-.38 1.019-.38 1.4-.02.199.2.3.46.3.72 0 .26-.101.52-.3.7-.18.2-.44.3-.7.3zm-6.02 5.98c-.26 0-.52-.1-.7-.3-.18-.18-.3-.44-.3-.7a1 1 0 01.28-.7c.4-.38 1.04-.38 1.42-.02a1.016 1.016 0 01.02 1.42c-.2.2-.46.3-.72.3zm6.02 0a1 1 0 01-.7-.28c-.2-.2-.3-.46-.3-.72 0-.26.1-.52.3-.7.359-.38 1.04-.38 1.42 0a1 1 0 01.28.7 1 1 0 01-.28.7c-.2.2-.46.3-.72.3z" id="Path"/></g><path id="Rectangle" d="M1.973 0h48v48h-48z"/></g><circle id="Oval" stroke="#0071AD" stroke-width="2" cx="40" cy="40" r="40"/></g></g></g></g></g></svg>