<svg version="1.1" id="Layer_1" xmlns="http://www.w3.org/2000/svg" xmlns:xlink="http://www.w3.org/1999/xlink" x="0" y="0" viewBox="0 0 96 96" xml:space="preserve"><style>.st2{clip-path:url(#SVGID_6_)}</style><defs><path id="SVGID_1_" d="M39.8 69.5c16.9 0 30.7-13.7 30.7-30.7S56.8 8.2 39.8 8.2 9.2 21.9 9.2 38.9s13.7 30.6 30.6 30.6zm24.1-1.4c-6.6 5.4-15 8.7-24.1 8.7-20.9 0-37.9-17-37.9-37.9S18.9 1 39.8 1s37.9 17 37.9 37.9c0 9.2-3.3 17.6-8.7 24.1l25.9 25.9-5.1 5.1-25.9-25.9z"/></defs><clipPath id="SVGID_2_"><use xlink:href="#SVGID_1_" overflow="visible"/></clipPath><g clip-path="url(#SVGID_2_)"><defs><path id="SVGID_3_" d="M-9.3-10.2h115.4v115.4H-9.3z"/></defs><clipPath id="SVGID_4_"><use xlink:href="#SVGID_3_" overflow="visible"/></clipPath><g clip-path="url(#SVGID_4_)"><defs><path id="SVGID_5_" d="M-16.5-17.4h129.9v129.9H-16.5z"/></defs><clipPath id="SVGID_6_"><use xlink:href="#SVGID_5_" overflow="visible"/></clipPath><g class="st2"><defs><path id="SVGID_7_" d="M1.5.6h93.8v93.8H1.5z"/></defs><clipPath id="SVGID_8_"><use xlink:href="#SVGID_7_" overflow="visible"/></clipPath><path clip-path="url(#SVGID_8_)" fill="#052049" d="M-16.1-17H113v129.1H-16.1z"/></g><g class="st2"><defs><path id="SVGID_9_" d="M-9.3-10.2h115.4v115.4H-9.3z"/></defs><clipPath id="SVGID_10_"><use xlink:href="#SVGID_9_" overflow="visible"/></clipPath><g clip-path="url(#SVGID_10_)"><defs><path id="SVGID_11_" d="M1.5.6h93.8v93.8H1.5z"/></defs><clipPath id="SVGID_12_"><use xlink:href="#SVGID_11_" overflow="visible"/></clipPath><path clip-path="url(#SVGID_12_)" fill="#007cbe" d="M-27.3-28.3h151.5v151.5H-27.3z"/></g></g></g></g></svg>