<svg version="1.1" id="directions" xmlns="http://www.w3.org/2000/svg" xmlns:xlink="http://www.w3.org/1999/xlink" x="0" y="0" viewBox="0 0 96 96" xml:space="preserve"><defs><path id="SVGID_1_" d="M48.8 12.3l2.8 3.7C29.8 32.6 19.1 48.7 19.1 64.3v20.9h-4.7V64.3c0-17.3 11.5-34.7 34.4-52z"/></defs><clipPath id="SVGID_2_"><use xlink:href="#SVGID_1_" overflow="visible"/></clipPath><g clip-path="url(#SVGID_2_)"><defs><path id="SVGID_3_" d="M-.5-1.5H99.9V98.9H-.5z"/></defs><clipPath id="SVGID_4_"><use xlink:href="#SVGID_3_" overflow="visible"/></clipPath><g clip-path="url(#SVGID_4_)"><defs><path id="SVGID_5_" d="M-.5-1.5H99.9V98.9H-.5z"/></defs><clipPath id="SVGID_6_"><use xlink:href="#SVGID_5_" overflow="visible"/></clipPath><g clip-path="url(#SVGID_6_)"><defs><path id="SVGID_7_" d="M12 11h40.8v75.3H12z"/></defs><clipPath id="SVGID_8_"><use xlink:href="#SVGID_7_" overflow="visible"/></clipPath><g opacity=".4" clip-path="url(#SVGID_8_)"><defs><path id="SVGID_9_" d="M-.5-1.5H99.9V98.9H-.5z"/></defs><clipPath id="SVGID_10_"><use xlink:href="#SVGID_9_" overflow="visible"/></clipPath><g clip-path="url(#SVGID_10_)"><defs><path id="SVGID_11_" d="M-.5-1.5H99.9V98.9H-.5z"/></defs><clipPath id="SVGID_12_"><use xlink:href="#SVGID_11_" overflow="visible"/></clipPath><g clip-path="url(#SVGID_12_)"><defs><path id="SVGID_13_" d="M12 11h40.8v75.3H12z"/></defs><clipPath id="SVGID_14_"><use xlink:href="#SVGID_13_" overflow="visible"/></clipPath><path clip-path="url(#SVGID_14_)" fill="#052049" d="M-16.2-17.2h131.8v131.8H-16.2z"/></g></g></g></g></g></g><defs><path id="SVGID_15_" d="M75.7 16.6H46.5v-4.7h37.8v37.8h-4.7V19.5C60.8 34.8 51.5 49.8 51.5 64.3v20.9h-4.7V64.3c0-15.9 9.7-31.8 28.9-47.7z"/></defs><clipPath id="SVGID_16_"><use xlink:href="#SVGID_15_" overflow="visible"/></clipPath><g clip-path="url(#SVGID_16_)"><defs><path id="SVGID_17_" d="M-.5-1.5H99.9V98.9H-.5z"/></defs><clipPath id="SVGID_18_"><use xlink:href="#SVGID_17_" overflow="visible"/></clipPath><g clip-path="url(#SVGID_18_)"><defs><path id="SVGID_19_" d="M-.5-1.5H99.9V98.9H-.5z"/></defs><clipPath id="SVGID_20_"><use xlink:href="#SVGID_19_" overflow="visible"/></clipPath><g clip-path="url(#SVGID_20_)"><defs><path id="SVGID_21_" d="M-.5-1.5H99.9V98.9H-.5z"/></defs><clipPath id="SVGID_22_"><use xlink:href="#SVGID_21_" overflow="visible"/></clipPath><g clip-path="url(#SVGID_22_)"><defs><path id="SVGID_23_" d="M43.4 11h43.9v75.3H43.4z"/></defs><clipPath id="SVGID_24_"><use xlink:href="#SVGID_23_" overflow="visible"/></clipPath><path clip-path="url(#SVGID_24_)" fill="#007cbe" d="M-16.2-17.2h131.8v131.8H-16.2z"/></g></g></g></g></svg>