<svg version="1.1" id="locations" xmlns="http://www.w3.org/2000/svg" xmlns:xlink="http://www.w3.org/1999/xlink" x="0" y="0" viewBox="0 0 96 96" xml:space="preserve"><defs><path id="SVGID_1_" d="M26.8 27.3h3.8v9.5h-3.8v-9.5zm0 20.3h3.8v9.5h-3.8v-9.5zm12.7-20.3h3.8v9.5h-3.8v-9.5zm0 20.3h3.8v9.5h-3.8v-9.5zm15.3 0h3.8v9.5h-3.8v-9.5zm12.7 0h3.8v9.5h-3.8v-9.5zm0 17.8h3.8v9.5h-3.8v-9.5zm-40.7 0h3.8v9.5h-3.8v-9.5zM51 7v3.8H21.7V7H51zm7.6 30.5H84V87H14.1V13h44.5v24.5zm-3.8 45.7V71.8H43.3v11.4h11.5zm3.8 0h21.6V41.3H54.8V16.8H17.9v66.4h21.6V67.9h19.1v15.3z"/></defs><clipPath id="SVGID_2_"><use xlink:href="#SVGID_1_" overflow="visible"/></clipPath><g clip-path="url(#SVGID_2_)"><defs><path id="SVGID_3_" d="M-2298.7-10975.5h3658.9V2120.3h-3658.9z"/></defs><clipPath id="SVGID_4_"><use xlink:href="#SVGID_3_" overflow="visible"/></clipPath><g clip-path="url(#SVGID_4_)"><defs><path id="SVGID_5_" d="M.8-6.4h96.6v106.7H.8z"/></defs><clipPath id="SVGID_6_"><use xlink:href="#SVGID_5_" overflow="visible"/></clipPath><g clip-path="url(#SVGID_6_)"><defs><path id="SVGID_7_" d="M13.5 6.3h71.1v81.3H13.5z"/></defs><clipPath id="SVGID_8_"><use xlink:href="#SVGID_7_" overflow="visible"/></clipPath><path clip-path="url(#SVGID_8_)" fill="#007cbe" d="M1.4-5.7h95.3V99.7H1.4z"/></g></g></g></svg>