<svg version="1.1" id="transportation" xmlns="http://www.w3.org/2000/svg" xmlns:xlink="http://www.w3.org/1999/xlink" x="0" y="0" viewBox="0 0 96 96" xml:space="preserve"><style>.st2{clip-path:url(#SVGID_6_)}</style><defs><path id="SVGID_1_" d="M33.4 57.4c1.2 0 2.1-.9 2.1-2.1s-.9-2.1-2.1-2.1-2.1.9-2.1 2.1.9 2.1 2.1 2.1zm0 4.2c-3.5 0-6.3-2.8-6.3-6.3s2.8-6.3 6.3-6.3 6.3 2.8 6.3 6.3-2.8 6.3-6.3 6.3zm30.7-4.2c1.2 0 2.1-.9 2.1-2.1s-.9-2.1-2.1-2.1-2.1 1-2.1 2.1.9 2.1 2.1 2.1zm0 4.2c-3.5 0-6.3-2.8-6.3-6.3s2.8-6.3 6.3-6.3 6.3 2.8 6.3 6.3-2.9 6.3-6.3 6.3zM31.7 25.4c-.3 0-.6.2-.7.6l-2 11.2v.1c0 .4.3.7.7.7h38c.4-.1.6-.4.6-.8l-2-11.2c-.1-.3-.3-.6-.7-.6H31.7zm0-4.2h34c2.4 0 4.4 1.7 4.8 4l2 11.2c.5 2.7-1.3 5.2-3.9 5.7-.3.1-.6.1-.9.1h-38c-2.7 0-4.9-2.2-4.9-4.9 0-.3 0-.6.1-.9l2-11.2c.4-2.3 2.5-4 4.8-4zm-3-7c-4.8 0-8.8 3.8-9 8.6L18 59v.4c0 5 4.1 9.1 9.1 9.1H71c5-.2 8.9-4.5 8.6-9.5l-1.7-36.2c-.2-4.8-4.2-8.6-9-8.6H28.7zm-.2 58.6v4.9c0 1.2.9 2.1 2.1 2.1 1.2 0 2.1-.9 2.1-2.1v-4.9h-4.2zm36.3 0v4.9c0 1.2.9 2.1 2.1 2.1s2.1-.9 2.1-2.1v-4.9h-4.2zm8.3-.3v5.1c0 3.5-2.8 6.3-6.3 6.3s-6.3-2.8-6.3-6.3v-4.9H36.9v4.9c0 3.5-2.8 6.3-6.3 6.3s-6.3-2.8-6.3-6.3v-5.1c-6.1-1.2-10.6-6.6-10.6-13v-.6l1.7-36.2c.4-7.1 6.2-12.7 13.3-12.7h40.1c7.1 0 12.9 5.6 13.2 12.6l1.7 36.2c.3 6.7-4.3 12.4-10.6 13.7z"/></defs><clipPath id="SVGID_2_"><use xlink:href="#SVGID_1_" overflow="visible"/></clipPath><g clip-path="url(#SVGID_2_)"><defs><path id="SVGID_3_" d="M4.1 2.4h89.2v89.2H4.1z"/></defs><clipPath id="SVGID_4_"><use xlink:href="#SVGID_3_" overflow="visible"/></clipPath><g clip-path="url(#SVGID_4_)"><defs><path id="SVGID_5_" d="M-1.5-6H98.9V99.9H-1.5z"/></defs><clipPath id="SVGID_6_"><use xlink:href="#SVGID_5_" overflow="visible"/></clipPath><g class="st2"><defs><path id="SVGID_7_" d="M12.5 8H85v78.1H12.5z"/></defs><clipPath id="SVGID_8_"><use xlink:href="#SVGID_7_" overflow="visible"/></clipPath><path clip-path="url(#SVGID_8_)" fill="#006be9" d="M-.2-3.9h97.9V97.9H-.2z"/></g><g class="st2"><defs><path id="SVGID_9_" d="M4.1 2.4h89.2v89.2H4.1z"/></defs><clipPath id="SVGID_10_"><use xlink:href="#SVGID_9_" overflow="visible"/></clipPath><g clip-path="url(#SVGID_10_)"><defs><path id="SVGID_11_" d="M12.5 8H85v78.1H12.5z"/></defs><clipPath id="SVGID_12_"><use xlink:href="#SVGID_11_" overflow="visible"/></clipPath><path clip-path="url(#SVGID_12_)" fill="#007cbe" d="M-9.8-11.6h117.1v117.1H-9.8z"/></g></g></g></g></svg>