<svg width="82" height="82" viewBox="0 0 82 82" xmlns="http://www.w3.org/2000/svg"><g id="Home" stroke="none" stroke-width="1" fill="none" fill-rule="evenodd"><g id="Issue-Landing-Revised-Opt.C-Hybrid" transform="translate(-756 -4827)"><g id="Group-15-Copy" transform="translate(757 4694)"><g id="1" transform="translate(0 123)"><g id="Group-7" transform="translate(0 11)"><g id="thin-0016_bookmarks_reading_book" transform="translate(19 19)"><g id="Group" fill="#0071AD" fill-rule="nonzero"><path d="M21.372 40.792a.857.857 0 01-.848-.734c-.518-3.604-11.789-3.96-18.777-3.331a.854.854 0 01-.933-.852V2.773c0-.237.099-.463.272-.625a.885.885 0 01.644-.228s1.359.094 3.538.357a.856.856 0 11-.206 1.699 90.194 90.194 0 00-2.534-.273V34.95c3.431-.244 13.832-.698 17.987 2.288v-2.495a.856.856 0 011.714 0v5.194c0 .45-.347.822-.795.854-.021.002-.041.002-.062.002z" id="Path"/><path d="M21.373 40.792a.857.857 0 01-.85-.977c.835-5.776 15.487-5.161 19.694-4.865V3.699a80 80 0 00-2.534.263.854.854 0 11-.204-1.699 72.52 72.52 0 013.54-.343.857.857 0 01.913.854v33.1a.854.854 0 01-.935.852c-6.987-.623-18.256-.267-18.776 3.332a.855.855 0 01-.848.734z" id="Path"/><path d="M21.372 35.598a.856.856 0 01-.847-.73c-.252-1.694-4.188-2.704-10.531-2.704-2.636 0-4.734.178-4.755.18a.878.878 0 01-.653-.222.853.853 0 01-.278-.63V1.262c0-.236.098-.461.27-.623a.874.874 0 01.639-.23c2.708.164 16.259 1.24 17.003 6.269l.009 28.064c0 .448-.345.82-.794.854-.02.002-.042.002-.063.002zM9.994 30.453c5.077 0 8.595.608 10.521 1.816V6.803C20.144 4.355 12.106 2.66 6.022 2.18v28.395c.88-.054 2.312-.12 3.972-.12z" id="Shape"/><path d="M21.373 35.598c-.02 0-.042 0-.063-.002a.857.857 0 01-.795-.854V6.803C21.271 1.648 34.82.573 37.528.408a.858.858 0 01.91.854v30.23a.853.853 0 01-.931.852c-.022-.002-2.12-.18-4.757-.18-6.341 0-10.279 1.01-10.53 2.704a.854.854 0 01-.847.73zM36.723 2.18C30.64 2.66 22.6 4.362 22.22 6.929l.009 25.34c1.925-1.208 5.444-1.815 10.522-1.815 1.66 0 3.092.066 3.972.12V2.18z" id="Shape"/></g><path id="Rectangle" d="M.955 0H42v41.045H.955z"/></g><circle id="Oval" stroke="#0071AD" stroke-width="2" cx="40" cy="40" r="40"/></g></g></g></g></g></svg>