<svg xmlns="http://www.w3.org/2000/svg" xmlns:xlink="http://www.w3.org/1999/xlink" width="32" height="32" viewBox="0 0 32 32"><defs><path id="a" d="M17.794 18.708a10.457 10.457 0 01-6.684 2.402c-5.799 0-10.5-4.701-10.5-10.5S5.311.11 11.11.11s10.5 4.701 10.5 10.5c0 2.54-.901 4.868-2.402 6.684l7.18 7.18-1.414 1.414-7.18-7.18zm-6.684.402a8.5 8.5 0 100-17 8.5 8.5 0 000 17z"/></defs><g fill="none" fill-rule="evenodd"><path fill="#F2F4F6" d="M-2276-550H960V598h-3236z"/><g transform="translate(2.5 3)"><mask id="b" fill="#fff"><use xlink:href="#a"/></mask><use fill="#052049" fill-rule="nonzero" xlink:href="#a"/><g fill="#052049" mask="url(#b)"><path d="M-2.5-3h32v32h-32z"/></g></g></g></svg>