<svg width="82" height="82" viewBox="0 0 82 82" xmlns="http://www.w3.org/2000/svg"><g id="Home" stroke="none" stroke-width="1" fill="none" fill-rule="evenodd"><g id="Issue-Landing-Revised-Opt.C-Hybrid" transform="translate(-756 -4982)"><g id="Group-15-Copy" transform="translate(757 4694)"><g id="1-copy" transform="translate(0 278)"><g id="Group-7" transform="translate(0 11)"><g id="thin-0586_movie_video_camera_recording" transform="translate(16 16)"><g id="Group" transform="translate(0 10)" fill="#0071AD" fill-rule="nonzero"><path d="M46.377 23.746c-.354 0-.697-.068-1.027-.207l-10.862-5.371c-.892-.373-1.506-1.254-1.506-2.219V9.998c0-.948.631-1.85 1.57-2.244l10.776-5.32c1.926-.812 3.654.562 3.654 2.22v16.64c0 .659-.296 1.304-.816 1.768a2.676 2.676 0 0 1-1.789.684zM46.4 4.204a.636.636 0 0 0-.244.05l-10.773 5.32c-.252.107-.4.279-.4.424v5.951c0 .149.144.32.335.4l10.862 5.372a.814.814 0 0 0 .197.025.685.685 0 0 0 .455-.174c.096-.086.15-.187.15-.277V4.653c0-.203-.26-.449-.582-.449z" id="Shape"/><path d="M32.152 26H3.743c-1.548 0-2.76-1.283-2.76-2.92V2.865C.982 1.231 2.168 0 3.742 0h28.41c1.587 0 2.83 1.259 2.83 2.865V23.08c0 1.61-1.27 2.92-2.83 2.92zM3.743 2c-.561 0-.76.466-.76.865V23.08c0 .443.238.92.76.92h28.41c.519 0 .83-.467.83-.92V2.865c0-.5-.35-.865-.83-.865H3.742z" id="Shape"/><path d="M11.685 17.932a4.97 4.97 0 0 1-4.964-4.965 4.97 4.97 0 0 1 4.964-4.965 4.97 4.97 0 0 1 4.964 4.965 4.97 4.97 0 0 1-4.964 4.965zm0-7.93a2.967 2.967 0 0 0-2.964 2.965 2.967 2.967 0 0 0 2.964 2.965 2.968 2.968 0 0 0 2.964-2.965 2.968 2.968 0 0 0-2.964-2.965zm12.595 7.93a4.97 4.97 0 0 1-4.965-4.965 4.97 4.97 0 0 1 4.965-4.965 4.97 4.97 0 0 1 4.964 4.965 4.97 4.97 0 0 1-4.964 4.965zm0-7.93a2.968 2.968 0 0 0-2.965 2.965 2.968 2.968 0 0 0 2.965 2.965 2.968 2.968 0 0 0 2.964-2.965 2.968 2.968 0 0 0-2.964-2.965z" id="Shape"/><path d="M24.28 10.002H11.684a1 1 0 1 1 0-2h12.594a1 1 0 1 1 0 2z" id="Path"/></g><path id="Rectangle" d="M.973 0h48v48h-48z"/></g><circle id="Oval" stroke="#0071AD" stroke-width="2" cx="40" cy="40" r="40"/></g></g></g></g></g></svg>