<?xml version="1.0" encoding="UTF-8"?>
<svg width="21px" height="21px" viewBox="0 0 21 21" version="1.1" xmlns="http://www.w3.org/2000/svg" xmlns:xlink="http://www.w3.org/1999/xlink">
    <!-- Generator: Sketch 52.3 (67297) - http://www.bohemiancoding.com/sketch -->
    <title>Group 4</title>
    <desc>Created with Sketch.</desc>
    <g id="Navigation:-Dropdowns,-responsive-top-nav-and-footer-" stroke="none" stroke-width="1" fill="none" fill-rule="evenodd">
        <g id="Top-Nav-Breakpoints" transform="translate(-770.000000, -909.000000)" fill="#58595B">
            <g id="Group-4" transform="translate(770.000000, 909.000000)">
                <path d="M-2.39339828,9.60660172 L23.6066017,9.60660172 C24.1588865,9.60660172 24.6066017,10.054317 24.6066017,10.6066017 L24.6066017,10.6066017 C24.6066017,11.1588865 24.1588865,11.6066017 23.6066017,11.6066017 L-2.39339828,11.6066017 C-2.94568303,11.6066017 -3.39339828,11.1588865 -3.39339828,10.6066017 L-3.39339828,10.6066017 C-3.39339828,10.054317 -2.94568303,9.60660172 -2.39339828,9.60660172 Z" id="Rectangle-2-Copy-2" transform="translate(10.606602, 10.606602) scale(-1, 1) rotate(45.000000) translate(-10.606602, -10.606602) "></path>
                <path d="M-2.39339828,9.60660172 L23.6066017,9.60660172 C24.1588865,9.60660172 24.6066017,10.054317 24.6066017,10.6066017 L24.6066017,10.6066017 C24.6066017,11.1588865 24.1588865,11.6066017 23.6066017,11.6066017 L-2.39339828,11.6066017 C-2.94568303,11.6066017 -3.39339828,11.1588865 -3.39339828,10.6066017 L-3.39339828,10.6066017 C-3.39339828,10.054317 -2.94568303,9.60660172 -2.39339828,9.60660172 Z" id="Rectangle-2-Copy-3" transform="translate(10.606602, 10.606602) rotate(45.000000) translate(-10.606602, -10.606602) "></path>
            </g>
        </g>
    </g>
</svg>