<?xml version="1.0" encoding="UTF-8"?>
<svg width="36px" height="36px" viewBox="0 0 29 29" version="1.1" xmlns="http://www.w3.org/2000/svg" xmlns:xlink="http://www.w3.org/1999/xlink">
    <!-- Generator: Sketch 52.3 (67297) - http://www.bohemiancoding.com/sketch -->
    <title>Group Copy 3</title>
    <desc>Created with Sketch.</desc>
    <g id="Navigation:-Dropdowns,-responsive-top-nav-and-footer-" stroke="none" stroke-width="1" fill="none" fill-rule="evenodd">
        <g id="Top-Nav-Breakpoints" transform="translate(-758.000000, -1112.000000)" fill="#58595B">
            <g id="Group-Copy-3" transform="translate(772.556349, 1126.556349) rotate(45.000000) translate(-772.556349, -1126.556349) translate(761.556349, 1115.556349)">
                <path d="M-1.97918472,10.0208153 L24.0208153,10.0208153 C24.5731,10.0208153 25.0208153,10.4685305 25.0208153,11.0208153 L25.0208153,11.0208153 C25.0208153,11.5731 24.5731,12.0208153 24.0208153,12.0208153 L-1.97918472,12.0208153 C-2.53146947,12.0208153 -2.97918472,11.5731 -2.97918472,11.0208153 L-2.97918472,11.0208153 C-2.97918472,10.4685305 -2.53146947,10.0208153 -1.97918472,10.0208153 Z" id="Rectangle-2-Copy-2" transform="translate(11.020815, 11.020815) scale(-1, 1) rotate(45.000000) translate(-11.020815, -11.020815) "></path>
                <path d="M-2,10 L24,10 C24.5522847,10 25,10.4477153 25,11 L25,11 C25,11.5522847 24.5522847,12 24,12 L-2,12 C-2.55228475,12 -3,11.5522847 -3,11 L-3,11 C-3,10.4477153 -2.55228475,10 -2,10 Z" id="Rectangle-2-Copy-3" transform="translate(11.000000, 11.000000) rotate(45.000000) translate(-11.000000, -11.000000) "></path>
            </g>
        </g>
    </g>
</svg>
