<?xml version="1.0" encoding="utf-8"?>
<!-- Generator: Adobe Illustrator 22.1.0, SVG Export Plug-In . SVG Version: 6.00 Build 0)  -->
<svg version="1.1" id="locations" xmlns="http://www.w3.org/2000/svg" xmlns:xlink="http://www.w3.org/1999/xlink" x="0px" y="0px"
	 viewBox="0 0 96 96" style="enable-background:new 0 0 96 96;" xml:space="preserve">
<style type="text/css">
	.st0{clip-path:url(#SVGID_2_);}
	.st1{clip-path:url(#SVGID_4_);enable-background:new    ;}
	.st2{clip-path:url(#SVGID_6_);}
	.st3{clip-path:url(#SVGID_8_);fill:#007CBE;}
</style>
<g>
	<defs>
		<path id="SVGID_1_" d="M26.8,27.3h3.8v9.5h-3.8V27.3z M26.8,47.6h3.8v9.5h-3.8V47.6z M39.5,27.3h3.8v9.5h-3.8V27.3z M39.5,47.6
			h3.8v9.5h-3.8V47.6z M54.8,47.6h3.8v9.5h-3.8V47.6z M67.5,47.6h3.8v9.5h-3.8V47.6z M67.5,65.4h3.8v9.5h-3.8V65.4z M26.8,65.4h3.8
			v9.5h-3.8V65.4z M51,7v3.8H21.7V7H51z M58.6,37.5H84V87H17.3h-3.2V13h44.5V37.5z M54.8,83.2V71.8H43.3v11.4H54.8z M58.6,83.2h21.6
			V41.3H54.8v-3.8V16.8H17.9v66.4h21.6V67.9h19.1V83.2z"/>
	</defs>
	<clipPath id="SVGID_2_">
		<use xlink:href="#SVGID_1_"  style="overflow:visible;"/>
	</clipPath>
	<g class="st0">
		<defs>
			<rect id="SVGID_3_" x="-2298.7" y="-10975.5" width="3658.9" height="13095.8"/>
		</defs>
		<clipPath id="SVGID_4_">
			<use xlink:href="#SVGID_3_"  style="overflow:visible;"/>
		</clipPath>
		<g class="st1">
			<g>
				<defs>
					<rect id="SVGID_5_" x="0.8" y="-6.4" width="96.6" height="106.7"/>
				</defs>
				<clipPath id="SVGID_6_">
					<use xlink:href="#SVGID_5_"  style="overflow:visible;"/>
				</clipPath>
				<g class="st2">
					<defs>
						<rect id="SVGID_7_" x="13.5" y="6.3" width="71.1" height="81.3"/>
					</defs>
					<clipPath id="SVGID_8_">
						<use xlink:href="#SVGID_7_"  style="overflow:visible;"/>
					</clipPath>
					<rect x="1.4" y="-5.7" class="st3" width="95.3" height="105.4"/>
				</g>
			</g>
		</g>
	</g>
</g>
</svg>
