<svg width="200" height="22" viewBox="0 0 200 22" xmlns="http://www.w3.org/2000/svg"><g id="Symbols" stroke="none" stroke-width="1" fill="none" fill-rule="evenodd"><g id="Footer" transform="translate(-30 -42)" fill="#FFF"><g id="Group" transform="translate(30 42)"><path d="M0 11.401v-.06C0 5.618 4.755.956 11.298.956 17.84.957 22.53 5.588 22.53 11.31v.06c0 5.723-4.755 10.385-11.297 10.385C4.69 21.755 0 17.123 0 11.4zm17.649 0v-.06c0-3.452-2.65-6.328-6.415-6.328-3.766 0-6.351 2.816-6.351 6.267v.06c0 3.452 2.649 6.328 6.415 6.328 3.765 0 6.35-2.816 6.35-6.267zM23.913.957h4.736v8.237h8.726V.957h4.736v20.798h-4.736v-8.363H28.65v8.363h-4.736zm21.044 0h4.917l5.482 8.801L60.837.957h4.918v20.798h-4.542V8.16l-5.857 8.895h-.126l-5.794-8.801v13.5h-4.48V.957z" id="Shape" fill-rule="nonzero"/><path d="M71.74 20.948L80.892.718h2.124l9.153 20.23H89.73l-2.353-5.309H76.445l-2.382 5.309H71.74zm5.595-7.346h9.154L81.926 3.357l-4.591 10.245zm24.171 7.661c-3.558 0-7.088-2.812-7.088-7.69v-.057c0-4.85 3.53-7.72 7.088-7.72 2.755 0 4.534 1.493 5.682 3.157V0h2.21v20.948h-2.21v-2.985c-1.205 1.78-2.956 3.3-5.682 3.3zm.402-1.98c2.755 0 5.366-2.324 5.366-5.739v-.057c0-3.415-2.611-5.71-5.366-5.71-2.87 0-5.223 2.123-5.223 5.71v.057c0 3.501 2.41 5.74 5.223 5.74zm16.911 1.78l-6.428-14.95h2.44l4.992 12.31 5.022-12.31h2.382l-6.457 14.95h-1.95zM130.28 2.87V.43h2.524v2.44h-2.525zm.143 18.078V6.112h2.21v14.836h-2.21zm11.775.287c-2.124 0-4.477-.832-6.141-2.181l1.119-1.578c1.607 1.205 3.386 1.894 5.136 1.894 1.78 0 3.07-.919 3.07-2.353v-.058c0-1.492-1.75-2.066-3.701-2.611-2.324-.66-4.907-1.464-4.907-4.19v-.057c0-2.554 2.124-4.247 5.05-4.247 1.808 0 3.817.631 5.338 1.636l-1.004 1.664c-1.378-.89-2.956-1.435-4.39-1.435-1.751 0-2.87.918-2.87 2.152v.058c0 1.406 1.836 1.951 3.816 2.554 2.296.688 4.764 1.578 4.764 4.247v.057c0 2.812-2.325 4.448-5.28 4.448zm15.677.057c-4.448 0-7.69-3.5-7.69-7.69v-.058c0-4.19 3.27-7.747 7.747-7.747 4.448 0 7.72 3.5 7.72 7.69v.057c0 4.19-3.3 7.748-7.777 7.748zm.057-1.98c3.214 0 5.452-2.582 5.452-5.71v-.058c0-3.185-2.381-5.796-5.51-5.796-3.213 0-5.423 2.611-5.423 5.739v.057c0 3.186 2.353 5.768 5.481 5.768zm11.23 1.636V6.112h2.21v3.874c1.09-2.468 3.242-4.247 6.054-4.132v2.382h-.172c-3.243 0-5.883 2.324-5.883 6.8v5.912h-2.21zm16.05.287c-2.123 0-4.476-.832-6.14-2.181l1.119-1.578c1.607 1.205 3.386 1.894 5.136 1.894 1.78 0 3.07-.919 3.07-2.353v-.058c0-1.492-1.75-2.066-3.701-2.611-2.325-.66-4.907-1.464-4.907-4.19v-.057c0-2.554 2.123-4.247 5.05-4.247 1.808 0 3.817.631 5.338 1.636l-1.005 1.664c-1.377-.89-2.955-1.435-4.39-1.435-1.75 0-2.87.918-2.87 2.152v.058c0 1.406 1.837 1.951 3.817 2.554 2.295.688 4.763 1.578 4.763 4.247v.057c0 2.812-2.324 4.448-5.28 4.448z" id="Advisors"/><path d="M195.448 9.267a4.125 4.125 0 0 1-4.144-4.132v-.023a4.164 4.164 0 0 1 4.167-4.155 4.125 4.125 0 0 1 4.144 4.132v.023a4.164 4.164 0 0 1-4.167 4.155zm0-.356c2.158 0 3.788-1.722 3.788-3.8V5.09c0-2.078-1.619-3.777-3.765-3.777-2.158 0-3.788 1.722-3.788 3.8v.023c0 2.077 1.619 3.776 3.765 3.776zm-1.618-1.79V2.86h1.905c.54 0 .987.173 1.263.449.206.195.344.482.344.826v.023c0 .689-.46 1.102-1.102 1.251l1.32 1.71h-.78l-1.229-1.607h-1.09V7.12h-.631zm.63-2.17h1.218c.596 0 1.01-.276 1.01-.758V4.17c0-.447-.368-.734-.976-.734h-1.251V4.95z" id="®"/></g></g></g></svg>