<?xml version="1.0" encoding="utf-8"?>
<!-- Generator: Adobe Illustrator 22.1.0, SVG Export Plug-In . SVG Version: 6.00 Build 0)  -->
<svg version="1.1" id="Layer_1" xmlns="http://www.w3.org/2000/svg" xmlns:xlink="http://www.w3.org/1999/xlink" x="0px" y="0px"
	 viewBox="0 0 48 48" style="enable-background:new 0 0 48 48;" xml:space="preserve">
<style type="text/css">
	.st0{fill:#007CBE;}
</style>
<path id="a_1_" class="st0" d="M35.4,37c-2.3,2-5.1,3.4-8.1,4c-0.2,1.4-1.4,2.4-2.8,2.4c-1.4,0-2.5-0.9-2.8-2.2
	c-3.3-0.4-6.3-1.8-8.8-3.8c-1.1,0.5-2.5,0.2-3.3-0.8c-0.8-1-0.9-2.3-0.3-3.3c-1.2-1.8-2-3.8-2.4-6c-1.4-0.2-2.4-1.4-2.4-2.8
	c0-1.4,0.9-2.5,2.2-2.8c0.3-2.4,1.1-4.7,2.3-6.7c-0.8-1-0.8-2.5,0.1-3.6c0.9-1.1,2.4-1.3,3.5-0.7c2.5-2.1,5.6-3.6,9-4
	c0.3-1.3,1.4-2.2,2.8-2.2c1.4,0,2.6,1,2.8,2.4c3.2,0.6,6.1,2.1,8.4,4.2c1.2-0.7,2.7-0.4,3.6,0.6c0.9,1.1,0.9,2.7-0.1,3.8
	c1,1.9,1.7,3.9,2,6.1c1.3,0.3,2.2,1.4,2.2,2.8c0,1.4-1,2.6-2.4,2.8c-0.4,2-1.1,3.8-2.1,5.5c0.8,1,0.7,2.5-0.1,3.5
	C38,37.3,36.6,37.6,35.4,37z M34.3,36c-0.6-1-0.6-2.3,0.2-3.3c0.8-1,2.1-1.3,3.2-0.8c0.8-1.5,1.4-3.1,1.8-4.8
	c-1-0.4-1.7-1.4-1.7-2.6c0-1.2,0.8-2.3,1.8-2.7c-0.3-2-0.9-3.8-1.8-5.5c-1,0.3-2.1-0.1-2.8-0.9c-0.8-0.9-0.9-2.1-0.4-3.1
	c-2.1-1.9-4.7-3.2-7.5-3.8c-0.4,1-1.4,1.8-2.6,1.8c-1.2,0-2.3-0.8-2.7-1.9c-3,0.4-5.8,1.7-8.1,3.6c0.5,1,0.5,2.3-0.3,3.2
	c-0.8,0.9-2,1.2-3.1,0.9c-1.1,1.8-1.8,3.8-2.1,5.9c1.1,0.4,1.8,1.4,1.8,2.7c0,1.2-0.7,2.2-1.7,2.6c0.4,1.9,1.1,3.6,2,5.2
	c1.1-0.6,2.5-0.3,3.4,0.7c0.8,1,0.9,2.3,0.2,3.4c2.2,1.7,4.8,2.9,7.7,3.3c0.4-1.1,1.4-1.9,2.7-1.9c1.2,0,2.2,0.7,2.6,1.8
	C29.8,39,32.3,37.7,34.3,36z M24.5,8.7c0.7,0,1.3-0.6,1.3-1.3s-0.6-1.3-1.3-1.3c-0.7,0-1.3,0.6-1.3,1.3S23.8,8.7,24.5,8.7z
	 M24.5,41.9c0.7,0,1.3-0.6,1.3-1.3s-0.6-1.3-1.3-1.3c-0.7,0-1.3,0.6-1.3,1.3S23.8,41.9,24.5,41.9z M7.4,25.8c0.7,0,1.3-0.6,1.3-1.3
	c0-0.7-0.6-1.3-1.3-1.3s-1.3,0.6-1.3,1.3C6.1,25.3,6.7,25.8,7.4,25.8z M40.6,25.8c0.7,0,1.3-0.6,1.3-1.3c0-0.7-0.6-1.3-1.3-1.3
	c-0.7,0-1.3,0.6-1.3,1.3C39.4,25.3,39.9,25.8,40.6,25.8z M12.6,35.8c0.5-0.5,0.6-1.3,0.1-1.8c-0.5-0.6-1.3-0.6-1.8-0.2
	s-0.6,1.3-0.1,1.8C11.3,36.2,12.1,36.3,12.6,35.8z M38,14.6c0.5-0.5,0.6-1.3,0.1-1.8c-0.5-0.6-1.3-0.6-1.8-0.2s-0.6,1.3-0.1,1.8
	C36.6,15,37.5,15.1,38,14.6z M10.5,14.3c0.5,0.5,1.4,0.4,1.8-0.2s0.4-1.4-0.1-1.8c-0.5-0.5-1.4-0.4-1.8,0.2
	C9.9,13,10,13.9,10.5,14.3z M35.8,35.5c0.5,0.5,1.4,0.4,1.8-0.2c0.5-0.6,0.4-1.4-0.1-1.8c-0.5-0.5-1.4-0.4-1.8,0.2
	C35.2,34.2,35.3,35.1,35.8,35.5z"/>
</svg>
