<?xml version="1.0" encoding="UTF-8"?>
<svg width="18px" height="17px" viewBox="0 0 18 17" version="1.1" xmlns="http://www.w3.org/2000/svg" xmlns:xlink="http://www.w3.org/1999/xlink">
    <!-- Generator: Sketch 52.3 (67297) - http://www.bohemiancoding.com/sketch -->
    <title></title>
    <desc>Created with Sketch.</desc>
    <g id="Symbols" stroke="none" stroke-width="1" fill="none" fill-rule="evenodd">
        <g id="M:-Footer" transform="translate(-113.000000, -329.000000)" fill="#C9C8C7">
            <g id="Group-9" transform="translate(22.000000, 326.000000)">
                <path d="M95.0207373,8.49539171 L95.0207373,19.9124424 L91.218894,19.9124424 L91.218894,8.49539171 L95.0207373,8.49539171 Z M95.2626728,4.97004608 C95.2703533,5.53072477 95.0764229,5.99923007 94.6808756,6.37557604 C94.2853283,6.751922 93.7649802,6.94009217 93.1198157,6.94009217 L93.0967742,6.94009217 C92.4669707,6.94009217 91.9600634,6.751922 91.5760369,6.37557604 C91.1920104,5.99923007 91,5.53072477 91,4.97004608 C91,4.40168687 91.1977707,3.93126146 91.593318,3.55875576 C91.9888653,3.18625006 92.5053732,3 93.1428571,3 C93.7803411,3 94.2910887,3.18625006 94.6751152,3.55875576 C95.0591417,3.93126146 95.2549923,4.40168687 95.2626728,4.97004608 Z M100.907834,10.1177873 C101.054138,9.88719927 101.203906,9.6843442 101.357143,9.50921659 C101.518434,9.32488387 101.735406,9.12519309 102.008065,8.91013825 C102.280723,8.69508341 102.614821,8.52803439 103.010369,8.40898618 C103.405916,8.28993796 103.84562,8.23041475 104.329493,8.23041475 C105.642864,8.23041475 106.698921,8.66627828 107.497696,9.53801843 C108.296471,10.4097586 108.695853,11.6866275 108.695853,13.3686636 L108.695853,19.9124424 L104.90553,19.9124424 L104.90553,13.8064516 C104.90553,12.999996 104.750002,12.3682819 104.43894,11.9112903 C104.127879,11.4542988 103.642092,11.2258065 102.981567,11.2258065 C102.497693,11.2258065 102.092552,11.3582936 101.766129,11.6232719 C101.439707,11.8882502 101.195853,12.2165879 101.034562,12.6082949 C100.950076,12.8387108 100.907834,13.1497676 100.907834,13.5414747 L100.907834,19.9124424 L97.1175115,19.9124424 C97.1328726,16.8479109 97.140553,14.3632968 97.140553,12.4585253 C97.140553,10.5537539 97.1367128,9.41705253 97.1290323,9.0483871 L97.1175115,8.49539171 L100.907834,8.49539171 L100.907834,10.1177873 Z" id=""></path>
            </g>
        </g>
    </g>
</svg>