<?xml version="1.0" encoding="UTF-8"?>
<svg width="19px" height="15px" viewBox="0 0 19 15" version="1.1" xmlns="http://www.w3.org/2000/svg" xmlns:xlink="http://www.w3.org/1999/xlink">
    <!-- Generator: Sketch 52.3 (67297) - http://www.bohemiancoding.com/sketch -->
    <title></title>
    <desc>Created with Sketch.</desc>
    <g id="Symbols" stroke="none" stroke-width="1" fill="none" fill-rule="evenodd">
        <g id="M:-Footer" transform="translate(-63.000000, -331.000000)" fill="#C9C8C7">
            <g id="Group-9" transform="translate(22.000000, 326.000000)">
                <path d="M59.156682,6.75115207 C58.6420865,7.50384401 58.0199729,8.14515864 57.2903226,8.67511521 C57.2980031,8.78264263 57.3018433,8.94393134 57.3018433,9.15898618 C57.3018433,10.1574551 57.1559154,11.1539889 56.8640553,12.1486175 C56.5721952,13.1432461 56.1286512,14.0975377 55.5334101,15.0115207 C54.9381691,15.9255038 54.2296508,16.7338675 53.4078341,17.4366359 C52.5860174,18.1394044 51.5952439,18.7000747 50.4354839,19.1186636 C49.2757238,19.5372525 48.0353369,19.7465438 46.7142857,19.7465438 C44.6328621,19.7465438 42.7281192,19.1897137 41,18.0760369 C41.2688185,18.106759 41.5683547,18.1221198 41.8986175,18.1221198 C43.6267368,18.1221198 45.1666599,17.5921712 46.5184332,16.5322581 C45.7119775,16.516897 44.9900185,16.2692036 44.3525346,15.7891705 C43.7150506,15.3091374 43.2772669,14.6966243 43.0391705,13.9516129 C43.292628,13.9900156 43.5268806,14.0092166 43.7419355,14.0092166 C44.0721983,14.0092166 44.3986159,13.9669743 44.7211982,13.8824885 C43.8609788,13.7058363 43.1486203,13.2776532 42.5841014,12.5979263 C42.0195824,11.9181994 41.7373272,11.1290368 41.7373272,10.2304147 L41.7373272,10.1843318 C42.2596032,10.4761919 42.8202735,10.6336404 43.4193548,10.656682 C42.9124399,10.3187387 42.5092181,9.87711486 42.2096774,9.33179724 C41.9101368,8.78647961 41.7603687,8.19508767 41.7603687,7.55760369 C41.7603687,6.88171705 41.9293378,6.25576325 42.2672811,5.6797235 C43.1966252,6.82412247 44.3275663,7.74001192 45.6601382,8.42741935 C46.9927102,9.11482679 48.4193472,9.49692742 49.9400922,9.57373272 C49.8786479,9.28187258 49.8479263,8.99769724 49.8479263,8.72119816 C49.8479263,7.69200714 50.2108259,6.81451976 50.9366359,6.08870968 C51.662446,5.3628996 52.5399334,5 53.5691244,5 C54.6443986,5 55.5506876,5.39170115 56.2880184,6.17511521 C57.1251962,6.01382408 57.9124387,5.7142879 58.6497696,5.2764977 C58.36559,6.15975864 57.8202805,6.84331555 57.0138249,7.32718894 C57.7281142,7.25038364 58.4423927,7.05837327 59.156682,6.75115207 Z" id=""></path>
            </g>
        </g>
    </g>
</svg>